<svg width="70" height="70" viewBox="0 0 70 70" fill="none" xmlns="http://www.w3.org/2000/svg">
<g clip-path="url(#clip0)">
<path d="M67.2291 15.4452L35.4463 0.101802C35.1646 -0.0340967 34.8364 -0.0340967 34.5548 0.101802L2.77193 15.4452C2.41756 15.6162 2.19238 15.9751 2.19238 16.3686V53.6312C2.19238 54.0246 2.41756 54.3835 2.77193 54.5546L34.5547 69.8979C34.6955 69.9659 34.8481 69.9999 35.0005 69.9999C35.153 69.9999 35.3054 69.9659 35.4463 69.8979L67.2291 54.5546C67.5835 54.3835 67.8086 54.0246 67.8086 53.6312V16.3687C67.8086 15.975 67.5833 15.6164 67.2291 15.4452ZM35.0005 2.16393L64.4247 16.3686L55.8952 20.4863C55.8412 20.4451 55.7842 20.4071 55.7216 20.3769L26.4973 6.26891L35.0005 2.16393ZM24.1815 7.42829L53.5629 21.6123L47.5453 24.5174L18.176 10.3392L24.1815 7.42829ZM54.2504 23.5575V34.2963L48.6295 37.0098V26.2711L54.2504 23.5575ZM65.7578 52.9878L36.0259 67.3408V32.3555L43.1179 28.9318C43.6279 28.6856 43.8417 28.0727 43.5955 27.5626C43.3492 27.0528 42.7363 26.8387 42.2262 27.085L35.0005 30.5734L32.1573 29.2007C31.6472 28.9542 31.0343 29.1683 30.7881 29.6783C30.5418 30.1883 30.7557 30.8013 31.2656 31.0475L33.9751 32.3555V67.3408L4.24316 52.9875V18.0023L26.8838 28.9322C27.0275 29.0017 27.1794 29.0345 27.3288 29.0345C27.71 29.0345 28.0761 28.8209 28.2529 28.4547C28.4991 27.9447 28.2853 27.3317 27.7753 27.0854L5.57631 16.3686L15.7625 11.4511L46.5645 26.321C46.569 26.3273 46.574 26.3329 46.5787 26.3391V38.6436C46.5787 38.9965 46.7601 39.3245 47.059 39.5122C47.2249 39.6164 47.4143 39.669 47.6042 39.669C47.7562 39.669 47.9087 39.6353 48.0499 39.567L55.7216 35.8635C56.076 35.6924 56.3012 35.3337 56.3012 34.9401V22.5677L65.7578 18.0024V52.9878Z" fill="#2A8AEA"/>
<path d="M12.704 49.0108L8.03983 46.7592C7.52959 46.5127 6.91682 46.7268 6.67059 47.2368C6.42436 47.7467 6.63819 48.3598 7.14815 48.606L11.8123 50.8576C11.956 50.9271 12.1079 50.9599 12.2573 50.9599C12.6385 50.9599 13.0046 50.7463 13.1814 50.3801C13.4278 49.87 13.214 49.2572 12.704 49.0108Z" fill="#2A8AEA"/>
<path d="M16.9974 46.2167L8.04707 41.8958C7.53697 41.6496 6.92406 41.8634 6.67783 42.3735C6.43173 42.8835 6.64556 43.4965 7.15552 43.7427L16.1058 48.0636C16.2495 48.1329 16.4014 48.1659 16.5508 48.1659C16.932 48.1659 17.2981 47.9523 17.4749 47.586C17.7211 47.0758 17.5073 46.4628 16.9974 46.2167Z" fill="#2A8AEA"/>
</g>
<defs>
<clipPath id="clip0">
<rect width="70" height="70" fill="white"/>
</clipPath>
</defs>
</svg>
