<svg width="75" height="75" viewBox="0 0 75 75" fill="none" xmlns="http://www.w3.org/2000/svg">
<path d="M69.3306 5.08354C69.1994 5.02882 69.0588 5.00051 68.9167 5H59.1667C58.8794 5 58.6039 5.11413 58.4008 5.31738L41.8333 21.8848V17.3652L45.8486 13.35C46.0509 13.1459 46.1651 12.8706 46.1667 12.5833V6.08329C46.1646 5.48585 45.6807 5.00216 45.0834 5H35.3334C35.0461 5 34.7705 5.11413 34.5675 5.31738L5.31814 34.5666C5.11591 34.7708 5.00165 35.046 5 35.3333V68.9166C4.99987 69.2039 5.114 69.4795 5.31726 69.6827C5.52038 69.8859 5.796 70 6.08342 70H39.6667C39.9541 69.9985 40.2295 69.8841 40.4336 69.6817L69.6826 40.4326C69.8857 40.2295 70 39.954 70 39.6667V6.08329C69.9984 5.64568 69.7345 5.25175 69.3306 5.08354ZM44 12.1348L39.9847 16.15L39.9831 16.1517L16.9167 39.2181V35.7818L44 8.69853V12.1348ZM29.1505 42.5995C29.3537 42.8026 29.6293 42.9167 29.9167 42.9167H30.5515L13.6667 59.8015V42.9167H15.8334C16.1208 42.9152 16.3962 42.8008 16.6003 42.5984L39.6668 19.5319V24.0515L29.1516 34.5667C28.9493 34.7709 28.8351 35.0461 28.8334 35.3334V41.8334C28.8333 42.1207 28.9474 42.3963 29.1505 42.5995ZM32.0833 44.4485V61.3333H15.1985L32.0833 44.4485ZM35.7819 7.16671H42.4682L15.3848 34.25H8.69853L35.7819 7.16671ZM38.5833 67.8333H7.16671V36.4167H14.75V40.75H12.5833C12.296 40.7499 12.0204 40.864 11.8171 41.0673C11.614 41.2704 11.4999 41.546 11.4999 41.8334V62.4167C11.5022 63.014 11.9858 63.4977 12.5832 63.5H33.1665C33.4538 63.5001 33.7294 63.386 33.9326 63.1827C34.1357 62.9796 34.2499 62.704 34.2499 62.4166V41.8333C34.2477 41.2358 33.7639 40.7522 33.1666 40.75H31V36.4167H38.5833V67.8333ZM39.2181 34.25H32.5318L41.5151 25.2667L41.5168 25.265L59.6152 7.16671H66.3015L39.2181 34.25ZM67.8333 39.2181L40.75 66.3015V35.7819L67.8333 8.69853V39.2181Z" fill="#3992D3"/>
</svg>
