<svg width="70" height="70" viewBox="0 0 70 70" fill="none" xmlns="http://www.w3.org/2000/svg">
<path d="M65.8984 37.7329H64.5312V28.1626C64.5312 24.3897 61.8819 21.226 58.3464 20.4287L52.1236 9.65058C51.2117 8.07107 49.7392 6.94109 47.9773 6.469C46.7333 6.13582 45.4506 6.16029 44.2478 6.52341L39.7229 1.99843C37.0604 -0.663891 32.7286 -0.664165 30.066 1.99843L11.8318 20.2329H7.92969C3.55729 20.2329 0 23.7902 0 28.1626V62.0688C0 66.4412 3.55729 69.9985 7.92969 69.9985H26.1133C26.8682 69.9985 27.4805 69.3863 27.4805 68.6313C27.4805 67.8764 26.8682 67.2641 26.1133 67.2641H7.92969C5.06502 67.2641 2.73438 64.9335 2.73438 62.0688V28.1626C2.73438 25.2979 5.06502 22.9673 7.92969 22.9673H56.6016C59.4662 22.9673 61.7969 25.2979 61.7969 28.1626V37.7329H51.6797C47.6089 37.7329 44.2969 41.0449 44.2969 45.1157C44.2969 49.1865 47.6089 52.4985 51.6797 52.4985H61.7969V62.0688C61.7969 64.9335 59.4662 67.2641 56.6016 67.2641H38.418C37.663 67.2641 37.0508 67.8764 37.0508 68.6313C37.0508 69.3863 37.663 69.9985 38.418 69.9985H56.6016C60.974 69.9985 64.5312 66.4412 64.5312 62.0688V52.4985H65.8984C68.16 52.4985 70 50.6586 70 48.3969V41.8344C70 39.573 68.16 37.7329 65.8984 37.7329ZM47.2697 9.11027C48.326 9.39328 49.2089 10.0707 49.7556 11.0178L55.0761 20.2329H25.6065L44.163 9.51919C45.1099 8.97259 46.213 8.82712 47.2697 9.11027ZM31.9996 3.93205C32.7727 3.15876 33.801 2.73289 34.8945 2.73289C35.9881 2.73289 37.0163 3.15876 37.7895 3.93205L41.6629 7.80542L20.1379 20.2329H15.6989L31.9996 3.93205ZM67.2656 48.3969C67.2656 49.1508 66.6523 49.7641 65.8984 49.7641H51.6797C49.1165 49.7641 47.0312 47.6789 47.0312 45.1157C47.0312 42.5525 49.1165 40.4673 51.6797 40.4673H65.8984C66.6523 40.4673 67.2656 41.0806 67.2656 41.8344V48.3969Z" fill="#2A8AEA"/>
<path d="M51.4512 43.7483C51.0916 43.7483 50.7389 43.8944 50.4846 44.1489C50.2303 44.4033 50.084 44.7545 50.084 45.1155C50.084 45.475 50.2301 45.8278 50.4846 46.0819C50.7389 46.3362 51.0916 46.4827 51.4512 46.4827C51.8121 46.4827 52.1635 46.3364 52.4176 46.0819C52.6733 45.8278 52.8184 45.475 52.8184 45.1155C52.8184 44.7559 52.6733 44.4032 52.4176 44.1489C52.1635 43.8946 51.8121 43.7483 51.4512 43.7483Z" fill="#2A8AEA"/>
<path d="M32.2656 67.2639C31.9061 67.2639 31.5533 67.4101 31.299 67.6645C31.0447 67.9189 30.8984 68.2715 30.8984 68.6311C30.8984 68.9907 31.0446 69.3434 31.299 69.5976C31.5533 69.8519 31.9061 69.9983 32.2656 69.9983C32.6252 69.9983 32.9779 69.852 33.2321 69.5976C33.4864 69.3434 33.6328 68.9907 33.6328 68.6311C33.6328 68.2715 33.4865 67.9188 33.2321 67.6645C32.9779 67.4102 32.6252 67.2639 32.2656 67.2639Z" fill="#2A8AEA"/>
</svg>
