<svg width="70" height="70" viewBox="0 0 70 70" fill="none" xmlns="http://www.w3.org/2000/svg">
<path d="M66.9916 36.9914C65.0738 34.9644 62.4831 33.7407 59.6954 33.5447L59.0232 33.4791C58.9901 33.4759 58.9569 33.4743 58.9235 33.4743C57.8832 33.4743 56.8347 33.6396 55.7356 33.9784L54.9406 33.1833C55.5185 31.7395 55.2058 30.0537 54.0701 28.9181L53.9352 28.7819C53.1199 27.9664 52.0243 27.5731 50.9401 27.6249C50.9924 26.5403 50.5984 25.4461 49.7844 24.631L49.6527 24.4994C48.8371 23.6848 47.741 23.291 46.658 23.3434C46.7105 22.2585 46.3165 21.1644 45.5023 20.349L45.3707 20.2173C44.5556 19.4033 43.4606 19.0101 42.3765 19.0619C42.429 17.9761 42.0339 16.8806 41.2167 16.0634L41.0884 15.9362C39.9465 14.7929 38.2565 14.4803 36.8153 15.0611L36.0225 14.269C36.361 13.1781 36.5265 12.129 36.5265 11.08C36.5265 11.0487 36.5251 11.0175 36.5222 10.9863L36.4603 10.3112C36.3497 8.7347 35.9167 7.23052 35.1735 5.84009C34.9065 5.34052 34.2851 5.15226 33.7858 5.41913C33.2864 5.68601 33.098 6.30739 33.3648 6.80669C33.9726 7.94365 34.326 9.17412 34.4152 10.4642C34.4158 10.4719 34.4163 10.4794 34.417 10.487L34.4755 11.1252C34.4698 12.1149 34.2762 13.1189 33.8842 14.1928C33.7475 14.5675 33.8405 14.9875 34.1227 15.2697L35.1382 16.2845L30.6717 20.7514L29.6567 19.7363C29.3735 19.4532 28.9514 19.3605 28.5756 19.5C27.5238 19.8895 26.5171 20.082 25.5005 20.0881L24.8816 20.0263C24.8714 20.0254 24.8613 20.0244 24.8512 20.0237C20.1359 19.6996 16.4423 15.7709 16.4423 11.0798C16.4423 10.2424 16.5629 9.41269 16.802 8.5999L22.362 14.1485C22.7664 14.5703 23.2781 14.8955 23.9159 15.1389C24.4166 15.3358 24.9328 15.4357 25.4507 15.4357C26.6202 15.4357 27.7186 14.9814 28.5355 14.1646C29.7363 12.991 30.1361 11.1814 29.5539 9.55447C29.547 9.53492 29.5396 9.51592 29.5314 9.49691C29.3551 9.08457 29.0606 8.47945 28.5362 7.97496L22.9824 2.41788C23.7907 2.17383 24.6163 2.05079 25.4506 2.05079C27.5037 2.05079 29.4343 2.72672 31.0336 4.00559C31.4761 4.35929 32.1212 4.28751 32.4749 3.84509C32.8285 3.4028 32.7567 2.75762 32.3144 2.40393C30.3476 0.831252 27.9741 0 25.4506 0C23.8213 0 22.2244 0.375704 20.7042 1.11686C20.4065 1.26205 20.1972 1.54219 20.1423 1.86909C20.0876 2.19584 20.1941 2.52889 20.4283 2.76336L27.0934 9.43252C27.0991 9.43826 27.1049 9.44387 27.1108 9.44947C27.3045 9.63445 27.4661 9.88916 27.6328 10.2731C27.9316 11.1403 27.7246 12.0892 27.0937 12.7061C26.6559 13.1438 26.0724 13.3848 25.4506 13.3848C25.1908 13.3848 24.9271 13.3328 24.6567 13.2266C24.296 13.0889 24.0282 12.9247 23.838 12.7247C23.8318 12.7182 23.8255 12.7117 23.8193 12.7054L17.1364 6.03628C16.9007 5.80099 16.5655 5.69517 16.2375 5.75163C15.9095 5.80837 15.6292 6.02083 15.4862 6.32134C14.7597 7.84767 14.3914 9.44865 14.3914 11.0797C14.3914 13.8998 15.4571 16.5792 17.3924 18.6244C18.9545 20.2753 20.9661 21.3926 23.1689 21.8555C22.3911 23.6643 22.6923 25.8411 24.0614 27.3619L21.681 29.7424C20.7922 30.6304 20.3026 31.8114 20.3026 33.0677C20.3026 34.2305 20.7219 35.329 21.4883 36.1899L17.7955 39.8827L15.5879 37.6751C15.1876 37.2748 14.5384 37.2748 14.1379 37.6751L8.62662 43.1849C8.62416 43.1874 8.62211 43.1901 8.61979 43.1925L0.301802 51.5108C-0.0986477 51.9114 -0.0986477 52.5605 0.301802 52.961L6.6956 59.3548C7.09605 59.7551 7.74533 59.7551 8.14565 59.3548C8.5461 58.9542 8.5461 58.3051 8.14565 57.9046L2.477 52.236L10.1565 44.5565L25.4452 59.8452L17.7657 67.5247L11.0023 60.7611C10.6019 60.3608 9.95266 60.3608 9.55221 60.7611C9.15176 61.1617 9.15176 61.8108 9.55221 62.2113L17.0407 69.6998C17.233 69.892 17.4938 70 17.7657 70C18.0377 70 18.2985 69.892 18.4908 69.6998L26.8036 61.3871C26.8082 61.3827 26.8131 61.3789 26.8176 61.3744L32.3267 55.8638C32.5191 55.6714 32.6271 55.4107 32.6271 55.1386C32.6271 54.8666 32.5191 54.606 32.3267 54.4135L30.6469 52.7336L34.4116 48.968C36.0154 49.9953 38.1049 49.9636 39.7026 48.7973C40.16 48.4635 40.2601 47.822 39.9263 47.3647C39.5924 46.9073 38.9509 46.807 38.4936 47.141C37.4335 47.9147 35.9889 47.8012 35.0585 46.8707C34.8661 46.6785 34.6054 46.5705 34.3334 46.5705C34.0613 46.5705 33.8006 46.6786 33.6082 46.8708L29.1967 51.2834L19.246 41.3328L23.6574 36.9212C24.0574 36.5211 24.0578 35.8726 23.6583 35.472L23.131 34.9432C22.6297 34.442 22.3536 33.7757 22.3536 33.0674C22.3536 32.3591 22.6297 31.6934 23.131 31.1926L26.228 28.0952C26.2292 28.094 26.2306 28.093 26.2318 28.0918C26.233 28.0906 26.234 28.0892 26.2352 28.088L31.3901 22.9326C31.3923 22.9304 31.3947 22.9285 31.397 22.9263C31.3994 22.9241 31.4011 22.9216 31.4033 22.9193L36.9372 17.3851C37.0202 17.3021 37.1085 17.2285 37.2066 17.1618C37.9634 16.6387 38.9856 16.7324 39.6413 17.3889L39.7703 17.5166C40.4224 18.1687 40.5162 19.1919 39.9924 19.9507C39.9284 20.0437 39.8546 20.1322 39.7735 20.2136C39.7723 20.2149 39.7709 20.216 39.7697 20.2172L33.6648 26.3221C33.2643 26.7227 33.2643 27.3718 33.6648 27.7723C33.865 27.9724 34.1275 28.0725 34.3898 28.0725C34.6522 28.0725 34.9147 27.9724 35.1148 27.7723L41.2146 21.6724C41.2163 21.6706 41.2183 21.6691 41.22 21.6675C41.3026 21.5849 41.3926 21.51 41.4877 21.4444C42.245 20.9218 43.2684 21.0159 43.9208 21.6674L44.0516 21.7981C44.7034 22.4506 44.7973 23.4737 44.2708 24.2367C44.2091 24.3276 44.1356 24.4158 44.0523 24.499C44.0522 24.4991 44.0519 24.4992 44.0518 24.4994L37.947 30.6041C37.5465 31.0047 37.5465 31.6539 37.947 32.0543C38.1471 32.2545 38.4096 32.3546 38.672 32.3546C38.9344 32.3546 39.1969 32.2545 39.397 32.0543L45.5015 25.9498C45.5018 25.9495 45.5019 25.9494 45.5022 25.9491C45.5855 25.8659 45.6738 25.7923 45.7711 25.7261C46.5279 25.204 47.5508 25.2979 48.2029 25.9491L48.3337 26.0798C48.9854 26.7324 49.0795 27.7553 48.5528 28.5184C48.491 28.6094 48.4175 28.6979 48.3341 28.7813C48.3327 28.7826 48.3316 28.7841 48.3304 28.7854L42.2293 34.8863C41.8288 35.2869 41.8288 35.936 42.2293 36.3365C42.4294 36.5367 42.6919 36.6367 42.9543 36.6367C43.2167 36.6367 43.4792 36.5367 43.6793 36.3365L49.7842 30.2317C49.7852 30.2308 49.7862 30.2295 49.7871 30.2286C49.8696 30.1464 49.9569 30.0737 50.0532 30.0082C50.8103 29.4856 51.8331 29.579 52.4813 30.2275L52.6162 30.3638C53.2673 31.0148 53.3614 32.0374 52.8398 32.7952C52.772 32.8938 52.6988 32.9818 52.6162 33.0644L41.2619 44.4189C40.8614 44.8194 40.8613 45.4685 41.2617 45.869C41.4619 46.0692 41.7244 46.1693 41.9869 46.1693C42.2493 46.1693 42.5116 46.0692 42.7119 45.8691L47.8009 40.7801L48.3656 41.3448C48.0327 42.4093 47.8644 43.4857 47.8644 44.5533C47.8644 44.5853 47.8659 44.6174 47.8689 44.6493L47.9307 45.3055C48.1261 48.0998 49.3492 50.6936 51.3755 52.611C53.4212 54.5465 56.1019 55.6125 58.9236 55.6125C60.5465 55.6125 62.1456 55.2439 63.6769 54.5168C63.9779 54.374 64.1906 54.0938 64.2475 53.7657C64.3045 53.4376 64.1984 53.1021 63.9631 52.8664L57.2939 46.1808C57.2893 46.1763 57.2848 46.1718 57.2801 46.1671C57.0083 45.9049 56.8623 45.5929 56.7877 45.3773C56.7852 45.3702 56.7826 45.3631 56.78 45.3561C56.4542 44.4781 56.6488 43.5416 57.2907 42.9087C57.7334 42.4689 58.3132 42.2266 58.9235 42.2266C59.1896 42.2266 59.4497 42.2775 59.6966 42.3778C59.7049 42.3811 59.7132 42.3845 59.7214 42.3875C60.0948 42.5282 60.3575 42.6871 60.5481 42.8878C60.5541 42.8941 60.5603 42.9004 60.5665 42.9065L67.237 49.5755C67.4714 49.8102 67.8053 49.9171 68.1322 49.8616C68.4594 49.8066 68.7395 49.5966 68.8844 49.2983C69.6241 47.7745 69.9991 46.1784 69.9991 44.5534C69.9991 41.7271 68.9311 39.0413 66.9916 36.9914ZM28.4711 53.4585C28.4713 53.4586 28.4715 53.4589 28.4717 53.4592C28.4718 53.4595 28.4721 53.4596 28.4723 53.4597L30.1515 55.1389L26.8957 58.3954L11.6064 43.1061L14.8629 39.8503L17.07 42.0574C17.0703 42.0576 17.0704 42.0579 17.0707 42.0582C17.0709 42.0585 17.0712 42.0586 17.0715 42.0589L28.4711 53.4585ZM25.5161 25.9073C24.6159 24.8342 24.5586 23.2705 25.351 22.134C25.3841 22.1371 25.4174 22.1389 25.4506 22.1389C26.507 22.1389 27.583 21.9705 28.6573 21.6374L29.2214 22.2015L25.5161 25.9073ZM67.5815 47.0207L62.0248 41.4652C61.6229 41.0458 61.1095 40.7212 60.4564 40.4735C59.9667 40.2763 59.451 40.1763 58.9235 40.1763C57.7678 40.1763 56.6745 40.6302 55.848 41.4516C54.6476 42.6349 54.2578 44.4426 54.8535 46.0597C55.0647 46.6645 55.4085 47.2091 55.8484 47.6361L61.3996 53.2011C60.5855 53.4411 59.7572 53.5623 58.9236 53.5623C54.2303 53.5623 50.2998 49.868 49.9757 45.152C49.9751 45.1434 49.9744 45.1349 49.9735 45.1263L49.9152 44.5071C49.9211 43.4898 50.1188 42.456 50.5031 41.4338C50.6448 41.0571 50.5529 40.6326 50.2684 40.348L49.251 39.3306L53.7196 34.8623L54.7342 35.877C55.0153 36.1581 55.4333 36.2515 55.8073 36.1165C56.8921 35.7251 57.8963 35.5315 58.8752 35.5253L59.5103 35.5874C59.52 35.5884 59.5297 35.5892 59.5394 35.5899C64.2549 35.9151 67.9485 39.8528 67.9485 44.5541C67.9483 45.3861 67.8253 46.2114 67.5815 47.0207Z" fill="#2A8AEA"/>
</svg>
