<svg width="75" height="75" viewBox="0 0 75 75" fill="none" xmlns="http://www.w3.org/2000/svg">
<path d="M45.8159 30.5137L35.2929 40.4529L30.2426 35.2572C29.6827 34.6808 28.7608 34.6677 28.185 35.2276C27.6086 35.788 27.5955 36.7094 28.1553 37.2858L34.2125 43.5037C34.7752 44.0698 35.6846 44.0892 36.2706 43.547L47.845 32.63C48.1261 32.3649 48.2903 31.9989 48.3011 31.6129C48.3119 31.2269 48.1688 30.8524 47.9031 30.5719C47.3398 29.9863 46.4111 29.9607 45.8159 30.5137Z" fill="#3992D3"/>
<path d="M38.0071 15.2173C25.9806 15.2173 16.2017 24.9963 16.2017 37.0227C16.2017 49.0498 25.9806 58.8288 38.0071 58.8288C50.0341 58.8288 59.8131 49.0498 59.8131 37.0227C59.8131 24.9963 50.0341 15.2173 38.0071 15.2173ZM38.0071 55.9097C27.5862 55.9097 19.1208 47.4294 19.1208 37.0227C19.1208 26.616 27.5862 18.1364 38.0071 18.1364C48.4383 18.1364 56.894 26.5921 56.894 37.0227C56.894 47.4534 48.4383 55.9097 38.0071 55.9097Z" fill="#3992D3"/>
<path d="M68.0157 28.9944L68.4975 20.3392C68.5311 19.7582 68.2153 19.2126 67.6947 18.9526L59.9882 15.0557L56.0913 7.34917C55.8262 6.83319 55.284 6.51905 54.7047 6.54641L46.0347 7.01393L38.8099 2.24074C38.323 1.91975 37.6918 1.91975 37.2044 2.24074L29.9796 7.01393L21.3249 6.53216C20.7434 6.49795 20.1983 6.81381 19.9383 7.33491L16.0409 15.0415L8.33492 18.9383C7.81837 19.2029 7.5048 19.7451 7.53216 20.3249L8.01336 28.9802L3.24074 36.2049C2.91975 36.6918 2.91975 37.323 3.24074 37.8104L7.9991 45.0495L7.51734 53.7047C7.4837 54.2857 7.79899 54.8313 8.32009 55.0913L16.0266 58.9882L19.9235 66.6947C20.1881 67.2112 20.7303 67.5248 21.3101 67.4975L29.9653 67.0157L37.1901 71.7883C37.6742 72.1196 38.3116 72.1196 38.7956 71.7883L46.0204 67.0157L54.6757 67.4975C55.2566 67.5311 55.8017 67.2152 56.0622 66.6947L59.9591 58.9882L67.6657 55.0913C68.1816 54.8262 68.4958 54.2845 68.4684 53.7047L67.9866 45.0495L72.7593 37.8247C73.0802 37.3378 73.0802 36.7061 72.7593 36.2192L68.0157 28.9944ZM65.3007 43.8527C65.1228 44.1139 65.0402 44.428 65.0675 44.7433L65.5197 52.931L58.2367 56.609C57.9591 56.7481 57.7339 56.9739 57.5948 57.2515L53.9162 64.5345L45.7285 64.0823C45.4149 64.0709 45.1053 64.1519 44.8379 64.3155L38.0071 68.8259L31.1769 64.3155C30.9397 64.1553 30.6603 64.0687 30.3741 64.0675H30.3012L22.1128 64.5202L18.4349 57.2367C18.2958 56.959 18.0706 56.7338 17.7923 56.5947L10.4946 52.931L10.9473 44.7433C10.9587 44.4297 10.8772 44.1201 10.7135 43.8527L6.20374 37.0219L10.7135 30.1911C10.892 29.9306 10.9746 29.6159 10.9473 29.3011L10.4946 21.1128L17.7781 17.4349C18.0558 17.2958 18.281 17.0706 18.4201 16.7929L22.098 9.50941L30.2863 9.9621C30.5993 9.97294 30.9089 9.89198 31.1769 9.72835L38.0071 5.21856L44.8379 9.72835C45.0991 9.9068 45.4138 9.98947 45.7285 9.9621L53.9162 9.50941L57.5948 16.7929C57.7339 17.0706 57.9591 17.2958 58.2367 17.4349L65.5197 21.1128L65.0675 29.3011C65.0561 29.6141 65.1377 29.9237 65.3007 30.1911L69.8111 37.0219L65.3007 43.8527Z" fill="#3992D3"/>
</svg>
