<svg width="70" height="70" viewBox="0 0 70 70" fill="none" xmlns="http://www.w3.org/2000/svg">
<g clip-path="url(#clip0)">
<path d="M62.0065 7.55177C62.0029 4.61192 59.6192 2.22974 56.6787 2.22974H34.3693C32.9563 2.22974 31.6011 2.7909 30.6019 3.79L1.56109 32.8248C-0.520197 34.9056 -0.520364 38.2795 1.56059 40.3608L23.87 62.6704C24.9104 63.7108 26.2741 64.2311 27.6379 64.2311C28.4963 64.2311 29.3454 64.0007 30.1231 63.5884C32.9696 61.2443 28.7582 65.3173 60.4461 33.6357C61.4457 32.6363 62.0072 31.2809 62.0072 29.8675C62.0072 7.23788 62.0074 11.1036 62.0065 7.55177ZM59.3429 29.8673C59.3429 30.579 59.0657 31.2482 58.5625 31.7514L29.5215 60.7867C29.0183 61.2899 28.3493 61.567 27.6376 61.567C26.9259 61.567 26.257 61.2898 25.7536 60.7867L3.44456 38.477C2.94135 37.9738 2.66426 37.3046 2.66426 36.5931C2.66426 35.8814 2.94151 35.2123 3.44472 34.7091L32.4855 5.67413C32.9887 5.17108 33.6576 4.894 34.3693 4.894H56.6789C58.1479 4.894 59.3431 6.08925 59.3431 7.55826V29.8673H59.3429Z" fill="#2A8AEA"/>
<path d="M67.3365 7.55823V32.5314C67.3365 33.243 67.0592 33.9123 66.556 34.4155L35.0796 65.8863L36.9634 67.7702L68.4397 36.2996C69.4393 35.3002 70.0007 33.9447 70.0007 32.5314V7.55823H67.3365Z" fill="#2A8AEA"/>
<path d="M47.3539 11.5547C44.4164 11.5547 42.0254 13.9444 42.0254 16.8832C42.0254 19.8221 44.4164 22.2117 47.3539 22.2117C50.2914 22.2117 52.6824 19.8221 52.6824 16.8832C52.6824 13.9444 50.2913 11.5547 47.3539 11.5547ZM47.3539 19.5475C45.8839 19.5475 44.6897 18.3519 44.6897 16.8832C44.6897 15.4145 45.8839 14.219 47.3539 14.219C48.8239 14.219 50.0182 15.4145 50.0182 16.8832C50.0182 18.3519 48.8239 19.5475 47.3539 19.5475Z" fill="#2A8AEA"/>
</g>
<defs>
<clipPath id="clip0">
<rect width="70" height="70" fill="white"/>
</clipPath>
</defs>
</svg>
