<svg width="75" height="75" viewBox="0 0 75 75" fill="none" xmlns="http://www.w3.org/2000/svg">
<path d="M65.625 48.3501V16.4062C65.625 16.1886 65.5644 15.9752 65.4501 15.79C65.3357 15.6048 65.1721 15.455 64.9775 15.3574L36.8525 1.29492C36.6952 1.2167 36.5223 1.17478 36.3466 1.17224C36.1709 1.16971 35.9969 1.20662 35.8374 1.28027L5.36865 15.3428C5.16517 15.4362 4.99281 15.586 4.87205 15.7746C4.7513 15.9631 4.68724 16.1824 4.6875 16.4062V53.9062C4.68724 54.1301 4.7513 54.3494 4.87205 54.5379C4.99281 54.7264 5.16517 54.8763 5.36865 54.9697L35.8374 69.0322C35.9969 69.1061 36.1709 69.1431 36.3466 69.1405C36.5224 69.138 36.6953 69.096 36.8525 69.0176L44.458 65.2134C45.299 67.2169 46.5928 68.9982 48.2379 70.4176C49.8831 71.8369 51.8348 72.8557 53.9399 73.394C56.045 73.9323 58.2462 73.9754 60.3707 73.5199C62.4952 73.0644 64.4853 72.1228 66.1848 70.7689C67.8842 69.415 69.2467 67.6857 70.1655 65.7166C71.0842 63.7476 71.5341 61.5924 71.4799 59.4203C71.4256 57.2481 70.8687 55.1181 69.8529 53.1974C68.837 51.2767 67.3899 49.6175 65.625 48.3501ZM48.542 9.76025L23.4873 23.2515L17.0684 20.2895L42.8188 6.89941L48.542 9.76025ZM22.2656 25.2685V43.9263L16.4063 41.4141V22.5644L22.2656 25.2685ZM36.3076 3.64452L40.229 5.60449L14.6938 18.8818C14.5972 18.9324 14.508 18.996 14.4287 19.0708L8.65576 16.4062L36.3076 3.64452ZM35.1562 66.1377L7.03125 53.1562V18.2373L14.0625 21.4834V42.1875C14.0626 42.4168 14.13 42.641 14.2563 42.8324C14.3825 43.0238 14.5622 43.1739 14.773 43.2642L22.9761 46.7798C23.1217 46.843 23.2788 46.8754 23.4375 46.875C23.7483 46.875 24.0464 46.7515 24.2661 46.5318C24.4859 46.312 24.6094 46.0139 24.6094 45.7031V26.3511L35.1562 31.2187V66.1377ZM36.3076 29.168L26.1489 24.4805L51.1055 11.042L61.8325 16.4062L36.3076 29.168ZM43.7256 62.9604L37.5 66.0732V31.1924L63.2812 18.3018V46.9834C60.8904 45.8885 58.2405 45.4858 55.6324 45.821C53.0242 46.1561 50.5622 47.2157 48.5258 48.8794C46.4894 50.5431 44.9602 52.7444 44.1117 55.2334C43.2632 57.7223 43.1295 60.3993 43.7256 62.9604ZM57.4219 71.4844C55.1041 71.4844 52.8384 70.7971 50.9113 69.5094C48.9841 68.2217 47.4821 66.3915 46.5952 64.2502C45.7082 62.1089 45.4761 59.7526 45.9283 57.4794C46.3805 55.2062 47.4966 53.1181 49.1355 51.4792C50.7744 49.8403 52.8624 48.7242 55.1357 48.272C57.4089 47.8199 59.7651 48.0519 61.9064 48.9389C64.0478 49.8259 65.878 51.3279 67.1657 53.255C68.4533 55.1822 69.1406 57.4479 69.1406 59.7656C69.137 62.8725 67.9012 65.8511 65.7043 68.048C63.5074 70.245 60.5288 71.4808 57.4219 71.4844Z" fill="#3992D3"/>
<path d="M62.4524 56.5932L56.2498 62.796L53.5628 60.1089C53.3431 59.8891 53.045 59.7656 52.7342 59.7656C52.4234 59.7656 52.1253 59.8891 51.9055 60.1089C51.6857 60.3286 51.5623 60.6267 51.5623 60.9375C51.5623 61.2483 51.6857 61.5464 51.9055 61.7662L55.4211 65.2818C55.5299 65.3906 55.6591 65.477 55.8013 65.5359C55.9435 65.5948 56.0959 65.6251 56.2498 65.6251C56.4037 65.6251 56.5561 65.5948 56.6983 65.5359C56.8404 65.477 56.9696 65.3906 57.0785 65.2818L64.1097 58.2506C64.2185 58.1417 64.3049 58.0126 64.3637 57.8704C64.4226 57.7282 64.453 57.5758 64.453 57.4219C64.453 57.268 64.4226 57.1156 64.3637 56.9734C64.3049 56.8313 64.2185 56.7021 64.1097 56.5932C64.0009 56.4844 63.8717 56.3981 63.7295 56.3392C63.5873 56.2803 63.4349 56.25 63.281 56.25C63.1271 56.25 62.9748 56.2803 62.8326 56.3392C62.6904 56.3981 62.5612 56.4844 62.4524 56.5932Z" fill="#3992D3"/>
</svg>
