<svg width="70" height="70" viewBox="0 0 70 70" fill="none" xmlns="http://www.w3.org/2000/svg">
<g clip-path="url(#clip0)">
<path d="M68.5074 18.794L56.2511 6.53772C54.4676 4.75394 51.6992 4.54585 49.6688 6.04293L43.048 10.9246C42.8076 11.1018 42.6565 11.3751 42.6341 11.6729C42.6117 11.9707 42.7204 12.2634 42.9315 12.4746L44.527 14.0702L37.5175 21.0797H32.4803L25.4704 14.0698L27.0662 12.4738C27.2775 12.2626 27.3859 11.9699 27.3636 11.6721C27.3412 11.3743 27.19 11.101 26.9496 10.9238L20.3291 6.04321C18.2995 4.54571 15.5312 4.7538 13.7469 6.53827L11.8061 8.47914C11.4058 8.87946 11.4058 9.5286 11.8061 9.92892C12.2064 10.3292 12.8556 10.3292 13.2559 9.92892L15.1968 7.98804C16.2584 6.92641 17.9048 6.80241 19.1123 7.69328L21.3151 9.31723L4.26971 26.3625L2.64575 24.1604C1.75557 22.9513 1.87944 21.3039 2.94025 20.2431L10.3568 12.8267C10.7571 12.4264 10.7571 11.7774 10.3568 11.3769C9.95657 10.9766 9.30743 10.9766 8.90697 11.3769L1.49047 18.7933C-0.292494 20.5762 -0.500992 23.3447 0.99527 25.3765L5.87767 31.9974C6.05486 32.2378 6.32816 32.3888 6.62594 32.4113C6.65164 32.4132 6.67721 32.4141 6.70278 32.4141C6.97348 32.4141 7.23462 32.3068 7.42766 32.1139L9.02332 30.5181L10.2137 31.7085C7.69864 33.8738 6.22713 37.0343 6.22713 40.3816C6.22713 45.8782 10.15 50.5719 15.4721 51.6115C16.0509 54.6784 18.2352 57.1842 21.1166 58.2178V61.9001C21.1166 63.5841 22.486 64.954 24.1693 64.954C25.4937 64.954 26.6235 64.1063 27.0457 62.9252H28.5134C28.9355 64.1063 30.0646 64.954 31.3885 64.954C32.7129 64.954 33.8428 64.1063 34.2649 62.9252H35.733C36.1551 64.1061 37.2847 64.9536 38.6088 64.9536C39.9329 64.9536 41.0624 64.1061 41.4844 62.9252H42.9527C43.3747 64.1061 44.5043 64.9536 45.8283 64.9536C47.5119 64.9536 48.8815 63.5839 48.8815 61.9004V53.841C50.4893 53.619 51.9345 52.8831 53.0463 51.8043C55.0956 51.6758 57.0648 51.0004 58.7653 49.8391C59.2329 49.5197 59.353 48.8819 59.0337 48.4143C58.7146 47.9469 58.0765 47.8266 57.609 48.1459C56.7083 48.761 55.7155 49.2087 54.6727 49.478C55.0018 48.7392 55.214 47.938 55.2862 47.0967C57.9333 45.9333 59.6669 43.3196 59.6669 40.3818C59.6669 38.1059 58.6217 35.9993 56.8718 34.6209L58.3298 33.1629C60.4669 34.9419 61.7205 37.5824 61.7205 40.3815C61.7205 42.2138 61.1901 43.9902 60.1869 45.5187C59.8763 45.9921 60.0081 46.6275 60.4814 46.9383C60.6549 47.0522 60.85 47.1065 61.043 47.1065C61.3768 47.1065 61.7041 46.9436 61.9009 46.6438C63.1242 44.7802 63.7707 42.6147 63.7707 40.3816C63.7707 37.0336 62.2991 33.8733 59.7838 31.7092L60.9749 30.5181L62.5706 32.1138C62.7635 32.3067 63.0246 32.414 63.2953 32.414C63.3209 32.414 63.3465 32.413 63.3722 32.4111C63.67 32.3887 63.9433 32.2376 64.1205 31.9973L69.0022 25.3766C70.4993 23.3459 70.2912 20.5776 68.5074 18.794ZM51.9793 28.2624C51.9793 28.0051 52.0795 27.7631 52.2615 27.5811L55.1499 24.6927L56.5123 26.0552L53.6239 28.9435C53.4419 29.1255 53.2001 29.2257 52.9428 29.2257C52.6855 29.2257 52.4435 29.1255 52.2615 28.9435C52.0795 28.7617 51.9793 28.5197 51.9793 28.2624ZM49.4415 18.9846L50.3524 19.8954L47.464 22.7837C47.282 22.9657 47.0402 23.0659 46.7827 23.0659C46.5254 23.0659 46.2836 22.9657 46.1015 22.7837C45.7259 22.4082 45.7259 21.7969 46.1015 21.4213L48.9898 18.533L49.4415 18.9846ZM45.9769 15.5199L47.5402 17.0832L44.6518 19.9715C43.4769 21.1465 43.4769 23.0584 44.6518 24.2334C45.221 24.8025 45.9779 25.116 46.7827 25.116C47.5877 25.116 48.3445 24.8025 48.9137 24.2334L51.802 21.345L53.7001 23.2431L50.8117 26.1314C50.2426 26.7006 49.9291 27.4575 49.9291 28.2624C49.9291 29.0672 50.2426 29.8241 50.8117 30.3933C51.3809 30.9624 52.1376 31.2759 52.9426 31.2759C53.7477 31.2759 54.5044 30.9624 55.0736 30.3933L57.9619 27.5049L59.5252 29.0682L52.9403 35.6532L39.3919 22.1049L45.9769 15.5199ZM41.6619 53.9137H42.7751V60.875H41.6619V53.9137ZM34.6251 51.8635L40.4037 46.1906C40.4007 46.2781 40.397 46.3656 40.397 46.4538C40.397 48.5819 41.2943 50.5033 42.7286 51.8635H34.6251ZM27.2232 58.1341C27.6081 57.9842 27.9797 57.8082 28.336 57.6074V60.875H27.2232V58.1341ZM34.4425 53.9137H35.5556V60.875H34.4425V53.9137ZM32.7605 50.8209C32.7866 50.5465 32.8012 50.2688 32.8012 49.9877C32.8012 45.1678 28.8798 41.2464 24.0599 41.2464C23.8711 41.2464 23.6842 41.2544 23.4983 41.2663L29.2136 35.6776C29.4274 38.6836 31.9396 41.0644 34.999 41.0644C38.1982 41.0644 40.801 38.4617 40.801 35.2624C40.801 35.1254 40.7945 34.9901 40.7851 34.8555L46.6649 39.0907C45.086 39.3453 43.6711 40.096 42.5872 41.1788L42.5884 41.1725L32.7605 50.8209ZM14.5895 36.0844L16.1586 37.6535L18.0806 43.62C17.4794 44.1849 16.9579 44.8329 16.535 45.5468C14.1593 45.0193 12.3805 42.8669 12.3805 40.3818C12.3806 38.6602 13.2113 37.072 14.5895 36.0844ZM34.999 31.5107C37.0677 31.5107 38.7507 33.1937 38.7507 35.2624C38.7507 37.3311 37.0677 39.0141 34.999 39.0141C32.9303 39.0141 31.2473 37.3311 31.2473 35.2624C31.2473 33.1937 32.9303 31.5107 34.999 31.5107ZM51.0186 39.6999C51.0186 39.6999 38.6255 30.733 38.4811 30.6243C37.5105 29.8938 36.3044 29.4604 34.999 29.4604C33.4893 29.4604 32.1128 30.0405 31.0796 30.9888L19.7374 42.0763L18.2259 37.3844L32.4805 23.1299H37.5176L51.7721 37.3843L51.0256 39.7029C51.0232 39.702 51.0209 39.701 51.0186 39.6999ZM14.8483 24.6929L17.7366 27.5812C17.9186 27.7632 18.0188 28.0051 18.0188 28.2624C18.0188 28.5197 17.9186 28.7617 17.7366 28.9435C17.5546 29.1255 17.3128 29.2257 17.0553 29.2257C16.798 29.2257 16.5562 29.1255 16.3742 28.9435L13.4859 26.0552L14.8483 24.6929ZM6.82049 29.8215L5.50032 28.0313L22.9841 10.5476L24.7739 11.8669L6.82049 29.8215ZM12.0362 27.5051L14.9244 30.3933C15.4936 30.9624 16.2503 31.2759 17.0553 31.2759C17.8603 31.2759 18.6171 30.9624 19.1863 30.3933C19.7554 29.8241 20.0689 29.0672 20.0689 28.2624C20.0689 27.4575 19.7554 26.7006 19.1863 26.1314L16.2979 23.2431L16.3217 23.2193L18.196 21.345L21.0843 24.2334C21.6535 24.8025 22.4102 25.116 23.2153 25.116C24.0203 25.116 24.777 24.8025 25.3462 24.2334C26.5211 23.0584 26.5211 21.1465 25.3462 19.9715L22.4578 17.0832L24.0211 15.5199L30.606 22.1049L17.0577 35.6532L10.473 29.0685L12.0362 27.5051ZM21.0082 18.533L23.8965 21.4213C24.2721 21.7969 24.2721 22.4082 23.8965 22.7837C23.7146 22.9657 23.4726 23.0659 23.2153 23.0659C22.9579 23.0659 22.7159 22.9657 22.534 22.7837L19.6458 19.8954L21.0082 18.533ZM8.27738 40.3816C8.27738 37.5832 9.53083 34.9425 11.6676 33.1624L13.1259 34.6207C11.3757 35.9992 10.3302 38.1058 10.3302 40.3816C10.3302 42.2217 11.017 43.9831 12.264 45.3413C13.1997 46.3604 14.3879 47.0853 15.695 47.4508C15.498 48.099 15.3745 48.7787 15.3342 49.4805C11.2387 48.4302 8.27738 44.7089 8.27738 40.3816ZM17.3688 49.9877C17.3688 46.2983 20.3705 43.2966 24.0599 43.2966C27.7493 43.2966 30.751 46.2982 30.751 49.9877C30.751 53.6772 27.7493 56.6788 24.0599 56.6788C20.3705 56.6788 17.3688 53.6772 17.3688 49.9877ZM24.1693 62.9037C23.6167 62.9037 23.1668 62.4535 23.1668 61.9001V58.6837C23.4605 58.7137 23.7583 58.729 24.0598 58.729C24.4371 58.729 24.808 58.7023 25.1729 58.6557V61.9001C25.1729 62.4535 24.7227 62.9037 24.1693 62.9037ZM31.3885 62.9037C30.8359 62.9037 30.3862 62.4535 30.3862 61.9001V56.0248L32.3923 54.0554V61.8999C32.3923 62.4535 31.9421 62.9037 31.3885 62.9037ZM38.6088 62.9033C38.0558 62.9033 37.6058 62.4534 37.6058 61.9004V53.9137H39.6116V61.9004C39.6116 62.4534 39.1618 62.9033 38.6088 62.9033ZM45.8283 62.9033C45.2753 62.9033 44.8255 62.4534 44.8255 61.9004V53.9137H46.8313V61.9004C46.8313 62.4534 46.3813 62.9033 45.8283 62.9033ZM47.8564 51.8629C44.8739 51.8629 42.4472 49.4364 42.4472 46.4538C42.4472 43.4712 44.8737 41.0446 47.8564 41.0446C50.8389 41.0446 53.2656 43.4711 53.2656 46.4538C53.2656 49.4364 50.8389 51.8629 47.8564 51.8629ZM57.6167 40.3818C57.6167 42.2343 56.6601 43.9084 55.1425 44.8599C54.7996 43.2913 53.9622 41.906 52.8017 40.8761L53.8391 37.6538L55.4083 36.0847C56.7861 37.0719 57.6167 38.66 57.6167 40.3818ZM63.1775 29.8211L45.224 11.8676L47.0141 10.5477L64.4974 28.031L63.1775 29.8211ZM67.352 24.1595L65.7279 26.3621L48.6829 9.3171L50.8854 7.693C52.0935 6.80227 53.7403 6.92614 54.8014 7.98736L67.0576 20.2436C68.1188 21.3048 68.2426 22.9518 67.352 24.1595Z" fill="#2A8AEA"/>
<path d="M27.1555 49.9878C27.1555 48.2816 25.7675 46.8937 24.0614 46.8937C22.3553 46.8937 20.9673 48.2816 20.9673 49.9878C20.9673 51.6939 22.3553 53.0818 24.0614 53.0818C25.7675 53.0818 27.1555 51.6939 27.1555 49.9878ZM23.0175 49.9878C23.0175 49.4122 23.4858 48.9439 24.0614 48.9439C24.637 48.9439 25.1052 49.4122 25.1052 49.9878C25.1052 50.5633 24.637 51.0316 24.0614 51.0316C23.4858 51.0316 23.0175 50.5633 23.0175 49.9878Z" fill="#2A8AEA"/>
<path d="M47.8578 43.3597C46.1516 43.3597 44.7637 44.7477 44.7637 46.4538C44.7637 48.1599 46.1516 49.5479 47.8578 49.5479C49.5639 49.5479 50.9518 48.1599 50.9518 46.4538C50.9518 44.7477 49.5639 43.3597 47.8578 43.3597ZM47.8578 47.4977C47.2822 47.4977 46.8139 47.0294 46.8139 46.4538C46.8139 45.8782 47.2822 45.41 47.8578 45.41C48.4333 45.41 48.9016 45.8782 48.9016 46.4538C48.9016 47.0294 48.4333 47.4977 47.8578 47.4977Z" fill="#2A8AEA"/>
</g>
<defs>
<clipPath id="clip0">
<rect width="70" height="70" fill="white"/>
</clipPath>
</defs>
</svg>
