<svg width="70" height="70" viewBox="0 0 70 70" fill="none" xmlns="http://www.w3.org/2000/svg">
<path d="M65.0997 31.6317L63.287 24.3808C63.7826 24.2755 64.1544 23.8358 64.1544 23.3091V22.14C64.1544 19.6016 62.0893 17.5366 59.5511 17.5366H51.2944V15.1252C51.2944 13.8761 50.2783 12.86 49.0293 12.86H6.94148C5.69242 12.86 4.67633 13.8761 4.67633 15.1252V35C4.67633 35.6053 5.16701 36.0961 5.7724 36.0961C6.37766 36.0961 6.86848 35.6054 6.86848 35V15.1252C6.86848 15.0849 6.90115 15.0522 6.94148 15.0522H49.0291C49.0695 15.0522 49.1021 15.0849 49.1021 15.1252V35.0003C49.1021 35.6055 49.5928 36.0964 50.1982 36.0964C50.8035 36.0964 51.2943 35.6057 51.2943 35.0003V33.7578H64.2236C64.2247 33.7578 64.2255 33.7581 64.2265 33.7581C64.2276 33.7581 64.2285 33.7579 64.2295 33.7579C65.8205 33.759 67.1714 34.8033 67.6354 36.2422H64.2273C63.6221 36.2422 63.1312 36.7329 63.1312 37.3383V39.6765C63.1312 41.5702 64.6718 43.1107 66.5655 43.1107H67.8077V47.9332H64.9418C64.0004 45.2148 61.4162 43.2567 58.3818 43.2567C55.3473 43.2567 52.763 45.2148 51.8217 47.9332H51.294V39.6763C51.294 39.0711 50.8033 38.5803 50.1979 38.5803C49.5927 38.5803 49.1018 39.0709 49.1018 39.6763V47.9329H26.3617C25.4203 45.2145 22.8361 43.2565 19.8017 43.2565C16.7672 43.2565 14.1829 45.2145 13.2416 47.9329H6.94148C6.90115 47.9329 6.86848 47.9002 6.86848 47.8599V45.4486H11.6179C12.2232 45.4486 12.714 44.9579 12.714 44.3525C12.714 43.7471 12.2233 43.2565 11.6179 43.2565H1.09607C0.49082 43.2565 0 43.7471 0 44.3525C0 44.9579 0.490684 45.4486 1.09607 45.4486H4.67646V47.8599C4.67646 49.109 5.69256 50.1251 6.94162 50.1251H12.8621C12.8618 50.1494 12.8602 50.1736 12.8602 50.1981C12.8602 54.0257 15.9742 57.1396 19.8017 57.1396C23.6291 57.1396 26.7431 54.0257 26.7431 50.1981C26.7431 50.1735 26.7415 50.1494 26.7412 50.1251H51.4422C51.4419 50.1494 51.4403 50.1736 51.4403 50.1981C51.4403 54.0257 54.5543 57.1396 58.3818 57.1396C62.2092 57.1396 65.3233 54.0257 65.3233 50.1981C65.3233 50.1735 65.3216 50.1494 65.3213 50.1251H68.9038C69.509 50.1251 69.9999 49.6344 69.9999 49.029V37.338C70 34.4516 67.8703 32.0534 65.0997 31.6317ZM51.2944 19.7287H59.5511C60.8807 19.7287 61.9624 20.8104 61.9624 22.14V22.213H51.2944V19.7287ZM51.2944 31.5658V24.405H61.0336L62.8238 31.5658H51.2944ZM19.8017 54.9478C17.1828 54.9478 15.0522 52.8173 15.0522 50.1983C15.0522 47.5794 17.1828 45.4489 19.8017 45.4489C22.4205 45.4489 24.5511 47.5794 24.5511 50.1983C24.5511 52.8173 22.4205 54.9478 19.8017 54.9478ZM58.382 54.9478C55.7632 54.9478 53.6326 52.8173 53.6326 50.1983C53.6326 47.5794 55.7632 45.4489 58.382 45.4489C61.0009 45.4489 63.1315 47.5794 63.1315 50.1983C63.1315 52.8173 61.0009 54.9478 58.382 54.9478ZM67.808 40.9186H66.5658C65.8808 40.9186 65.3235 40.3613 65.3235 39.6763V38.4341H67.8078V40.9186H67.808Z" fill="#2A8AEA"/>
<path d="M19.8013 47.9332C18.5522 47.9332 17.5361 48.9493 17.5361 50.1984C17.5361 51.4474 18.5522 52.4635 19.8013 52.4635C21.0504 52.4635 22.0664 51.4474 22.0664 50.1984C22.0664 48.9493 21.0504 47.9332 19.8013 47.9332Z" fill="#2A8AEA"/>
<path d="M58.3819 47.9332C57.1328 47.9332 56.1167 48.9493 56.1167 50.1984C56.1167 51.4474 57.1328 52.4635 58.3819 52.4635C59.6309 52.4635 60.647 51.4474 60.647 50.1984C60.647 48.9493 59.6309 47.9332 58.3819 47.9332Z" fill="#2A8AEA"/>
<path d="M45.5221 43.2568H29.1547C28.5494 43.2568 28.0586 43.7475 28.0586 44.3529C28.0586 44.9583 28.5493 45.449 29.1547 45.449H45.5221C46.1273 45.449 46.6182 44.9583 46.6182 44.3529C46.6182 43.7475 46.1275 43.2568 45.5221 43.2568Z" fill="#2A8AEA"/>
<path d="M17.4637 38.5804H3.43445C2.8292 38.5804 2.33838 39.0711 2.33838 39.6765C2.33838 40.2818 2.82906 40.7725 3.43445 40.7725H17.4637C18.069 40.7725 18.5598 40.2818 18.5598 39.6765C18.5598 39.0711 18.069 38.5804 17.4637 38.5804Z" fill="#2A8AEA"/>
<path d="M38.1135 23.7029C37.6855 23.275 36.9914 23.275 36.5635 23.703L26.8165 33.4498L21.746 28.3794C21.318 27.9513 20.624 27.9513 20.196 28.3794C19.768 28.8074 19.768 29.5013 20.196 29.9293L26.0416 35.7749C26.2556 35.989 26.5361 36.0959 26.8165 36.0959C27.0969 36.0959 27.3776 35.989 27.5914 35.7749L38.1133 25.253C38.5414 24.8248 38.5414 24.131 38.1135 23.7029Z" fill="#2A8AEA"/>
</svg>
