<svg width="75" height="75" viewBox="0 0 75 75" fill="none" xmlns="http://www.w3.org/2000/svg">
<path d="M21.958 60.4994H16.1247C15.3197 60.4994 14.6664 59.8461 14.6664 59.0411C14.6664 58.2361 15.3197 57.5828 16.1247 57.5828H21.958C22.763 57.5828 23.4163 58.2361 23.4163 59.0411C23.4163 59.8461 22.763 60.4994 21.958 60.4994Z" fill="#3992D3"/>
<path d="M36.5415 60.4997H33.6249C32.8199 60.4997 32.1665 59.8464 32.1665 59.0414C32.1665 58.2364 32.8199 57.5831 33.6249 57.5831H35.0832V12.375C35.0832 11.5729 34.4298 10.9167 33.6249 10.9167H4.45833C3.65333 10.9167 3 10.2633 3 9.45833C3 8.65333 3.65333 8 4.45833 8H33.6249C36.0369 8 37.9998 9.96291 37.9998 12.375V59.0414C37.9998 59.8464 37.3465 60.4997 36.5415 60.4997Z" fill="#3992D3"/>
<path d="M68.6248 60.4998H62.7915C61.9865 60.4998 61.3332 59.8465 61.3332 59.0415C61.3332 58.2365 61.9865 57.5832 62.7915 57.5832H68.6248C69.4298 57.5832 70.0831 56.9269 70.0831 56.1249V28.4167H46.7499V57.5832H51.1249C51.9299 57.5832 52.5832 58.2365 52.5832 59.0415C52.5832 59.8465 51.9299 60.4998 51.1249 60.4998H45.2916C44.4866 60.4998 43.8333 59.8465 43.8333 59.0415V26.9583C43.8333 26.1533 44.4866 25.5 45.2916 25.5H71.5415C72.3465 25.5 72.9998 26.1533 72.9998 26.9583V56.1249C72.9998 58.5369 71.0369 60.4998 68.6248 60.4998Z" fill="#3992D3"/>
<path d="M24.8747 45.9165C24.0697 45.9165 23.4164 45.2632 23.4164 44.4582V18.2083C23.4164 17.4033 24.0697 16.75 24.8747 16.75C25.6797 16.75 26.333 17.4033 26.333 18.2083V44.4582C26.333 45.2632 25.6797 45.9165 24.8747 45.9165Z" fill="#3992D3"/>
<path d="M10.2921 45.9165C9.48707 45.9165 8.83374 45.2632 8.83374 44.4582V18.2083C8.83374 17.4033 9.48707 16.75 10.2921 16.75C11.0971 16.75 11.7504 17.4033 11.7504 18.2083V44.4582C11.7504 45.2632 11.0971 45.9165 10.2921 45.9165Z" fill="#3992D3"/>
<path d="M56.958 66.333C52.9389 66.333 49.6664 63.0634 49.6664 59.0414C49.6664 55.0193 52.9389 51.7498 56.958 51.7498C60.9771 51.7498 64.2496 55.0193 64.2496 59.0414C64.2496 63.0634 60.9771 66.333 56.958 66.333ZM56.958 54.6664C54.5459 54.6664 52.583 56.6293 52.583 59.0414C52.583 61.4534 54.5459 63.4163 56.958 63.4163C59.3701 63.4163 61.333 61.4534 61.333 59.0414C61.333 56.6293 59.3701 54.6664 56.958 54.6664Z" fill="#3992D3"/>
<path d="M27.7916 66.333C23.7725 66.333 20.5 63.0634 20.5 59.0414C20.5 55.0193 23.7725 51.7498 27.7916 51.7498C31.8108 51.7498 35.0833 55.0193 35.0833 59.0414C35.0833 63.0634 31.8108 66.333 27.7916 66.333ZM27.7916 54.6664C25.3796 54.6664 23.4167 56.6293 23.4167 59.0414C23.4167 61.4534 25.3796 63.4163 27.7916 63.4163C30.2037 63.4163 32.1666 61.4534 32.1666 59.0414C32.1666 56.6293 30.2037 54.6664 27.7916 54.6664Z" fill="#3992D3"/>
<path d="M10.2916 66.333C6.27248 66.333 3 63.0634 3 59.0414C3 55.0193 6.27248 51.7498 10.2916 51.7498C14.3108 51.7498 17.5833 55.0193 17.5833 59.0414C17.5833 63.0634 14.3108 66.333 10.2916 66.333ZM10.2916 54.6664C7.87956 54.6664 5.91665 56.6293 5.91665 59.0414C5.91665 61.4534 7.87956 63.4163 10.2916 63.4163C12.7037 63.4163 14.6666 61.4534 14.6666 59.0414C14.6666 56.6293 12.7037 54.6664 10.2916 54.6664Z" fill="#3992D3"/>
<path d="M65.7081 28.4166C64.9031 28.4166 64.2498 27.7632 64.2498 26.9582C64.2498 18.115 57.0544 10.9167 48.2082 10.9167H46.7499V26.9582C46.7499 27.7632 46.0966 28.4166 45.2916 28.4166C44.4866 28.4166 43.8333 27.7632 43.8333 26.9582V9.45833C43.8333 8.65333 44.4866 8 45.2916 8H48.2082C58.6615 8 67.1665 16.505 67.1665 26.9582C67.1665 27.7632 66.5131 28.4166 65.7081 28.4166Z" fill="#3992D3"/>
<path d="M71.5415 45.9164H54.0416C53.2366 45.9164 52.5833 45.263 52.5833 44.458V35.7081C52.5833 34.9031 53.2366 34.2498 54.0416 34.2498H71.5415C72.3465 34.2498 72.9998 34.9031 72.9998 35.7081C72.9998 36.5131 72.3465 37.1664 71.5415 37.1664H55.4999V42.9997H71.5415C72.3465 42.9997 72.9998 43.653 72.9998 44.458C72.9998 45.263 72.3465 45.9164 71.5415 45.9164Z" fill="#3992D3"/>
<path d="M45.2915 60.4994H36.5416C35.7366 60.4994 35.0833 59.8461 35.0833 59.0411C35.0833 58.2361 35.7366 57.5828 36.5416 57.5828H45.2915C46.0965 57.5828 46.7499 58.2361 46.7499 59.0411C46.7499 59.8461 46.0965 60.4994 45.2915 60.4994Z" fill="#3992D3"/>
</svg>
