<svg width="70" height="70" viewBox="0 0 70 70" fill="none" xmlns="http://www.w3.org/2000/svg">
<g clip-path="url(#clip0)">
<path d="M16.935 2.26678C7.44094 2.26678 0 6.23529 0 11.2924V58.7077C0 63.7786 7.44094 67.7333 16.935 67.7333C26.4291 67.7333 33.8701 63.7648 33.8701 58.7077V11.2924C33.8701 6.23529 26.4291 2.26678 16.935 2.26678ZM31.6102 58.7215C31.6102 61.9873 25.7126 65.501 16.935 65.501C8.15748 65.501 2.25984 61.9873 2.25984 58.7215V56.503C5.15354 59.2038 10.5827 60.9813 16.935 60.9813C23.2874 60.9813 28.7165 59.2038 31.6102 56.503V58.7215ZM31.6102 51.942C31.6102 55.2077 25.7126 58.7215 16.935 58.7215C8.15748 58.7215 2.25984 55.2077 2.25984 51.942V49.7235C5.15354 52.4243 10.5827 54.2018 16.935 54.2018C23.2874 54.2018 28.7165 52.4243 31.6102 49.7235V51.942ZM31.6102 45.1624C31.6102 48.4282 25.7126 51.942 16.935 51.942C8.15748 51.942 2.25984 48.442 2.25984 45.1624V42.9439C5.15354 45.6447 10.5827 47.4223 16.935 47.4223C23.2874 47.4223 28.7165 45.6447 31.6102 42.9439V45.1624ZM31.6102 38.3967C31.6102 41.6624 25.7126 45.1762 16.935 45.1762C8.15748 45.1762 2.25984 41.6624 2.25984 38.3967V36.1782C5.15354 38.8652 10.5827 40.6565 16.935 40.6565C23.2874 40.6565 28.7165 38.879 31.6102 36.1782V38.3967ZM31.6102 31.6172C31.6102 34.8829 25.7126 38.3967 16.935 38.3967C8.15748 38.3967 2.25984 34.8967 2.25984 31.6172V29.3987C5.15354 32.0995 10.5827 33.877 16.935 33.877C23.2874 33.877 28.7165 32.0995 31.6102 29.3987V31.6172ZM31.6102 24.8514C31.6102 28.1172 25.7126 31.631 16.935 31.631C8.15748 31.631 2.25984 28.1172 2.25984 24.8514V22.6329C5.15354 25.3337 10.5827 27.1113 16.935 27.1113C23.2874 27.1113 28.7165 25.3337 31.6102 22.6329V24.8514ZM31.6102 18.0719C31.6102 21.3377 25.7126 24.8514 16.935 24.8514C8.15748 24.8514 2.25984 21.3377 2.25984 18.0719V15.8534C5.15354 18.5542 10.5827 20.3317 16.935 20.3317C23.2874 20.3317 28.7165 18.5542 31.6102 15.8534V18.0719ZM16.935 18.0719C8.15748 18.0719 2.25984 14.5719 2.25984 11.2924C2.25984 8.02663 8.15748 4.51285 16.935 4.51285C25.7126 4.51285 31.6102 8.01285 31.6102 11.2924C31.6102 14.5719 25.7126 18.0719 16.935 18.0719Z" fill="#2A8AEA"/>
<path d="M53.0654 29.3572C43.5713 29.3572 36.1304 33.3257 36.1304 38.3828V58.7076C36.1304 63.7785 43.5713 67.7332 53.0654 67.7332C62.5595 67.7332 70.0004 63.7785 70.0004 58.7214V38.3966C70.0004 33.3257 62.5595 29.3572 53.0654 29.3572ZM67.7406 58.7214C67.7406 61.9872 61.843 65.5009 53.0654 65.5009C44.2879 65.5009 38.3902 62.0009 38.3902 58.7214V56.5029C41.2839 59.2037 46.713 60.9812 53.0654 60.9812C59.4178 60.9812 64.8469 59.2037 67.7406 56.5029V58.7214ZM67.7406 51.9419C67.7406 55.2076 61.843 58.7214 53.0654 58.7214C44.2879 58.7214 38.3902 55.2214 38.3902 51.9419V49.7234C41.2839 52.4242 46.713 54.2017 53.0654 54.2017C59.4178 54.2017 64.8469 52.4242 67.7406 49.7234V51.9419ZM67.7406 45.1624C67.7406 48.4281 61.843 51.9419 53.0654 51.9419C44.2879 51.9419 38.3902 48.4419 38.3902 45.1624V42.9438C41.2839 45.6446 46.713 47.4222 53.0654 47.4222C59.4178 47.4222 64.8469 45.6446 67.7406 42.9438V45.1624ZM53.0654 45.1624C44.2879 45.1624 38.3902 41.6624 38.3902 38.3828C38.3902 35.1171 44.2879 31.6033 53.0654 31.6033C61.843 31.6033 67.7406 35.1033 67.7406 38.3828C67.7406 41.6624 61.843 45.1624 53.0654 45.1624Z" fill="#2A8AEA"/>
</g>
<defs>
<clipPath id="clip0">
<rect width="70" height="70" fill="white"/>
</clipPath>
</defs>
</svg>
