<svg width="70" height="70" viewBox="0 0 70 70" fill="none" xmlns="http://www.w3.org/2000/svg">
<g clip-path="url(#clip0)">
<path d="M69.4239 8.83475C69.3823 8.79564 61.1599 0.954141 61.1599 0.954141C60.8456 0.652539 60.5205 0.34082 59.9135 0.34082H26.8111C25.8442 0.34082 25.0576 1.12736 25.0576 2.09424V7.47863L13.3907 9.47855C12.4555 9.64262 11.8266 10.5376 11.9886 11.4718L12.5808 14.9242C8.78859 16.2003 4.89525 17.5158 1.13671 18.8659C0.248586 19.1906 -0.217488 20.1782 0.0994259 21.0716L7.57589 41.8551C7.72628 42.2733 8.12044 42.5337 8.54085 42.5337C8.65597 42.5337 8.77327 42.5142 8.88784 42.4729C9.42077 42.2812 9.69736 41.6939 9.50568 41.1609L2.13982 20.6848C5.68083 19.417 9.3479 18.1762 12.9317 16.9699L16.4551 37.5112L20.5093 61.1679C20.6558 62.003 21.3898 62.5972 22.2183 62.5972C22.3121 62.5972 22.4073 62.5895 22.5027 62.5738L33.4834 60.6894L42.0639 59.2186L29.1589 63.8571L18.9822 67.5161L11.0788 45.5332C10.8872 45.0003 10.3 44.7237 9.76695 44.9152C9.23402 45.1068 8.95743 45.6941 9.14898 46.227L17.1645 68.5223C17.4209 69.2234 18.0851 69.6593 18.7871 69.6593C18.9811 69.6593 19.1781 69.6259 19.3701 69.5558L29.8524 65.787L53.6544 57.2319L58.2015 56.4525H68.2463C69.2132 56.4525 69.9999 55.6642 69.9999 54.6951V9.99016C70 9.37642 69.667 9.06334 69.4239 8.83475ZM66.7072 9.07756H61.5761L61.449 9.0781C61.2033 9.07975 60.6281 9.08398 60.4822 8.93906C60.4486 8.90557 60.4092 8.79373 60.4092 8.58605L60.3973 3.06057L66.7072 9.07756ZM67.9492 54.4015H27.1084V34.4177C27.1084 33.8514 26.6493 33.3923 26.083 33.3923C25.5167 33.3923 25.0576 33.8514 25.0576 34.4177V54.6949C25.0576 55.6638 25.8442 56.4522 26.8111 56.4522H46.0628L33.1367 58.6679L22.4751 60.4976L18.4763 37.1645L14.0646 11.4436L25.0574 9.55922V29.6599C25.0574 30.2262 25.5165 30.6853 26.0828 30.6853C26.6491 30.6853 27.1082 30.2262 27.1082 29.6599V2.39146H58.345L58.3584 8.58838C58.3584 9.33951 58.5869 9.94709 59.0374 10.3944C59.7296 11.0817 60.7081 11.1296 61.3155 11.1296C61.3677 11.1296 61.4172 11.1292 61.4636 11.1289L67.9492 11.1285V54.4015Z" fill="#2A8AEA"/>
<path d="M32.0513 16.2625C32.0513 16.8288 32.5104 17.2879 33.0767 17.2879H62.3941C62.9604 17.2879 63.4195 16.8288 63.4195 16.2625C63.4195 15.6962 62.9604 15.2371 62.3941 15.2371H33.0767C32.5104 15.2371 32.0513 15.6962 32.0513 16.2625Z" fill="#2A8AEA"/>
<path d="M62.3941 22.5218H33.0767C32.5104 22.5218 32.0513 22.9809 32.0513 23.5472C32.0513 24.1135 32.5104 24.5726 33.0767 24.5726H62.3941C62.9604 24.5726 63.4195 24.1135 63.4195 23.5472C63.4195 22.9809 62.9604 22.5218 62.3941 22.5218Z" fill="#2A8AEA"/>
<path d="M62.3941 29.8065H33.0767C32.5104 29.8065 32.0513 30.2656 32.0513 30.8318C32.0513 31.3981 32.5104 31.8572 33.0767 31.8572H62.3941C62.9604 31.8572 63.4195 31.3981 63.4195 30.8318C63.4195 30.2656 62.9604 29.8065 62.3941 29.8065Z" fill="#2A8AEA"/>
<path d="M62.3941 37.0911H33.0767C32.5104 37.0911 32.0513 37.5502 32.0513 38.1165C32.0513 38.6827 32.5104 39.1418 33.0767 39.1418H62.3941C62.9604 39.1418 63.4195 38.6827 63.4195 38.1165C63.4195 37.5502 62.9604 37.0911 62.3941 37.0911Z" fill="#2A8AEA"/>
<path d="M62.3941 44.3759H33.0767C32.5104 44.3759 32.0513 44.835 32.0513 45.4013C32.0513 45.9676 32.5104 46.4267 33.0767 46.4267H62.3941C62.9604 46.4267 63.4195 45.9676 63.4195 45.4013C63.4195 44.835 62.9604 44.3759 62.3941 44.3759Z" fill="#2A8AEA"/>
</g>
<defs>
<clipPath id="clip0">
<rect width="70" height="70" fill="white"/>
</clipPath>
</defs>
</svg>
