<svg width="40" height="40" viewBox="0 0 40 40" fill="none" xmlns="http://www.w3.org/2000/svg">
<g clip-path="url(#clip0)">
<path d="M31.25 39.9999H20C19.31 39.9999 18.75 39.4399 18.75 38.7499V29.5832C18.75 28.8933 19.31 28.3333 20 28.3333H31.25C31.94 28.3333 32.5 28.8933 32.5 29.5832V38.7499C32.5 39.4399 31.94 39.9999 31.25 39.9999ZM21.25 37.4999H30V30.8332H21.25V37.4999Z" fill="#2A8AEA"/>
<path d="M25.4173 30.8333H14.584C13.894 30.8333 13.334 30.2733 13.334 29.5833V19.5833C13.334 18.8933 13.894 18.3333 14.584 18.3333H25.4173C26.1073 18.3333 26.6673 18.8933 26.6673 19.5833V29.5833C26.6673 30.2733 26.1073 30.8333 25.4173 30.8333ZM15.834 28.3333H24.1673V20.8333H15.834V28.3333Z" fill="#2A8AEA"/>
<path d="M20 39.9999H8.75C8.06 39.9999 7.5 39.4399 7.5 38.7499V29.5832C7.5 28.8933 8.06 28.3333 8.75 28.3333H20C20.69 28.3333 21.25 28.8933 21.25 29.5832V38.7499C21.25 39.4399 20.69 39.9999 20 39.9999ZM10 37.4999H18.75V30.8332H10V37.4999Z" fill="#2A8AEA"/>
<path d="M20 23.3333C19.31 23.3333 18.75 22.7733 18.75 22.0833V19.5833C18.75 18.8933 19.31 18.3333 20 18.3333C20.69 18.3333 21.25 18.8933 21.25 19.5833V22.0833C21.25 22.7733 20.69 23.3333 20 23.3333Z" fill="#2A8AEA"/>
<path d="M14.584 33.3333C13.894 33.3333 13.334 32.7733 13.334 32.0833V29.5833C13.334 28.8933 13.894 28.3333 14.584 28.3333C15.274 28.3333 15.834 28.8933 15.834 29.5833V32.0833C15.834 32.7733 15.274 33.3333 14.584 33.3333Z" fill="#2A8AEA"/>
<path d="M25.416 33.3333C24.726 33.3333 24.166 32.7733 24.166 32.0833V29.5833C24.166 28.8933 24.726 28.3333 25.416 28.3333C26.106 28.3333 26.666 28.8933 26.666 29.5833V32.0833C26.666 32.7733 26.106 33.3333 25.416 33.3333Z" fill="#2A8AEA"/>
<path d="M37.0833 40H2.91667C1.30833 40 0 38.6917 0 37.0834V14.1667C0 13.755 0.203333 13.37 0.541667 13.1367L19.2917 0.220029C19.7183 -0.0749707 20.2833 -0.0749707 20.71 0.220029L39.46 13.1367C39.7967 13.37 40 13.755 40 14.1667V37.0834C40 38.6917 38.6917 40 37.0833 40ZM2.5 14.8234V37.0834C2.5 37.3134 2.68667 37.5 2.91667 37.5H37.0833C37.3133 37.5 37.5 37.3134 37.5 37.0834V14.8234L20 2.76836L2.5 14.8234Z" fill="#2A8AEA"/>
</g>
<defs>
<clipPath id="clip0">
<rect width="40" height="40" fill="white"/>
</clipPath>
</defs>
</svg>
