<svg width="40" height="40" viewBox="0 0 40 40" fill="none" xmlns="http://www.w3.org/2000/svg">
<g clip-path="url(#clip0)">
<path d="M31.6133 24.7786C30.7944 23.9259 29.8067 23.4701 28.7598 23.4701C27.7214 23.4701 26.7252 23.9175 25.8726 24.7702L23.2048 27.4295C22.9853 27.3113 22.7658 27.2015 22.5547 27.0918C22.2508 26.9398 21.9638 26.7963 21.719 26.6444C19.22 25.0572 16.9491 22.9888 14.771 20.3126C13.7157 18.9788 13.0065 17.8559 12.4916 16.7162C13.1838 16.0831 13.8254 15.4246 14.4502 14.7914C14.6865 14.555 14.9229 14.3102 15.1593 14.0738C16.9322 12.3009 16.9322 10.0046 15.1593 8.23175L12.8546 5.92701C12.5929 5.6653 12.3227 5.39515 12.0694 5.125C11.5629 4.60158 11.031 4.06127 10.4823 3.55473C9.66339 2.74428 8.68408 2.31372 7.65413 2.31372C6.62417 2.31372 5.62798 2.74428 4.78375 3.55473C4.77531 3.56318 4.77531 3.56318 4.76687 3.57162L1.8965 6.46732C0.815886 7.54793 0.1996 8.86493 0.0645239 10.393C-0.138091 12.8581 0.587945 15.1544 1.14513 16.6571C2.51278 20.3464 4.55581 23.7655 7.60347 27.4295C11.3012 31.8448 15.7503 35.3315 20.8325 37.7882C22.7742 38.7084 25.366 39.7974 28.2617 39.9831C28.439 39.9916 28.6247 40 28.7936 40C30.7437 40 32.3815 39.2993 33.6648 37.9063C33.6732 37.8895 33.6901 37.881 33.6985 37.8641C34.1375 37.3323 34.6441 36.8511 35.1759 36.3361C35.539 35.99 35.9104 35.6269 36.2734 35.247C37.1092 34.3775 37.5482 33.3644 37.5482 32.326C37.5482 31.2792 37.1008 30.2745 36.2481 29.4303L31.6133 24.7786ZM34.6356 33.6683C34.6272 33.6683 34.6272 33.6768 34.6356 33.6683C34.3064 34.0229 33.9687 34.3437 33.6057 34.6983C33.0569 35.2217 32.4997 35.7705 31.9763 36.3867C31.1236 37.2985 30.119 37.7291 28.802 37.7291C28.6754 37.7291 28.5403 37.7291 28.4137 37.7206C25.9063 37.5602 23.5763 36.5809 21.8287 35.7451C17.0504 33.4319 12.8546 30.1479 9.36791 25.9859C6.48909 22.5161 4.56426 19.308 3.28947 15.8636C2.50434 13.7614 2.2173 12.1236 2.34394 10.5787C2.42836 9.59096 2.80826 8.77206 3.50897 8.07135L6.38779 5.19254C6.80146 4.80419 7.24046 4.59313 7.67101 4.59313C8.20288 4.59313 8.63343 4.91394 8.90358 5.18409C8.91203 5.19254 8.92047 5.20098 8.92891 5.20942C9.44389 5.69063 9.93354 6.18872 10.4485 6.72059C10.7102 6.99074 10.9804 7.26089 11.2505 7.53949L13.5553 9.84423C14.4502 10.7391 14.4502 11.5665 13.5553 12.4613C13.3105 12.7062 13.0741 12.951 12.8292 13.1874C12.1201 13.9134 11.4447 14.5888 10.7102 15.2473C10.6933 15.2642 10.6765 15.2726 10.668 15.2895C9.94198 16.0155 10.0771 16.7247 10.229 17.2059C10.2375 17.2312 10.2459 17.2565 10.2543 17.2819C10.8538 18.7339 11.698 20.1016 12.9812 21.7309L12.9896 21.7394C15.3197 24.6098 17.7764 26.847 20.4864 28.5607C20.8325 28.7802 21.1871 28.9575 21.5248 29.1264C21.8287 29.2783 22.1157 29.4219 22.3606 29.5738C22.3943 29.5907 22.4281 29.616 22.4619 29.6329C22.7489 29.7764 23.0191 29.844 23.2977 29.844C23.9984 29.844 24.4374 29.405 24.5809 29.2615L27.4681 26.3742C27.7552 26.0872 28.2111 25.741 28.7429 25.741C29.2663 25.741 29.6969 26.0703 29.9586 26.3573C29.9671 26.3658 29.9671 26.3658 29.9755 26.3742L34.6272 31.0259C35.4967 31.887 35.4967 32.7734 34.6356 33.6683Z" fill="#2A8AEA"/>
<path d="M21.6163 9.51505C23.8282 9.88651 25.8375 10.9334 27.4415 12.5374C29.0456 14.1414 30.084 16.1507 30.4639 18.3626C30.5567 18.9197 31.0379 19.3081 31.5867 19.3081C31.6542 19.3081 31.7133 19.2997 31.7809 19.2912C32.4056 19.1899 32.8193 18.5989 32.718 17.9742C32.2621 15.298 30.9957 12.8582 29.0624 10.9249C27.1292 8.99163 24.6893 7.72529 22.0131 7.26941C21.3884 7.1681 20.8059 7.58177 20.6961 8.19806C20.5864 8.81435 20.9916 9.41375 21.6163 9.51505Z" fill="#2A8AEA"/>
<path d="M39.9532 17.6451C39.2019 13.2382 37.1251 9.22814 33.9339 6.03696C30.7427 2.84578 26.7326 0.768982 22.3258 0.0176196C21.7095 -0.09213 21.127 0.329984 21.0172 0.94627C20.9159 1.571 21.3296 2.15351 21.9543 2.26326C25.8884 2.9302 29.4764 4.79595 32.3298 7.64099C35.1833 10.4945 37.0406 14.0824 37.7076 18.0165C37.8004 18.5737 38.2817 18.9621 38.8304 18.9621C38.8979 18.9621 38.957 18.9536 39.0246 18.9452C39.6409 18.8523 40.063 18.2614 39.9532 17.6451Z" fill="#2A8AEA"/>
</g>
<defs>
<clipPath id="clip0">
<rect width="40" height="40" fill="white"/>
</clipPath>
</defs>
</svg>
