<svg width="40" height="40" viewBox="0 0 40 40" fill="none" xmlns="http://www.w3.org/2000/svg">
<path d="M11.25 19.4531H8.75C8.10281 19.4531 7.57812 19.9778 7.57812 20.625C7.57812 21.2722 8.10281 21.7969 8.75 21.7969H11.25C11.8972 21.7969 12.4219 21.2722 12.4219 20.625C12.4219 19.9778 11.8972 19.4531 11.25 19.4531Z" fill="#2A8AEA"/>
<path d="M11.25 24.4531H8.75C8.10281 24.4531 7.57812 24.9778 7.57812 25.625C7.57812 26.2722 8.10281 26.7969 8.75 26.7969H11.25C11.8972 26.7969 12.4219 26.2722 12.4219 25.625C12.4219 24.9778 11.8972 24.4531 11.25 24.4531Z" fill="#2A8AEA"/>
<path d="M11.25 29.4531H8.75C8.10281 29.4531 7.57812 29.9778 7.57812 30.625C7.57812 31.2722 8.10281 31.7969 8.75 31.7969H11.25C11.8972 31.7969 12.4219 31.2722 12.4219 30.625C12.4219 29.9778 11.8972 29.4531 11.25 29.4531Z" fill="#2A8AEA"/>
<path d="M21.25 19.4531H18.75C18.1028 19.4531 17.5781 19.9778 17.5781 20.625C17.5781 21.2722 18.1028 21.7969 18.75 21.7969H21.25C21.8972 21.7969 22.4219 21.2722 22.4219 20.625C22.4219 19.9778 21.8972 19.4531 21.25 19.4531Z" fill="#2A8AEA"/>
<path d="M21.25 24.4531H18.75C18.1028 24.4531 17.5781 24.9778 17.5781 25.625C17.5781 26.2722 18.1028 26.7969 18.75 26.7969H21.25C21.8972 26.7969 22.4219 26.2722 22.4219 25.625C22.4219 24.9778 21.8972 24.4531 21.25 24.4531Z" fill="#2A8AEA"/>
<path d="M21.25 29.4531H18.75C18.1028 29.4531 17.5781 29.9778 17.5781 30.625C17.5781 31.2722 18.1028 31.7969 18.75 31.7969H21.25C21.8972 31.7969 22.4219 31.2722 22.4219 30.625C22.4219 29.9778 21.8972 29.4531 21.25 29.4531Z" fill="#2A8AEA"/>
<path d="M31.25 19.4531H28.75C28.1028 19.4531 27.5781 19.9778 27.5781 20.625C27.5781 21.2722 28.1028 21.7969 28.75 21.7969H31.25C31.8972 21.7969 32.4219 21.2722 32.4219 20.625C32.4219 19.9778 31.8972 19.4531 31.25 19.4531Z" fill="#2A8AEA"/>
<path d="M31.25 24.4531H28.75C28.1028 24.4531 27.5781 24.9778 27.5781 25.625C27.5781 26.2722 28.1028 26.7969 28.75 26.7969H31.25C31.8972 26.7969 32.4219 26.2722 32.4219 25.625C32.4219 24.9778 31.8972 24.4531 31.25 24.4531Z" fill="#2A8AEA"/>
<path d="M31.25 29.4531H28.75C28.1028 29.4531 27.5781 29.9778 27.5781 30.625C27.5781 31.2722 28.1028 31.7969 28.75 31.7969H31.25C31.8972 31.7969 32.4219 31.2722 32.4219 30.625C32.4219 29.9778 31.8972 29.4531 31.25 29.4531Z" fill="#2A8AEA"/>
<path d="M36.4844 5.07812H33.6719V3.125C33.6719 2.47781 33.1472 1.95312 32.5 1.95312C31.8528 1.95312 31.3281 2.47781 31.3281 3.125V5.07812H21.1719V3.125C21.1719 2.47781 20.6472 1.95312 20 1.95312C19.3528 1.95312 18.8281 2.47781 18.8281 3.125V5.07812H8.67188V3.125C8.67188 2.47781 8.14719 1.95312 7.5 1.95312C6.85281 1.95312 6.32812 2.47781 6.32812 3.125V5.07812H3.51562C1.57711 5.07812 0 6.65523 0 8.59375V34.5312C0 36.4698 1.57711 38.0469 3.51562 38.0469H36.4844C38.4229 38.0469 40 36.4698 40 34.5312C40 33.7748 40 9.25195 40 8.59375C40 6.65523 38.4229 5.07812 36.4844 5.07812ZM2.34375 8.59375C2.34375 7.94758 2.86945 7.42188 3.51562 7.42188H6.32812V9.375C6.32812 10.0222 6.85281 10.5469 7.5 10.5469C8.14719 10.5469 8.67188 10.0222 8.67188 9.375V7.42188H18.8281V9.375C18.8281 10.0222 19.3528 10.5469 20 10.5469C20.6472 10.5469 21.1719 10.0222 21.1719 9.375V7.42188H31.3281V9.375C31.3281 10.0222 31.8528 10.5469 32.5 10.5469C33.1472 10.5469 33.6719 10.0222 33.6719 9.375V7.42188H36.4844C37.1305 7.42188 37.6562 7.94758 37.6562 8.59375V13.2031H2.34375V8.59375ZM36.4844 35.7031H3.51562C2.86945 35.7031 2.34375 35.1774 2.34375 34.5312V15.5469H37.6562V34.5312C37.6562 35.1774 37.1305 35.7031 36.4844 35.7031Z" fill="#2A8AEA"/>
</svg>
