<svg width="75" height="75" viewBox="0 0 75 75" fill="none" xmlns="http://www.w3.org/2000/svg">
<path d="M37.1686 75.0001C36.7592 75.0001 36.3592 74.8376 36.0624 74.5438C35.6936 74.175 35.5311 73.6438 35.6342 73.1344L37.8436 62.0875C37.9061 61.7813 38.0499 61.5032 38.2717 61.2875L62.578 36.9813C64.403 35.1563 67.3811 35.1563 69.2061 36.9813L73.6249 41.4C75.453 43.2282 75.453 46.2001 73.6249 48.0282L49.3186 72.3344C49.103 72.5532 48.8249 72.7001 48.5186 72.7626L37.4717 74.9719C37.3717 74.9907 37.2686 75.0001 37.1686 75.0001ZM40.8186 63.1594L39.1624 71.4438L47.4467 69.7876L71.4186 45.8157C72.028 45.2063 72.028 44.2157 71.4186 43.6063L66.9999 39.1876C66.3905 38.5782 65.3999 38.5782 64.7905 39.1876L40.8186 63.1594ZM48.2155 71.2282H48.2467H48.2155Z" fill="#3992D3"/>
<path d="M29.6875 65.625H7.8125C3.50312 65.625 0 62.1219 0 57.8125V17.1875C0 12.8781 3.50312 9.375 7.8125 9.375H14.0625C14.925 9.375 15.625 10.075 15.625 10.9375C15.625 11.8 14.925 12.5 14.0625 12.5H7.8125C5.22812 12.5 3.125 14.6031 3.125 17.1875V57.8125C3.125 60.3969 5.22812 62.5 7.8125 62.5H29.6875C30.55 62.5 31.25 63.2 31.25 64.0625C31.25 64.925 30.55 65.625 29.6875 65.625Z" fill="#3992D3"/>
<path d="M51.5625 37.5C50.7 37.5 50 36.8 50 35.9375V17.1875C50 14.6031 47.8969 12.5 45.3125 12.5H39.0625C38.2 12.5 37.5 11.8 37.5 10.9375C37.5 10.075 38.2 9.375 39.0625 9.375H45.3125C49.6219 9.375 53.125 12.8781 53.125 17.1875V35.9375C53.125 36.8 52.425 37.5 51.5625 37.5Z" fill="#3992D3"/>
<path d="M35.9375 18.75H17.1875C14.6031 18.75 12.5 16.6469 12.5 14.0625V7.8125C12.5 6.95 13.2 6.25 14.0625 6.25H18.9062C19.6312 2.6875 22.7906 0 26.5625 0C30.3344 0 33.4937 2.6875 34.2188 6.25H39.0625C39.925 6.25 40.625 6.95 40.625 7.8125V14.0625C40.625 16.6469 38.5219 18.75 35.9375 18.75ZM15.625 9.375V14.0625C15.625 14.9219 16.3281 15.625 17.1875 15.625H35.9375C36.7969 15.625 37.5 14.9219 37.5 14.0625V9.375H32.8125C31.95 9.375 31.25 8.675 31.25 7.8125C31.25 5.22812 29.1469 3.125 26.5625 3.125C23.9781 3.125 21.875 5.22812 21.875 7.8125C21.875 8.675 21.175 9.375 20.3125 9.375H15.625Z" fill="#3992D3"/>
<path d="M42.1875 28.125H10.9375C10.075 28.125 9.375 27.425 9.375 26.5625C9.375 25.7 10.075 25 10.9375 25H42.1875C43.05 25 43.75 25.7 43.75 26.5625C43.75 27.425 43.05 28.125 42.1875 28.125Z" fill="#3992D3"/>
<path d="M42.1875 37.5H10.9375C10.075 37.5 9.375 36.8 9.375 35.9375C9.375 35.075 10.075 34.375 10.9375 34.375H42.1875C43.05 34.375 43.75 35.075 43.75 35.9375C43.75 36.8 43.05 37.5 42.1875 37.5Z" fill="#3992D3"/>
<path d="M42.1875 46.875H10.9375C10.075 46.875 9.375 46.175 9.375 45.3125C9.375 44.45 10.075 43.75 10.9375 43.75H42.1875C43.05 43.75 43.75 44.45 43.75 45.3125C43.75 46.175 43.05 46.875 42.1875 46.875Z" fill="#3992D3"/>
</svg>
