<svg width="75" height="75" viewBox="0 0 75 75" fill="none" xmlns="http://www.w3.org/2000/svg">
<path d="M69.2243 46.7043V21.7796C69.2243 21.2445 68.9122 20.7587 68.4258 20.5363L53.6327 13.7697C53.2759 13.6068 52.8519 13.6051 52.4954 13.7696L38.267 20.2762L29.1507 16.1075V7.08378C29.1507 4.8319 27.3187 3 25.0666 3H7.08405C4.83202 3 3 4.83202 3 7.08378V25.0657C3 27.3176 4.83202 29.1495 7.08405 29.1495H7.30964V62.4323C7.30964 62.8977 7.54631 63.3311 7.938 63.5827C8.3297 63.8342 8.82216 63.8692 9.24543 63.6757L23.4739 57.1693L37.6984 63.6757C38.0558 63.8389 38.4783 63.8397 38.8358 63.6757L50.5703 58.3074C51.3477 62.0441 53.5111 64.8861 55.7751 67.8574C56.0631 68.2353 56.3537 68.6168 56.6446 69.0044C56.6632 69.0291 56.6827 69.0532 56.7029 69.0767L58.8973 71.6199C59.8762 72.752 60.9203 72.9952 61.6241 72.9999H61.6329C61.6329 72.9999 61.6389 72.9999 61.6418 72.9999C62.3455 72.9952 63.3898 72.7522 64.3685 71.6198L66.5661 69.0775C66.5867 69.0536 66.6065 69.029 66.6257 69.0037C66.918 68.6136 67.2104 68.2296 67.4999 67.8494C70.3563 64.0968 73.0542 60.552 72.9992 55.1469C72.9967 51.7984 71.5379 48.7848 69.2243 46.7043ZM66.4899 44.8813C65.0161 44.1816 63.3699 43.7887 61.6329 43.7887C58.902 43.7887 56.3932 44.7574 54.4311 46.3687V17.1417L66.4899 22.6575V44.8813ZM5.73437 25.0658V7.08378C5.73437 6.33976 6.33976 5.73437 7.08405 5.73437H25.0668C25.811 5.73437 26.4165 6.33976 26.4165 7.08378V25.0657C26.4165 25.8097 25.8111 26.4151 25.0668 26.4151H20.668C20.1975 26.4151 19.76 26.6573 19.5098 27.0558L16.0754 32.5304L12.641 27.0558C12.3909 26.6573 11.9534 26.4151 11.4828 26.4151H7.08405C6.33976 26.4152 5.73437 25.8098 5.73437 25.0658ZM10.044 29.1496H10.7265L14.917 35.8297C15.1671 36.2282 15.6046 36.4703 16.0752 36.4703C16.5458 36.4703 16.9833 36.2282 17.2333 35.8297L21.4241 29.1496H22.1066V54.7879L10.0439 60.3041V29.1496H10.044ZM39.6341 60.3035V48.2485C39.6341 47.4935 39.022 46.8813 38.267 46.8813C37.5118 46.8813 36.8998 47.4935 36.8998 48.2485V60.3036L24.841 54.7879V29.1496H25.0666C27.3185 29.1496 29.1507 27.3177 29.1507 25.0658V19.1142L36.8998 22.6578V35.9675C36.8998 36.7224 37.5118 37.3347 38.267 37.3347C39.022 37.3347 39.6341 36.7224 39.6341 35.9675V22.6578L51.6967 17.1416V49.6439C50.7882 51.2754 50.268 53.1514 50.2666 55.147C50.2657 55.2453 50.2674 55.3417 50.2682 55.4388L39.6341 60.3035ZM65.3239 66.1933C65.04 66.5664 64.7533 66.943 64.4664 67.3253L62.3 69.8317C62.0665 70.102 61.8239 70.2594 61.6329 70.2653C61.442 70.2594 61.1995 70.102 60.9668 69.8326L58.8033 67.3254C58.5178 66.9456 58.2325 66.5711 57.9499 66.2004C55.2689 62.6818 52.9534 59.6427 53.0009 55.169C53.0009 55.1643 53.0009 55.1594 53.0009 55.1546C53.0009 50.3952 56.8732 46.5231 61.6328 46.5231C66.3923 46.5231 70.2646 50.3952 70.2646 55.1546V55.169C70.3123 59.6396 68.0007 62.6766 65.3239 66.1933Z" fill="#3992D3"/>
<path d="M61.6328 49.9352C58.7547 49.9352 56.4133 52.2767 56.4133 55.1547C56.4133 58.0326 58.7547 60.374 61.6328 60.374C64.5108 60.374 66.8523 58.0326 66.8523 55.1547C66.8523 52.2767 64.5108 49.9352 61.6328 49.9352ZM61.6328 57.6397C60.2625 57.6397 59.1476 56.5251 59.1476 55.1547C59.1476 53.7844 60.2625 52.6696 61.6328 52.6696C63.003 52.6696 64.1179 53.7844 64.1179 55.1547C64.1179 56.5251 63.0031 57.6397 61.6328 57.6397Z" fill="#3992D3"/>
<path d="M10.1614 23.3558H21.9897C22.7448 23.3558 23.357 22.7437 23.357 21.9887V10.1609C23.357 9.40593 22.7448 8.7937 21.9897 8.7937H10.1614C9.40628 8.7937 8.79419 9.40593 8.79419 10.1609V21.9887C8.79419 22.7437 9.40628 23.3558 10.1614 23.3558ZM11.5286 11.5281H14.7084V13.4667C14.7084 14.2217 15.3205 14.8339 16.0756 14.8339C16.8306 14.8339 17.4428 14.2217 17.4428 13.4667V11.5281H20.6225V20.6215H11.5286V11.5281Z" fill="#3992D3"/>
<path d="M38.2671 40.7385C37.5119 40.7385 36.8999 41.3508 36.8999 42.1057V42.1136C36.8999 42.8685 37.5119 43.4769 38.2671 43.4769C39.0222 43.4769 39.6342 42.8608 39.6342 42.1059C39.6342 41.3509 39.0222 40.7385 38.2671 40.7385Z" fill="#3992D3"/>
</svg>
