<svg width="75" height="75" viewBox="0 0 75 75" fill="none" xmlns="http://www.w3.org/2000/svg">
<path d="M68.6459 36.1459C69.4042 36.1459 70.0001 36.7417 70.0001 37.5C70.0001 38.2584 69.4042 38.8542 68.6459 38.8542H67.2917V36.1459H68.6459Z" fill="#3992D3"/>
<path d="M38.8542 36.1459H67.2917V38.8542H38.8542V36.1459Z" fill="#3992D3"/>
<path d="M63.2292 70H37.5C38.2583 70 38.8542 69.4042 38.8542 68.6458V67.2917H63.2292C65.4771 67.2917 67.2917 65.4771 67.2917 63.2292V38.8542H68.6458C69.4042 38.8542 70 38.2583 70 37.5V63.2292C70 66.9667 66.9667 70 63.2292 70Z" fill="#3992D3"/>
<path d="M70 11.7708V37.5C70 36.7417 69.4042 36.1458 68.6458 36.1458H67.2917V11.7708C67.2917 9.52292 65.4771 7.70833 63.2292 7.70833H38.8542V6.35417C38.8542 5.59583 38.2583 5 37.5 5H63.2292C66.9667 5 70 8.03333 70 11.7708Z" fill="#3992D3"/>
<path d="M59.1667 21.25C59.9251 21.25 60.5209 21.8458 60.5209 22.6042C60.5209 23.3625 59.9251 23.9583 59.1667 23.9583H48.3334C47.5751 23.9583 46.9792 23.3625 46.9792 22.6042C46.9792 21.8458 47.5751 21.25 48.3334 21.25H59.1667Z" fill="#3992D3"/>
<path d="M59.1667 48.3334C59.9251 48.3334 60.5209 48.9292 60.5209 49.6875C60.5209 50.4459 59.9251 51.0417 59.1667 51.0417H48.3334C47.5751 51.0417 46.9792 50.4459 46.9792 49.6875C46.9792 48.9292 47.5751 48.3334 48.3334 48.3334H59.1667Z" fill="#3992D3"/>
<path d="M59.1667 56.4584C59.9251 56.4584 60.5209 57.0542 60.5209 57.8125C60.5209 58.5709 59.9251 59.1667 59.1667 59.1667H48.3334C47.5751 59.1667 46.9792 58.5709 46.9792 57.8125C46.9792 57.0542 47.5751 56.4584 48.3334 56.4584H59.1667Z" fill="#3992D3"/>
<path d="M38.8541 67.2916V68.6458C38.8541 69.4041 38.2583 70 37.4999 70C36.7416 70 36.1458 69.4041 36.1458 68.6458V67.2916H38.8541Z" fill="#3992D3"/>
<path d="M36.1458 38.8541H38.8541V67.2916H36.1458V38.8541Z" fill="#3992D3"/>
<path d="M36.1458 36.1459H38.8541V38.8542H36.1458V36.1459Z" fill="#3992D3"/>
<path d="M36.1458 7.70837H38.8541V36.1459H36.1458V7.70837Z" fill="#3992D3"/>
<path d="M38.8541 6.35417V7.70833H36.1458V6.35417C36.1458 5.59583 36.7416 5 37.4999 5C38.2583 5 38.8541 5.59583 38.8541 6.35417Z" fill="#3992D3"/>
<path d="M7.70825 36.1459H36.1458V38.8542H7.70825V36.1459Z" fill="#3992D3"/>
<path d="M26.6667 21.25C27.4251 21.25 28.0209 21.8458 28.0209 22.6042C28.0209 23.3625 27.4251 23.9583 26.6667 23.9583H22.6042V21.25H26.6667Z" fill="#3992D3"/>
<path d="M26.2604 56.8646C26.8021 57.3792 26.8021 58.2458 26.2604 58.7604C26.0167 59.0312 25.6646 59.1667 25.3125 59.1667C24.9604 59.1667 24.6083 59.0312 24.3646 58.7604L21.25 55.6458L23.1458 53.75L26.2604 56.8646Z" fill="#3992D3"/>
<path d="M24.3646 48.7396C24.8792 48.198 25.7458 48.198 26.2604 48.7396C26.8021 49.2542 26.8021 50.1209 26.2604 50.6355L23.1458 53.75L21.25 51.8542L24.3646 48.7396Z" fill="#3992D3"/>
<path d="M19.3462 53.7474L21.2421 51.8514L23.1381 53.7474L21.2421 55.6433L19.3462 53.7474Z" fill="#3992D3"/>
<path d="M22.6041 23.9584V28.0209C22.6041 28.7792 22.0083 29.375 21.2499 29.375C20.4916 29.375 19.8958 28.7792 19.8958 28.0209V23.9584H22.6041Z" fill="#3992D3"/>
<path d="M19.8958 21.25H22.6041V23.9583H19.8958V21.25Z" fill="#3992D3"/>
<path d="M22.6041 17.1875V21.25H19.8958V17.1875C19.8958 16.4292 20.4916 15.8334 21.2499 15.8334C22.0083 15.8334 22.6041 16.4292 22.6041 17.1875Z" fill="#3992D3"/>
<path d="M21.2499 51.8542L19.3541 53.75L16.2395 50.6355C15.6978 50.1209 15.6978 49.2542 16.2395 48.7396C16.7541 48.198 17.6208 48.198 18.1353 48.7396L21.2499 51.8542Z" fill="#3992D3"/>
<path d="M19.8959 21.25V23.9583H15.8334C15.0751 23.9583 14.4792 23.3625 14.4792 22.6042C14.4792 21.8458 15.0751 21.25 15.8334 21.25H19.8959Z" fill="#3992D3"/>
<path d="M18.1353 58.7604C17.8916 59.0312 17.5395 59.1667 17.1874 59.1667C16.8353 59.1667 16.4833 59.0312 16.2395 58.7604C15.6978 58.2458 15.6978 57.3792 16.2395 56.8646L19.3541 53.75L21.2499 55.6458L18.1353 58.7604Z" fill="#3992D3"/>
<path d="M7.70833 36.1459V38.8542H6.35417C5.59583 38.8542 5 38.2584 5 37.5C5 36.7417 5.59583 36.1459 6.35417 36.1459H7.70833Z" fill="#3992D3"/>
<path d="M5 11.7708C5 8.03333 8.03333 5 11.7708 5H37.5C36.7417 5 36.1458 5.59583 36.1458 6.35417V7.70833H11.7708C9.52292 7.70833 7.70833 9.52292 7.70833 11.7708V36.1458H6.35417C5.59583 36.1458 5 36.7417 5 37.5V11.7708Z" fill="#3992D3"/>
<path d="M7.70833 63.2292C7.70833 65.4771 9.52292 67.2917 11.7708 67.2917H36.1458V68.6458C36.1458 69.4042 36.7417 70 37.5 70H11.7708C8.03333 70 5 66.9667 5 63.2292V37.5C5 38.2583 5.59583 38.8542 6.35417 38.8542H7.70833V63.2292Z" fill="#3992D3"/>
</svg>
