<svg width="75" height="75" viewBox="0 0 75 75" fill="none" xmlns="http://www.w3.org/2000/svg">
<path d="M63.6625 12.277H57.7588V6.37353C57.759 4.51799 56.2407 3 54.3861 3H11.3734C9.51799 3 8 4.51799 8 6.37353V60.3493C8 62.2047 9.51799 63.7228 11.3735 63.7228H17.2772V69.6265C17.2772 71.4819 18.7945 73 20.6507 73H49.3245C51.1791 73 53.8037 71.9593 55.1539 70.6884L64.5778 61.8178C65.9297 60.5469 67.0345 57.988 67.0345 56.1326L67.0361 15.6508C67.036 13.7952 65.5179 12.277 63.6625 12.277ZM17.2769 15.6507V61.1927H11.3734C10.9163 61.1927 10.5301 60.8065 10.5301 60.3494V6.37353C10.5301 5.91648 10.9163 5.53025 11.3734 5.53025H54.3863C54.8425 5.53025 55.2295 5.91648 55.2295 6.37353V12.2772H20.6504C18.7942 12.2772 17.2769 13.7952 17.2769 15.6507ZM62.8437 59.9757L53.4198 68.8455C53.2267 69.027 52.9753 69.2048 52.6978 69.3742V61.6144C52.6978 61.035 52.9314 60.5136 53.3168 60.1258C53.7057 59.7404 54.2268 59.506 54.8063 59.506H63.2443C63.1134 59.6838 62.9794 59.8474 62.8437 59.9757ZM64.5041 56.1324C64.5041 56.3828 64.4584 56.6729 64.3894 56.9756H54.8061C52.2466 56.9807 50.1727 59.0546 50.1675 61.6142V70.3675C49.8665 70.4283 49.5764 70.4695 49.3243 70.4695H20.6504V70.4696C20.1924 70.4696 19.8071 70.0834 19.8071 69.6263V15.6506C19.8071 15.1935 20.1926 14.8073 20.6504 14.8073H63.6623C64.1194 14.8073 64.5056 15.1935 64.5056 15.6506L64.5041 56.1324Z" fill="#3992D3"/>
<path d="M54.3865 24.0842H29.9288C29.2296 24.0842 28.6637 24.6501 28.6637 25.3493C28.6637 26.0485 29.2297 26.6143 29.9288 26.6143H54.3865C55.0848 26.6143 55.6515 26.0485 55.6515 25.3493C55.6515 24.6501 55.0848 24.0842 54.3865 24.0842Z" fill="#3992D3"/>
<path d="M54.3865 40.9517H29.9288C29.2296 40.9517 28.6637 41.5175 28.6637 42.2167C28.6637 42.9159 29.2297 43.4818 29.9288 43.4818H54.3865C55.0848 43.4818 55.6515 42.9159 55.6515 42.2167C55.6515 41.5174 55.0848 40.9517 54.3865 40.9517Z" fill="#3992D3"/>
<path d="M43.4226 49.3855H29.9288C29.2296 49.3855 28.6637 49.9514 28.6637 50.6506C28.6637 51.3497 29.2296 51.9156 29.9288 51.9156H43.4226C44.121 51.9156 44.6868 51.3497 44.6868 50.6506C44.6868 49.9514 44.121 49.3855 43.4226 49.3855Z" fill="#3992D3"/>
<path d="M54.3865 32.5179H29.9288C29.2296 32.5179 28.6637 33.0838 28.6637 33.783C28.6637 34.4822 29.2297 35.0481 29.9288 35.0481H54.3865C55.0848 35.0481 55.6515 34.4822 55.6515 33.783C55.6515 33.0838 55.0848 32.5179 54.3865 32.5179Z" fill="#3992D3"/>
</svg>
