<svg width="75" height="75" viewBox="0 0 75 75" fill="none" xmlns="http://www.w3.org/2000/svg">
<path d="M38 55.4844C37.2453 55.4844 36.6328 56.0969 36.6328 56.8515C36.6328 57.6062 37.2453 58.2187 38 58.2187C38.7547 58.2187 39.3672 57.6062 39.3672 56.8515C39.3672 56.0969 38.7547 55.4844 38 55.4844Z" fill="#3992D3"/>
<path d="M67.1329 11.1014C63.7686 9.74635 59.3944 9 54.8164 9C50.2383 9 45.8641 9.74635 42.4998 11.1014C40.5117 11.9021 38.9936 12.8808 38 13.9789C37.0063 12.8808 35.4883 11.9023 33.5002 11.1015C30.1358 9.74635 25.7617 9 21.1835 9C16.6055 9 12.2314 9.74635 8.86701 11.1014C5.0836 12.6252 3 14.7922 3 17.2032V50.0157C3 52.4266 5.0836 54.5935 8.86701 56.1174C11.9961 57.3777 15.999 58.1105 20.2265 58.2069V58.2187C20.2265 62.8953 27.8675 66.4219 38 66.4219C48.1325 66.4219 55.7735 62.8953 55.7735 58.2187V58.2069C60.001 58.1105 64.0039 57.3777 67.1329 56.1174C70.9165 54.5935 73 52.4266 73 50.0157V17.2032C73 14.7922 70.9165 12.6252 67.1329 11.1014ZM70.2656 41.8125C70.2656 42.9797 68.6738 44.3458 66.1114 45.3778C63.3381 46.4949 59.6147 47.1706 55.7735 47.2677V41.8125C55.7735 41.8085 55.7731 41.8045 55.7731 41.8007C60.0009 41.7043 64.0037 40.9715 67.1332 39.7112C68.3612 39.2165 69.409 38.6537 70.2658 38.0371L70.2656 41.8125ZM36.6328 25.4062C36.6328 26.5735 35.041 27.9395 32.4786 28.9716C29.4753 30.1813 25.3585 30.875 21.1835 30.875C17.0087 30.875 12.8919 30.1813 9.88857 28.9716C7.32619 27.9395 5.73438 26.5735 5.73438 25.4062V21.6309C6.59119 22.2475 7.63886 22.8103 8.86701 23.3049C12.2314 24.6599 16.6055 25.4062 21.1835 25.4062C25.7617 25.4062 30.1358 24.6599 33.5002 23.3049C34.7283 22.8103 35.776 22.2475 36.6328 21.6309V25.4062ZM8.86701 31.508C12.2314 32.863 16.6055 33.6094 21.1835 33.6094C25.7617 33.6094 30.1358 32.863 33.5002 31.508C34.7283 31.0133 35.776 30.4507 36.6328 29.8341V33.6336C33.0959 33.7534 29.7039 34.3339 26.9604 35.3C24.2086 36.2693 22.2285 37.5616 21.1517 39.0777C16.9879 39.0742 12.8842 38.3813 9.88857 37.1747C7.32619 36.1426 5.73438 34.7765 5.73438 33.6094V29.8341C6.59119 30.4507 7.63886 31.0133 8.86701 31.508ZM5.73438 38.0371C6.59119 38.6537 7.63886 39.2165 8.86701 39.7112C11.9962 40.9714 15.9992 41.7042 20.227 41.8007C20.227 41.8047 20.2267 41.8086 20.2267 41.8125V47.2677C16.3853 47.1706 12.6621 46.4949 9.88871 45.3778C7.32619 44.3458 5.73438 42.9797 5.73438 41.8125V38.0371ZM23.1056 41.1408C24.1188 38.7829 29.9669 36.3437 38 36.3437C46.0331 36.3437 51.8812 38.7828 52.8933 41.138C52.9914 41.3679 53.039 41.5885 53.039 41.8125C53.039 43.0145 51.5571 44.3497 49.0749 45.384C46.1388 46.6075 42.2056 47.2812 38 47.2812C33.7944 47.2812 29.8612 46.6075 26.9251 45.384C24.4429 44.3497 22.961 43.0145 22.961 41.8125C22.961 41.5885 23.0087 41.3679 23.1056 41.1408ZM70.2656 33.6094C70.2656 34.7765 68.6738 36.1426 66.1114 37.1747C63.1159 38.3813 59.0125 39.0742 54.8486 39.0777C53.7727 37.5624 51.7923 36.2695 49.0396 35.3C46.2961 34.3337 42.9041 33.7534 39.3672 33.6336V29.8341C40.224 30.4507 41.2717 31.0133 42.4998 31.508C45.8641 32.863 50.2383 33.6094 54.8164 33.6094C59.3944 33.6094 63.7686 32.863 67.1329 31.508C68.3611 31.0133 69.4088 30.4507 70.2656 29.8341V33.6094ZM70.2656 25.4062C70.2656 26.5735 68.6738 27.9395 66.1114 28.9716C63.1081 30.1813 58.9912 30.875 54.8164 30.875C50.6415 30.875 46.5247 30.1813 43.5214 28.9716C40.959 27.9395 39.3672 26.5735 39.3672 25.4062V21.6309C40.224 22.2475 41.2717 22.8103 42.4998 23.3049C45.8641 24.6599 50.2383 25.4062 54.8164 25.4062C59.3944 25.4062 63.7686 24.6599 67.1329 23.3049C68.3611 22.8103 69.4088 22.2475 70.2656 21.6309V25.4062ZM43.5214 13.6378C46.5247 12.4281 50.6415 11.7344 54.8164 11.7344C58.9912 11.7344 63.1081 12.4281 66.1114 13.6378C68.6738 14.6699 70.2656 16.0359 70.2656 17.2032C70.2656 18.3703 68.6738 19.7363 66.1114 20.7685C63.1081 21.9782 58.9912 22.6719 54.8164 22.6719C50.6415 22.6719 46.5247 21.9782 43.5214 20.7685C40.959 19.7363 39.3672 18.3703 39.3672 17.2032C39.3672 16.0359 40.959 14.6699 43.5214 13.6378ZM9.88857 13.6378C12.8919 12.4281 17.0087 11.7344 21.1835 11.7344C25.3585 11.7344 29.4753 12.4281 32.4786 13.6378C35.041 14.6699 36.6328 16.0359 36.6328 17.2032C36.6328 18.3703 35.041 19.7363 32.4786 20.7685C29.4753 21.9782 25.3585 22.6719 21.1835 22.6719C17.0087 22.6719 12.8919 21.9782 9.88857 20.7685C7.32619 19.7363 5.73438 18.3703 5.73438 17.2032C5.73438 16.0359 7.32619 14.6699 9.88857 13.6378ZM9.88857 53.581C7.32619 52.5488 5.73438 51.1828 5.73438 50.0157V46.2403C6.59119 46.8569 7.63886 47.4196 8.86701 47.9143C11.9961 49.1745 15.999 49.9074 20.2265 50.0039V55.471C16.3852 55.3738 12.6619 54.6981 9.88857 53.581ZM49.0749 61.7902C46.1388 63.0137 42.2056 63.6875 38 63.6875C33.7944 63.6875 29.8612 63.0137 26.9251 61.7902C24.4429 60.756 22.961 59.4207 22.961 58.2187V54.5231C23.2706 54.7472 23.6128 54.9699 23.9923 55.1895C26.1154 56.418 29.0042 57.3268 32.3464 57.8174C32.4138 57.8272 32.4805 57.832 32.5466 57.832C33.2139 57.832 33.7978 57.3429 33.8976 56.6632C34.0073 55.9162 33.4905 55.2215 32.7436 55.112C26.3896 54.1791 22.961 51.7902 22.961 50.0157V46.3079C26.0554 48.5721 31.5178 50.0157 38 50.0157C44.4822 50.0157 49.9446 48.5721 53.039 46.3079V50.0157C53.039 51.7902 49.6104 54.1791 43.2564 55.112C42.5094 55.2215 41.9926 55.9162 42.1023 56.6632C42.2022 57.343 42.7861 57.832 43.4534 57.832C43.5194 57.832 43.5863 57.8272 43.6535 57.8174C46.9957 57.3268 49.8844 56.4182 52.0077 55.1895C52.3871 54.9699 52.7294 54.7472 53.039 54.5231V58.2187C53.039 59.4207 51.5571 60.756 49.0749 61.7902ZM66.1114 53.581C63.3381 54.698 59.6147 55.3738 55.7735 55.4709V50.0038C60.001 49.9072 64.0039 49.1744 67.1329 47.9141C68.3611 47.4195 69.4088 46.8568 70.2656 46.2401V50.0157C70.2656 51.1828 68.6738 52.5488 66.1114 53.581Z" fill="#3992D3"/>
</svg>
