<svg width="75" height="75" viewBox="0 0 75 75" fill="none" xmlns="http://www.w3.org/2000/svg">
<path d="M58.2709 45.9969C56.8972 43.1328 51.9826 39.1573 47.2343 35.316C44.5859 33.1752 42.0834 31.151 40.4881 29.5557C40.0884 29.1532 39.4906 29.0248 38.9627 29.2144C37.9798 29.5703 37.3731 29.8444 36.8948 30.0573C36.1657 30.3839 35.9207 30.4948 34.9377 30.5939C34.5031 30.6377 34.1123 30.871 33.8702 31.2327C31.8081 34.3155 29.6731 34.053 28.2468 33.5748C27.7918 33.4232 27.7102 33.2277 27.6665 33.041C27.3602 31.7607 28.8973 28.7798 30.8893 26.7877C35.629 22.0452 38.0731 20.858 43.2356 23.1652C49.0922 25.7843 54.9606 27.8348 55.0189 27.8552C55.7861 28.1205 56.6114 27.718 56.8768 26.9568C57.1393 26.1955 56.7397 25.3643 55.9784 25.0989C55.9201 25.0785 50.1684 23.0689 44.4284 20.4993C37.7406 17.5097 34.0713 19.4784 28.8301 24.7227C26.8351 26.7177 24.1254 30.7543 24.8254 33.7148C25.1258 34.9748 26.0126 35.9082 27.3308 36.3427C30.6354 37.4335 33.6512 36.3893 35.8971 33.4085C36.8246 33.2657 37.3292 33.0557 38.0874 32.7144C38.3615 32.5919 38.6824 32.449 39.1083 32.2769C40.7767 33.8432 43.0283 35.666 45.3996 37.5823C49.6871 41.0502 54.5492 44.9819 55.6429 47.2569C56.1826 48.3798 55.6021 49.1119 55.2083 49.4473C54.6308 49.9432 53.8404 50.1007 53.4117 49.8002C52.9392 49.4764 52.3238 49.456 51.8367 49.7477C51.3467 50.0393 51.0726 50.5905 51.1338 51.1564C51.2329 52.0839 50.3842 52.6148 50.0167 52.7985C49.0833 53.271 48.1092 53.1894 47.7446 52.851C47.3362 52.4719 46.7499 52.361 46.2308 52.5535C45.7117 52.7489 45.3499 53.2273 45.2974 53.7814C45.2099 54.738 44.5012 55.6568 43.5765 56.0155C43.1303 56.1846 42.4828 56.2868 41.9024 55.7559C41.5408 55.4293 41.039 55.3038 40.5696 55.4175C40.0942 55.5341 39.7121 55.8784 39.5458 56.3363C39.4904 56.4821 39.3649 56.8321 37.9999 56.8321C37.0287 56.8321 35.2815 56.1759 34.4271 55.61C33.4033 54.9363 26.9837 50.1471 21.4392 45.5038C20.6604 44.8475 19.3129 43.4416 18.1229 42.1991C17.0671 41.0966 16.1017 40.0963 15.6058 39.6763C14.9846 39.1513 14.0658 39.23 13.5496 39.8484C13.0304 40.4638 13.1062 41.3855 13.7217 41.9046C14.1738 42.2868 15.0488 43.2113 16.0142 44.2175C17.3151 45.5766 18.6596 46.9825 19.5638 47.7409C24.9947 52.288 31.5222 57.1968 32.8229 58.0513C33.8963 58.7571 36.2092 59.7488 38.0001 59.7488C39.4379 59.7488 40.5434 59.4191 41.3104 58.7746C42.3371 59.1743 43.5038 59.1771 44.6267 58.7396C45.9538 58.2263 47.0446 57.1909 47.6629 55.9368C48.8121 56.1818 50.1276 56.0096 51.3233 55.4089C52.4929 54.8198 53.3387 53.9185 53.7587 52.8655C54.9195 52.9268 56.1153 52.5155 57.104 51.6668C58.7784 50.2348 59.2392 48.0065 58.2709 45.9969Z" fill="#3992D3"/>
<path d="M32.1666 21.8324H19.0416C18.2366 21.8324 17.5833 22.4858 17.5833 23.2908C17.5833 24.0958 18.2366 24.7492 19.0416 24.7492H32.1666C32.9716 24.7492 33.625 24.0958 33.625 23.2908C33.625 22.4858 32.9716 21.8324 32.1666 21.8324Z" fill="#3992D3"/>
<path d="M62.544 42.8936C62.0919 42.2258 61.1877 42.042 60.5199 42.497L56.2557 45.3611C55.5879 45.8103 55.4099 46.7174 55.8591 47.3853C56.142 47.8024 56.6029 48.0299 57.0725 48.0299C57.3496 48.0299 57.6325 47.9511 57.8834 47.782L62.1475 44.9179C62.8152 44.4686 62.9931 43.5616 62.544 42.8936Z" fill="#3992D3"/>
<path d="M53.49 49.8528C52.4458 49.0303 47.7762 44.2499 44.8887 41.2399C44.3316 40.6565 43.4071 40.6362 42.8266 41.1962C42.2432 41.7533 42.2257 42.6778 42.7828 43.2583C43.5325 44.0399 50.1444 50.932 51.6816 52.1454C51.9469 52.3554 52.2678 52.4576 52.5828 52.4576C53.0116 52.4576 53.4403 52.2651 53.7319 51.9004C54.2308 51.2703 54.123 50.3515 53.49 49.8528Z" fill="#3992D3"/>
<path d="M47.6631 52.7782C45.916 51.3811 41.5265 46.7173 40.5348 45.6382C39.9864 45.0432 39.0676 45.0082 38.4726 45.5507C37.8805 46.096 37.8398 47.0207 38.3851 47.6128C38.4376 47.6682 43.676 53.3237 45.8401 55.0562C46.1085 55.2691 46.4323 55.3741 46.7501 55.3741C47.176 55.3741 47.6017 55.1844 47.8905 54.8287C48.3924 54.1986 48.2903 53.2798 47.6631 52.7782Z" fill="#3992D3"/>
<path d="M41.8587 55.7153C39.7791 53.9625 35.5237 49.4328 34.6925 48.5432C34.1412 47.9541 33.2166 47.922 32.6303 48.4732C32.0412 49.0245 32.012 49.9461 32.5603 50.5353C33.7562 51.8157 37.8278 56.1325 39.9775 57.9466C40.2516 58.177 40.5841 58.2907 40.9166 58.2907C41.3307 58.2907 41.745 58.1128 42.0337 57.7716C42.5529 57.1532 42.4741 56.2345 41.8587 55.7153Z" fill="#3992D3"/>
<path d="M20.045 19.3154C17.5454 16.947 7.55 16.1799 4.54588 16.002C4.13176 15.9816 3.74963 16.1186 3.45801 16.3957C3.16625 16.6699 3 17.0549 3 17.4574V43.7074C3 44.5124 3.65338 45.1657 4.45838 45.1657H13.2084C13.8384 45.1657 14.3984 44.7604 14.5937 44.1595C14.8066 43.5061 19.8321 28.0829 20.4941 20.4995C20.5321 20.0561 20.3687 19.6186 20.045 19.3154ZM12.1437 42.2491H5.91662V19.0207C10.6037 19.3911 15.6612 20.1961 17.4987 21.0886C16.7259 27.4761 13.2287 38.8249 12.1437 42.2491Z" fill="#3992D3"/>
<path d="M71.5416 18.9156C60.0907 18.9156 53.7383 21.8469 53.4729 21.9694C53.0938 22.1473 52.8108 22.4769 52.6941 22.8765C52.5775 23.2762 52.6358 23.7049 52.8545 24.0606C54.657 26.9628 60.3007 43.0803 61.3857 47.0119C61.5607 47.6447 62.1354 48.0822 62.7916 48.0822H71.5416C72.3466 48.0822 73 47.4289 73 46.6239V20.3739C73 19.566 72.3466 18.9156 71.5416 18.9156ZM70.0834 45.1656H63.8825C62.5 40.6623 58.4166 28.9198 56.1388 24.0665C58.3641 23.3112 63.1446 22.0131 70.0834 21.8499V45.1656Z" fill="#3992D3"/>
</svg>
