<svg width="250" height="46" viewBox="0 0 250 46" fill="none" xmlns="http://www.w3.org/2000/svg">
<path fill-rule="evenodd" clip-rule="evenodd" d="M22.9844 45.0012L47.3975 18.6328L38.751 44.9904L22.9844 45.0012Z" fill="#385490"/>
<path fill-rule="evenodd" clip-rule="evenodd" d="M42.6657 13.4374L6.673 23.6206L31.5005 24.1486L47.4742 16.8857L25.5035 34.6334L25.6889 25.3124L15.0688 25.0968L14.8616 35.1722L7.61071 40.2799L0 17.1982L23.9334 0L42.6657 13.4374Z" fill="#3992D3"/>
<path d="M70.9961 33.6204C68.8509 33.6204 66.9082 33.1604 65.1678 32.2404C63.4476 31.3004 62.0918 30.0104 61.1001 28.3704C60.1288 26.7304 59.6431 24.8805 59.6431 22.8205C59.6431 20.7605 60.1389 18.9105 61.1305 17.2705C62.1221 15.6305 63.478 14.3505 65.1982 13.4305C66.9385 12.4905 68.8813 12.0205 71.0264 12.0205C72.7668 12.0205 74.3554 12.3205 75.7923 12.9205C77.2291 13.5205 78.4433 14.3905 79.435 15.5305L76.8851 17.9005C75.3471 16.2605 73.4549 15.4405 71.2086 15.4405C69.7515 15.4405 68.4462 15.7605 67.2927 16.4005C66.1392 17.0205 65.2386 17.8905 64.591 19.0105C63.9435 20.1305 63.6197 21.4005 63.6197 22.8205C63.6197 24.2405 63.9435 25.5105 64.591 26.6304C65.2386 27.7504 66.1392 28.6304 67.2927 29.2704C68.4462 29.8904 69.7515 30.2004 71.2086 30.2004C73.4549 30.2004 75.3471 29.3704 76.8851 27.7104L79.435 30.1104C78.4433 31.2504 77.219 32.1204 75.7619 32.7204C74.3251 33.3204 72.7365 33.6204 70.9961 33.6204Z" fill="white"/>
<path d="M95.0698 20.4805H89.3933V33.3204H85.5988V20.4805H79.8919V17.3005H95.0698V20.4805Z" fill="white"/>
<path d="M103.863 17.1205C106.251 17.1205 108.072 17.6905 109.327 18.8305C110.602 19.9505 111.239 21.6505 111.239 23.9305V33.3204H107.657V31.3704C107.192 32.0704 106.524 32.6104 105.654 32.9904C104.804 33.3504 103.772 33.5304 102.558 33.5304C101.343 33.5304 100.281 33.3304 99.3703 32.9304C98.4596 32.5104 97.7513 31.9404 97.2454 31.2204C96.7597 30.4804 96.5169 29.6504 96.5169 28.7304C96.5169 27.2904 97.0532 26.1404 98.1257 25.2805C99.2185 24.4005 100.929 23.9605 103.256 23.9605H107.445V23.7205C107.445 22.6005 107.101 21.7405 106.413 21.1405C105.745 20.5405 104.743 20.2405 103.408 20.2405C102.497 20.2405 101.596 20.3805 100.706 20.6605C99.8358 20.9405 99.0971 21.3305 98.49 21.8305L97.0026 19.1005C97.8525 18.4605 98.8745 17.9705 100.068 17.6305C101.262 17.2905 102.527 17.1205 103.863 17.1205ZM103.347 30.8004C104.298 30.8004 105.138 30.5904 105.866 30.1704C106.615 29.7304 107.141 29.1104 107.445 28.3104V26.4504H103.529C101.343 26.4504 100.251 27.1604 100.251 28.5804C100.251 29.2604 100.524 29.8004 101.07 30.2004C101.617 30.6004 102.376 30.8004 103.347 30.8004Z" fill="white"/>
<path d="M130.627 17.3005V33.3204H126.832V20.4805H120.761L120.61 23.6605C120.508 25.7805 120.306 27.5604 120.002 29.0004C119.719 30.4204 119.223 31.5504 118.515 32.3904C117.827 33.2104 116.876 33.6204 115.662 33.6204C115.095 33.6204 114.397 33.5104 113.567 33.2904L113.749 30.1404C114.032 30.2004 114.275 30.2304 114.478 30.2304C115.247 30.2304 115.823 29.9304 116.208 29.3304C116.592 28.7104 116.835 27.9804 116.937 27.1404C117.058 26.2804 117.159 25.0605 117.24 23.4805L117.513 17.3005H130.627Z" fill="white"/>
<path d="M143.872 22.5805C145.937 22.5805 147.515 23.0405 148.608 23.9605C149.721 24.8805 150.277 26.1805 150.277 27.8604C150.277 29.6204 149.67 30.9804 148.456 31.9404C147.242 32.9004 145.532 33.3704 143.326 33.3504L135.737 33.3204V17.3005H139.532V22.5505L143.872 22.5805ZM142.992 30.5904C144.105 30.6104 144.955 30.3804 145.542 29.9004C146.129 29.4204 146.422 28.7204 146.422 27.8004C146.422 26.9004 146.139 26.2404 145.572 25.8205C145.006 25.4005 144.146 25.1805 142.992 25.1605L139.532 25.1305V30.5604L142.992 30.5904Z" fill="white"/>
<path d="M164.34 33.6199C162.195 33.6199 160.252 33.1599 158.512 32.2399C156.791 31.2999 155.436 30.0099 154.444 28.37C153.473 26.73 152.987 24.88 152.987 22.82C152.987 20.76 153.483 18.91 154.474 17.27C155.466 15.63 156.822 14.35 158.542 13.43C160.282 12.49 162.225 12.02 164.37 12.02C166.111 12.02 167.699 12.32 169.136 12.92C170.573 13.52 171.787 14.39 172.779 15.53L170.229 17.9C168.691 16.26 166.799 15.44 164.552 15.44C163.095 15.44 161.79 15.76 160.636 16.4C159.483 17.02 158.582 17.89 157.935 19.01C157.287 20.13 156.963 21.4 156.963 22.82C156.963 24.24 157.287 25.51 157.935 26.63C158.582 27.75 159.483 28.63 160.636 29.2699C161.79 29.8899 163.095 30.1999 164.552 30.1999C166.799 30.1999 168.691 29.3699 170.229 27.71L172.779 30.1099C171.787 31.2499 170.563 32.1199 169.106 32.7199C167.669 33.3199 166.08 33.6199 164.34 33.6199Z" fill="white"/>
<path d="M182.757 26.9H179.812V33.3199H176.018V17.3H179.812V23.78H182.848L187.644 17.3H191.712L185.823 25.01L192.106 33.3199H187.644L182.757 26.9Z" fill="white"/>
<path d="M209.475 17.3V33.3199H205.68V20.48H199.609L199.457 23.66C199.356 25.78 199.154 27.56 198.85 29C198.567 30.4199 198.071 31.5499 197.363 32.3899C196.675 33.2099 195.724 33.6199 194.509 33.6199C193.943 33.6199 193.244 33.5099 192.415 33.2899L192.597 30.1399C192.88 30.1999 193.123 30.2299 193.325 30.2299C194.094 30.2299 194.671 29.9299 195.056 29.3299C195.44 28.71 195.683 27.98 195.784 27.14C195.906 26.28 196.007 25.06 196.088 23.48L196.361 17.3H209.475Z" fill="white"/>
<path d="M220.626 17.12C223.014 17.12 224.835 17.69 226.09 18.83C227.365 19.95 228.002 21.65 228.002 23.93V33.3199H224.42V31.3699C223.955 32.0699 223.287 32.6099 222.417 32.9899C221.567 33.3499 220.535 33.5299 219.32 33.5299C218.106 33.5299 217.044 33.3299 216.133 32.9299C215.222 32.5099 214.514 31.9399 214.008 31.2199C213.522 30.4799 213.28 29.6499 213.28 28.73C213.28 27.29 213.816 26.14 214.888 25.28C215.981 24.4 217.691 23.96 220.018 23.96H224.208V23.72C224.208 22.6 223.864 21.74 223.175 21.14C222.508 20.54 221.506 20.24 220.17 20.24C219.26 20.24 218.359 20.38 217.469 20.66C216.598 20.94 215.86 21.33 215.253 21.83L213.765 19.1C214.615 18.46 215.637 17.97 216.831 17.63C218.025 17.29 219.29 17.12 220.626 17.12ZM220.11 30.7999C221.061 30.7999 221.901 30.5899 222.629 30.1699C223.378 29.7299 223.904 29.1099 224.208 28.31V26.45H220.292C218.106 26.45 217.013 27.16 217.013 28.58C217.013 29.2599 217.286 29.7999 217.833 30.1999C218.379 30.5999 219.138 30.7999 220.11 30.7999Z" fill="white"/>
<path d="M250 30.1399V36.8899H246.449V33.3199H233.942V36.8899H230.421V30.1399H231.18C232.212 30.0999 232.91 29.4499 233.274 28.19C233.659 26.91 233.912 25.11 234.033 22.79L234.246 17.3H247.602V30.1399H250ZM237.494 23.06C237.413 24.9 237.261 26.4 237.038 27.56C236.816 28.72 236.411 29.5799 235.824 30.1399H243.808V20.48H237.585L237.494 23.06Z" fill="white"/>
</svg>
