<?xml version="1.0" standalone="no"?>
<!DOCTYPE svg PUBLIC "-//W3C//DTD SVG 20010904//EN"
 "http://www.w3.org/TR/2001/REC-SVG-20010904/DTD/svg10.dtd">
<svg version="1.0" xmlns="http://www.w3.org/2000/svg"
 width="1280.000000pt" height="1152.000000pt" viewBox="0 0 1280.000000 1152.000000"
 preserveAspectRatio="xMidYMid meet">

<g transform="translate(0.000000,1152.000000) scale(0.100000,-0.100000)"
fill="#000000" stroke="none">
<path d="M6914 8442 c-28 -48 -89 -152 -134 -232 -46 -80 -107 -185 -136 -235
-90 -154 -344 -595 -411 -712 l-64 -112 17 -33 c9 -18 32 -61 52 -95 l35 -62
45 77 c61 106 102 177 229 397 61 105 121 210 135 235 14 25 65 113 113 195
48 83 133 231 190 330 56 99 123 215 149 258 l46 77 -108 0 -107 -1 -51 -87z"/>
<path d="M7392 8510 c-7 -11 -56 -95 -109 -188 -53 -92 -146 -252 -206 -357
-61 -104 -127 -219 -147 -255 -20 -36 -71 -123 -112 -195 -278 -479 -375 -647
-401 -695 l-30 -55 49 -87 c27 -48 52 -88 55 -88 4 0 39 57 79 128 40 70 94
163 120 207 26 44 82 141 125 215 43 74 103 180 135 235 32 55 140 242 240
415 100 173 205 356 235 405 101 172 185 322 185 328 0 4 -46 7 -103 7 -91 0
-104 -2 -115 -20z"/>
<path d="M7818 8488 c-14 -24 -49 -86 -80 -138 -118 -203 -246 -427 -264 -460
-11 -19 -39 -69 -63 -110 -88 -149 -284 -489 -371 -640 -20 -36 -63 -110 -96
-165 -32 -55 -67 -115 -77 -134 -10 -19 -68 -120 -129 -224 -60 -104 -114
-200 -120 -212 -8 -19 -3 -35 32 -96 24 -41 47 -80 53 -87 12 -15 14 -13 89
118 30 52 98 169 150 260 53 91 104 181 115 200 34 60 213 369 283 490 37 63
112 192 165 285 54 94 130 224 168 290 38 66 86 149 106 185 51 90 225 389
250 431 12 19 21 37 21 42 0 4 -47 7 -104 7 l-104 0 -24 -42z"/>
<path d="M8254 8483 c-15 -27 -51 -88 -79 -138 -29 -49 -78 -135 -110 -190
-31 -55 -81 -140 -110 -190 -30 -49 -62 -106 -73 -125 -25 -46 -229 -400 -296
-515 -29 -49 -90 -155 -136 -235 -46 -80 -95 -165 -110 -190 -15 -25 -46 -76
-67 -115 -22 -38 -73 -128 -115 -200 -41 -71 -128 -222 -193 -335 -64 -113
-121 -209 -126 -214 -5 -6 -9 -16 -9 -24 0 -17 92 -181 102 -182 3 0 31 44 61
98 30 53 95 167 145 252 49 85 130 225 179 310 135 233 234 404 298 515 32 55
75 129 95 165 20 36 103 180 184 320 203 349 331 572 379 655 22 39 63 111 92
160 91 156 125 216 125 221 0 2 -47 4 -105 4 l-104 0 -27 -47z"/>
<path d="M4321 7298 c7 -13 34 -59 59 -103 26 -44 157 -269 290 -500 134 -231
274 -474 313 -540 38 -66 81 -140 95 -165 13 -25 42 -74 63 -110 20 -36 48
-83 61 -106 13 -22 37 -64 53 -92 l30 -52 108 0 109 0 -20 33 c-11 17 -62 104
-113 192 -100 174 -164 284 -272 470 -38 66 -81 140 -94 165 -14 25 -40 70
-58 100 -18 30 -41 71 -52 90 -10 19 -45 80 -77 135 -76 129 -104 178 -207
357 l-84 147 -108 1 -108 0 12 -22z"/>
<path d="M4753 7313 c3 -5 48 -84 101 -176 53 -93 108 -186 121 -208 14 -21
25 -41 25 -44 0 -3 26 -49 58 -103 59 -97 124 -211 192 -332 64 -113 302 -525
310 -535 4 -5 20 -32 35 -60 15 -27 50 -89 79 -137 l51 -88 103 0 c56 0 102 3
102 7 0 6 -82 151 -185 328 -29 50 -112 194 -185 320 -73 127 -147 255 -165
285 -18 30 -42 71 -52 90 -11 19 -64 112 -118 205 -54 94 -116 202 -138 240
-22 39 -60 103 -84 143 l-45 72 -105 0 c-57 0 -102 -3 -100 -7z"/>
<path d="M5190 7316 c0 -3 30 -55 67 -118 36 -62 83 -142 103 -178 21 -36 95
-164 166 -285 70 -121 144 -249 164 -285 20 -36 72 -126 115 -200 77 -133 286
-495 333 -577 l24 -43 105 0 c122 0 118 -10 44 114 -26 45 -85 146 -131 226
-45 80 -105 183 -133 230 -27 47 -61 105 -75 130 -13 25 -39 70 -57 100 -18
30 -61 105 -95 165 -35 61 -92 160 -128 220 -36 61 -74 126 -84 145 -75 133
-128 225 -166 288 l-44 72 -104 0 c-57 0 -104 -2 -104 -4z"/>
<path d="M5646 7288 c9 -18 60 -107 112 -198 245 -423 304 -525 382 -660 45
-80 105 -183 133 -230 27 -47 61 -105 75 -130 13 -25 37 -65 52 -90 15 -25 66
-114 114 -197 l88 -153 104 0 c57 0 104 3 104 6 0 3 -32 60 -72 127 -39 67
-90 156 -113 197 -23 41 -80 140 -127 220 -47 80 -116 199 -153 265 -38 66
-114 199 -171 295 -56 96 -113 196 -127 221 -14 25 -66 115 -115 200 l-89 154
-107 3 -107 3 17 -33z"/>
<path d="M4253 5364 c-59 -22 -118 -89 -139 -161 -32 -109 9 -232 98 -290 34
-23 55 -29 117 -31 96 -4 150 21 199 92 39 58 42 86 9 86 -16 0 -31 -12 -48
-37 -37 -57 -82 -83 -146 -83 -87 0 -144 42 -168 124 -38 127 46 257 166 256
52 -1 116 -34 139 -73 15 -24 30 -36 50 -39 33 -5 35 -2 19 39 -39 103 -178
158 -296 117z"/>
<path d="M6196 5343 c-3 -15 -19 -116 -36 -223 -17 -107 -34 -205 -37 -217 -4
-20 -1 -23 26 -23 36 0 32 -14 66 204 14 88 28 162 30 164 2 3 8 -4 11 -14 33
-90 146 -329 155 -329 7 0 46 77 88 172 42 95 78 169 82 165 3 -4 13 -59 22
-122 35 -238 35 -240 68 -240 17 0 29 5 28 13 0 6 -17 116 -37 242 l-38 230
-30 3 c-30 3 -30 3 -104 -172 -41 -96 -78 -172 -81 -168 -4 4 -39 81 -78 172
-67 156 -72 165 -100 168 -25 3 -30 -1 -35 -25z"/>
<path d="M4748 5260 c-84 -25 -133 -104 -126 -205 3 -53 9 -71 35 -102 45 -57
83 -75 154 -75 51 0 68 5 102 29 52 36 87 102 87 162 -1 135 -125 229 -252
191z m129 -70 c45 -27 66 -73 61 -130 -3 -26 -13 -59 -24 -73 -21 -28 -74 -57
-105 -57 -37 0 -89 29 -109 62 -30 47 -24 137 11 174 44 48 111 58 166 24z"/>
<path d="M5303 5251 c-43 -20 -86 -74 -98 -123 -6 -23 -13 -28 -36 -28 l-29 0
0 80 0 80 -30 0 -30 0 0 -190 0 -190 30 0 30 0 0 80 0 80 28 0 c25 0 31 -6 40
-37 13 -44 50 -86 94 -109 40 -21 126 -21 166 0 110 57 132 237 40 323 -56 53
-135 65 -205 34z m136 -55 c79 -42 92 -164 23 -228 -84 -79 -202 -15 -202 109
0 41 5 58 27 83 42 51 98 63 152 36z"/>
<path d="M5688 5254 c-35 -15 -73 -68 -62 -86 10 -15 37 -8 60 17 47 51 126
38 132 -21 4 -39 -18 -58 -69 -58 -34 -1 -39 -4 -39 -23 0 -18 6 -23 24 -23
31 0 78 -18 88 -33 24 -38 -17 -97 -68 -97 -34 0 -73 20 -79 42 -6 18 -49 26
-59 10 -9 -15 25 -68 55 -86 39 -23 115 -24 157 -2 64 33 79 121 31 172 -13
13 -18 24 -12 24 12 0 33 44 33 71 0 36 -31 80 -65 95 -43 18 -80 17 -127 -2z"/>
<path d="M6864 5251 c-74 -34 -123 -131 -108 -213 9 -47 48 -112 81 -134 36
-23 107 -34 150 -22 40 11 89 51 109 89 14 29 14 29 -14 29 -17 0 -38 -10 -52
-25 -60 -64 -161 -51 -200 26 -11 20 -16 39 -13 43 4 3 74 6 156 6 l150 0 -5
44 c-16 135 -137 210 -254 157z m136 -56 c31 -16 65 -69 55 -85 -3 -6 -57 -10
-121 -10 -105 0 -114 2 -114 19 0 24 37 70 64 81 33 14 84 11 116 -5z"/>
<path d="M7621 5260 c-78 -34 -120 -98 -121 -187 0 -63 13 -99 48 -136 46 -49
81 -61 168 -58 17 1 48 12 68 26 20 14 39 25 41 25 3 0 5 -11 5 -25 0 -20 5
-25 25 -25 l25 0 0 190 0 190 -25 0 c-20 0 -25 -5 -25 -25 0 -31 -3 -31 -45 1
-38 28 -123 41 -164 24z m128 -64 c89 -47 91 -184 2 -243 -39 -27 -68 -29
-116 -9 -75 32 -102 152 -48 216 14 18 36 36 47 40 33 14 84 11 115 -4z"/>
<path d="M7150 5233 l0 -28 65 3 65 4 0 -167 0 -166 28 3 27 3 5 160 5 160 50
2 c28 1 56 2 63 2 6 1 12 12 12 26 l0 25 -160 0 -160 0 0 -27z"/>
<path d="M8046 5208 c-3 -29 -8 -84 -11 -123 -10 -105 -21 -135 -56 -142 -24
-4 -29 -11 -29 -34 0 -34 23 -38 71 -13 42 21 55 59 70 197 l12 117 64 0 63 0
0 -165 0 -165 30 0 30 0 0 190 0 190 -119 0 -119 0 -6 -52z"/>
<path d="M8455 5193 c-20 -210 -33 -253 -77 -253 -13 0 -18 -8 -18 -30 0 -24
4 -30 23 -30 37 0 84 36 96 72 9 29 31 200 31 243 0 12 13 15 65 15 l65 0 0
-165 0 -165 30 0 30 0 0 190 0 190 -119 0 -119 0 -7 -67z"/>
<path d="M4983 4632 c-58 -1 -103 -7 -103 -12 0 -6 7 -10 15 -10 12 0 15 -19
15 -114 0 -101 -2 -115 -17 -119 -10 -3 19 -5 63 -6 45 0 95 -4 111 -7 22 -4
32 -2 36 9 5 13 -6 14 -74 10 l-79 -6 0 62 0 62 38 -3 c34 -3 37 -6 40 -35 6
-59 22 -35 22 32 0 70 -5 80 -20 40 -8 -20 -16 -25 -45 -25 l-35 0 0 50 0 50
54 0 c35 0 58 -5 66 -15 7 -8 16 -15 21 -15 11 0 12 48 2 52 -5 2 -54 2 -110
0z"/>
<path d="M5146 4615 c-9 -31 -7 -65 3 -65 5 0 14 14 21 30 10 24 19 30 41 30
l29 0 0 -114 c0 -101 -2 -115 -17 -119 -10 -3 7 -5 37 -4 30 0 45 2 33 4 -22
4 -23 8 -23 119 l0 114 29 0 c22 0 31 -6 41 -30 18 -42 30 -37 30 13 l0 42
-109 0 c-102 0 -110 -2 -115 -20z"/>
<path d="M8140 4615 c0 -11 -3 -30 -6 -42 -9 -34 13 -28 31 7 11 21 23 30 40
30 l25 0 0 -115 c0 -102 -2 -115 -17 -116 -12 -1 -9 -4 7 -8 14 -4 38 -5 55
-2 19 3 23 6 13 9 -16 3 -18 17 -18 118 l0 114 26 0 c19 0 28 -7 35 -30 15
-43 29 -37 29 13 l0 42 -110 0 c-103 0 -110 -1 -110 -20z"/>
<path d="M4450 4620 c0 -5 7 -10 15 -10 12 0 15 -19 15 -114 0 -101 -2 -115
-17 -119 -10 -3 5 -5 32 -5 28 0 42 2 33 5 -15 4 -18 16 -18 70 l0 66 58 -76
c31 -42 62 -75 67 -73 6 1 34 36 63 76 l52 73 0 -66 c0 -54 -3 -67 -16 -67 -8
0 -13 -4 -10 -8 5 -8 85 -6 94 3 3 3 -2 5 -11 5 -15 0 -17 14 -17 115 0 96 3
115 15 115 8 0 15 5 15 10 0 6 -13 10 -28 10 -25 0 -33 -11 -87 -110 -33 -60
-62 -110 -66 -110 -3 0 -34 50 -69 110 -58 98 -68 110 -92 110 -16 0 -28 -4
-28 -10z"/>
<path d="M6295 4611 c-57 -26 -77 -53 -83 -109 -4 -44 -1 -53 27 -84 73 -83
252 -73 312 19 41 61 11 148 -61 177 -54 21 -145 20 -195 -3z m137 -1 c20 -6
50 -23 67 -39 54 -51 39 -141 -29 -176 -66 -34 -183 -5 -209 52 -32 69 0 139
74 162 41 12 54 13 97 1z"/>
<path d="M6625 4620 c3 -5 13 -10 21 -10 11 0 14 -22 14 -115 0 -96 -3 -115
-15 -115 -8 0 -15 -3 -15 -7 0 -5 24 -6 52 -4 29 3 43 7 31 9 -22 3 -23 7 -23
118 l0 114 65 0 65 0 0 -110 c0 -93 -3 -110 -17 -119 -14 -8 -6 -10 32 -10 28
1 42 3 33 6 -16 4 -18 18 -18 119 0 95 3 114 15 114 8 0 15 5 15 10 0 6 -50
10 -131 10 -84 0 -128 -4 -124 -10z"/>
<path d="M6930 4620 c0 -5 7 -10 15 -10 18 0 16 8 19 -113 1 -104 0 -111 -24
-120 -8 -3 14 -5 50 -5 36 1 53 3 38 5 -26 4 -28 8 -28 47 l0 43 51 6 c61 7
96 28 105 61 10 40 -4 63 -47 80 -44 18 -179 22 -179 6z m167 -25 c54 -38 19
-105 -57 -105 l-40 0 0 48 c0 26 5 53 12 60 16 16 59 15 85 -3z"/>
<path d="M7302 4617 c-18 -5 -46 -25 -62 -44 -54 -61 -34 -155 40 -190 81 -38
186 -25 248 32 34 30 37 38 36 84 -1 58 -26 94 -81 117 -37 16 -133 17 -181 1z
m175 -30 c104 -71 51 -207 -82 -207 -66 0 -115 26 -139 74 -16 32 -17 44 -7
76 13 44 27 57 78 76 48 18 108 10 150 -19z"/>
<path d="M7620 4620 c0 -5 9 -10 20 -10 19 0 20 -7 20 -110 0 -93 -3 -110 -17
-119 -17 -10 -16 -10 2 -12 11 0 30 -2 42 -3 12 -1 28 1 35 6 9 5 6 8 -9 8
-20 0 -23 5 -23 40 0 66 22 62 99 -14 72 -71 113 -91 61 -28 -17 20 -48 56
-67 80 l-36 43 38 54 c20 30 44 55 51 55 8 0 14 5 14 10 0 6 -19 10 -41 10
-33 0 -39 -3 -31 -13 8 -9 -1 -26 -38 -67 l-49 -55 -1 58 c0 44 3 57 15 57 8
0 15 5 15 10 0 6 -22 10 -50 10 -27 0 -50 -4 -50 -10z"/>
<path d="M5439 4494 c-29 -70 -51 -109 -64 -115 -14 -5 -5 -8 30 -7 28 0 42 2
33 5 -15 4 -15 8 -4 41 12 33 17 37 53 40 43 3 57 -7 68 -50 5 -21 3 -27 -12
-30 -44 -9 10 -13 102 -7 55 3 90 6 79 7 -22 2 -22 2 7 79 15 42 32 80 37 85
6 6 20 -18 35 -59 14 -37 28 -75 32 -85 4 -11 1 -18 -12 -20 -10 -3 6 -6 35
-9 28 -2 52 -1 52 4 0 4 -6 7 -14 7 -8 0 -36 45 -65 106 -28 59 -56 104 -62
102 -6 -2 -22 -31 -34 -63 -55 -146 -55 -145 -95 -145 l-36 0 -49 110 c-27 61
-54 110 -60 110 -6 0 -31 -48 -56 -106z m69 39 c5 -16 13 -36 17 -45 6 -15 1
-18 -29 -18 -41 0 -40 -1 -24 51 13 46 22 49 36 12z"/>
<path d="M7961 4494 c-30 -73 -50 -108 -65 -114 -15 -6 -6 -9 34 -8 30 0 45 3
33 5 -27 5 -27 2 -8 47 14 34 18 36 59 36 40 0 45 -3 55 -31 15 -42 14 -47 -6
-52 -10 -3 9 -5 42 -4 33 0 51 2 40 4 -15 3 -34 34 -70 113 -27 61 -54 110
-60 110 -6 0 -31 -48 -54 -106z m83 -1 c7 -21 4 -23 -28 -23 -41 0 -42 5 -20
58 l15 37 13 -25 c8 -14 17 -35 20 -47z"/>
<path d="M6035 4568 c-21 -67 -80 -188 -94 -191 -9 -2 3 -5 27 -8 24 -3 46 -1
48 3 3 4 -2 8 -10 8 -9 0 -16 4 -16 10 0 13 51 143 60 153 6 7 70 -137 70
-157 0 -2 -8 -7 -17 -9 -10 -3 7 -5 37 -5 30 0 48 2 40 4 -9 3 -39 52 -68 109
-28 58 -56 105 -61 105 -5 0 -13 -10 -16 -22z"/>
</g>
</svg>
