<svg width="180" height="106" viewBox="0 0 180 106" fill="none" xmlns="http://www.w3.org/2000/svg">
<path d="M87.3594 21.3835C90.1534 20.0422 90.7376 19.8388 90.7376 19.8388C90.7376 19.8388 88.1595 23.5701 88.0388 25.4516C88.0388 25.4516 91.8235 19.6926 96.2686 15.1795C104.035 7.28473 110.55 8.14922 110.55 8.14922C110.55 8.14922 105.603 6.26134 100.815 7.29745C96.0209 8.33356 92.7824 10.5901 92.7824 10.5901C92.7824 10.5901 98.0784 9.16626 100.015 10.3168C92.2172 11.6517 88.0579 16.6796 88.0579 16.6796C88.0579 16.6796 92.249 14.7282 93.4999 15.8597C89.3597 17.6776 87.3594 21.3835 87.3594 21.3835Z" fill="#2A8AEA"/>
<path d="M119.408 22.3429C119.173 20.9445 119.173 19.6096 119.389 18.1921C119.605 16.8191 119.313 15.3698 119.249 13.9587C119.345 13.9651 119.541 13.9778 119.897 13.9968C118.716 13.0243 118.989 12.1852 119.808 11.2953C120.157 10.9139 120.342 10.3863 120.526 9.84604C119.332 10.647 118.094 11.0283 116.544 10.844C116.932 9.81426 117.255 8.9307 117.592 8.04715C117.547 7.98358 117.516 7.92002 117.471 7.8501C116.76 8.35862 116.011 8.829 115.344 9.39473C114.849 9.8079 114.449 9.83333 113.852 9.59814C112.391 9.02605 109.838 9.35659 108.029 9.78883C105.578 10.3736 103.355 11.7911 101.202 13.4438C96.7192 16.8827 93.0044 21.0335 90.0262 25.8199C88.4958 28.2863 86.54 29.8881 84.1523 30.6954C84.3047 32.1764 84.5397 33.6766 84.8763 35.1703C85.905 39.728 87.7148 43.9105 90.1341 47.4002C93.1377 46.9044 96.1159 46.1353 99.0687 45.1628C99.6402 44.9784 100.345 45.0738 100.961 45.1945C101.844 45.3662 102.682 45.7285 103.558 45.9128C105.07 46.2307 105.412 47.146 104.428 48.3982C103.184 49.9683 101.831 51.3349 99.4688 50.9472C99.564 51.5065 99.6275 51.8689 99.7037 52.3202C96.7954 50.3306 94.9158 51.2459 94.3696 54.7865C94.4331 54.8501 94.4966 54.9708 94.5602 54.9708C97.5193 54.9963 100.459 56.1913 103.431 55.0598C103.869 54.8946 104.358 54.7293 104.816 54.7611C107.425 54.9391 108.638 53.2864 109.813 51.3031C110.886 49.4852 112.277 47.8643 113.541 46.1544C113.706 45.9319 113.966 45.7412 114.042 45.4933C114.296 44.6479 112.836 42.0163 111.953 41.7493C110.15 41.2027 108.321 40.7005 106.517 40.1793C106.505 40.0521 106.46 39.9186 106.498 39.8742C108.422 37.6939 108.638 35.3483 107.908 32.5133C107.032 29.1062 108.207 24.3516 110.639 21.275C112.41 22.7815 113.826 24.2435 114.379 26.3157C114.531 26.8751 114.607 27.4535 114.671 28.0256C114.823 29.4622 115.395 29.9262 116.792 29.6275C118.094 29.3478 119.433 29.0808 119.77 27.4599C119.821 27.212 119.929 26.9577 119.91 26.7098C119.757 25.2669 119.662 23.7986 119.408 22.3429ZM107.679 49.2119C106.917 51.0934 105.393 52.3647 103.927 52.282C105.26 51.1887 106.39 50.267 107.679 49.2119Z" fill="#2A8AEA"/>
<path d="M63.9134 39.8996C60.5542 24.9428 65.4501 10.6343 75.0896 4.65918C62.2814 7.79929 55.0169 23.9829 58.846 41.0438C62.6751 58.1046 76.1627 69.6226 89.0788 66.972C77.8074 65.6943 67.2663 54.8565 63.9134 39.8996Z" fill="#2A8AEA"/>
<path d="M72.3394 38.0059C68.8405 22.4198 74.5112 7.55193 85.2047 2.51123C84.4745 2.58751 83.7442 2.70193 83.014 2.86719C69.9899 5.79754 62.5666 22.1274 66.4275 39.3344C70.2947 56.5478 83.9792 68.1167 97.0032 65.1863C97.7335 65.021 98.4447 64.8176 99.1369 64.5697C87.3257 64.5951 75.8383 53.5921 72.3394 38.0059Z" fill="#2A8AEA"/>
<path d="M109.101 59.3571C97.855 61.887 85.8978 51.3161 82.3989 35.7363C78.8999 20.1566 85.1866 5.48576 96.4389 2.95587C101.144 1.89434 105.977 3.13385 110.257 6.07056C104.77 1.53201 98.1916 -0.546561 91.778 0.896365C78.7539 3.82671 71.3243 20.1566 75.1915 37.3636C79.0587 54.577 92.7495 66.1458 105.767 63.2155C112.181 61.7726 117.242 57.0751 120.258 50.6233C117.642 55.111 113.806 58.3019 109.101 59.3571Z" fill="#2A8AEA"/>
<path d="M13.8182 91.4478H9.4176L3.51201 84.9197V91.4478H0.222656V78.0483H3.51201V84.2523L9.32235 78.0483H13.742L7.22047 84.5002L13.8182 91.4478Z" fill="#323A42"/>
<path d="M26.842 91.4478L25.8641 88.9815H19.4187L18.4408 91.4478H14.9609L20.8919 78.0483H24.5813L30.4933 91.4478H26.842ZM20.3966 86.5279H24.8925L22.6382 80.9024L20.3966 86.5279Z" fill="#323A42"/>
<path d="M44.3603 78.0483H47.1162V91.4478H44.0555V83.3687L40.328 89.1087H38.6071L34.8796 83.3687V91.4478H31.8125V78.0483H34.7018L39.5406 85.6889L44.3603 78.0483Z" fill="#323A42"/>
<path d="M60.4748 91.4478L59.4969 88.9815H53.0515L52.0736 91.4478H48.5938L54.5247 78.0483H58.2142L64.1261 91.4478H60.4748ZM54.0294 86.5279H58.5253L56.271 80.9024L54.0294 86.5279Z" fill="#323A42"/>
<path d="M75.0986 78.0483V80.9596H70.4694V91.4478H67.18V80.9596H62.5508V78.0483H75.0986Z" fill="#323A42"/>
<path d="M80.387 88.7336H88.5342V91.4542H77.0977V78.0547H88.3437V80.7753H80.387V83.3242H87.5753V85.8096H80.387V88.7336Z" fill="#323A42"/>
<path d="M90.1328 91.4478L95.2573 84.6337L90.3233 78.0483H94.2413L97.4926 82.625L100.744 78.0483H104.471L99.5373 84.6337L104.662 91.4478H100.744L97.3021 86.6233L93.8032 91.4478H90.1328Z" fill="#323A42"/>
<path d="M106.48 91.4478V78.0483H109.77V88.5366H116.196V78.0483H119.485V88.5366H121.206V93.7426H118.146V91.4478H106.48Z" fill="#323A42"/>
<path d="M126.492 88.7336H134.64V91.4542H123.203V78.0547H134.449V80.7753H126.492V83.3242H133.681V85.8096H126.492V88.7336Z" fill="#323A42"/>
<path d="M146.619 78.0483H149.909V91.4478H146.619V85.9368H140.193V91.4478H136.91V78.0483H140.2V83.0255H146.626V78.0483H146.619Z" fill="#323A42"/>
<path d="M164.786 78.0483V80.9596H160.157V91.4478H156.868V80.9596H152.238V78.0483H164.786Z" fill="#323A42"/>
<path d="M167.117 91.4478V78.0483H176.407C178.757 78.0483 179.735 79.0082 179.735 81.3791V83.909C179.735 86.28 178.757 87.2398 176.407 87.2398H170.4V91.4542H167.117V91.4478ZM170.407 84.7862H175.131C176.147 84.7862 176.452 84.4621 176.452 83.445V81.9512C176.452 80.9342 176.147 80.61 175.131 80.61H170.407V84.7862Z" fill="#323A42"/>
<path d="M27.8468 101.6H26.7292V104.727H26.1259V101.6H25.0273V101.117H27.8404V101.6H27.8468Z" fill="#778089"/>
<path d="M32.5895 103.246C32.5895 103.684 32.4498 104.053 32.1768 104.345C31.8974 104.638 31.5417 104.778 31.0972 104.778C30.6654 104.778 30.3162 104.631 30.0431 104.345C29.7701 104.053 29.6367 103.691 29.6367 103.246V102.591C29.6367 102.152 29.7701 101.784 30.0431 101.491C30.3162 101.199 30.6654 101.053 31.0972 101.053C31.5354 101.053 31.8974 101.199 32.1768 101.491C32.4562 101.784 32.5959 102.146 32.5959 102.591V103.246H32.5895ZM31.9863 102.591C31.9863 102.292 31.9037 102.044 31.745 101.847C31.5862 101.657 31.3703 101.555 31.0909 101.555C30.8242 101.555 30.6146 101.65 30.4622 101.847C30.3098 102.038 30.2336 102.286 30.2336 102.591V103.246C30.2336 103.551 30.3098 103.799 30.4622 103.996C30.6146 104.193 30.8242 104.288 31.0909 104.288C31.3639 104.288 31.5862 104.193 31.745 103.996C31.9037 103.805 31.9863 103.551 31.9863 103.246V102.591Z" fill="#778089"/>
<path d="M35.3533 103.354V104.72H34.75V101.11H36.1343C36.5344 101.11 36.8455 101.212 37.0678 101.421C37.2964 101.625 37.4043 101.898 37.4043 102.235C37.4043 102.572 37.29 102.845 37.0678 103.049C36.8392 103.252 36.528 103.354 36.1343 103.354H35.3533ZM35.3533 102.871H36.1343C36.3566 102.871 36.528 102.813 36.636 102.693C36.7503 102.572 36.8074 102.419 36.8074 102.241C36.8074 102.063 36.7503 101.904 36.636 101.784C36.5217 101.663 36.3566 101.599 36.1343 101.599H35.3533V102.871Z" fill="#778089"/>
<path d="M41.7719 101.599H40.0954V104.727H39.4922V101.116H41.7719V101.599Z" fill="#778089"/>
<path d="M46.4997 103.246C46.4997 103.684 46.36 104.053 46.0869 104.345C45.8075 104.638 45.4519 104.778 45.0074 104.778C44.5756 104.778 44.2263 104.631 43.9533 104.345C43.6802 104.053 43.5469 103.691 43.5469 103.246V102.591C43.5469 102.152 43.6802 101.784 43.9533 101.491C44.2263 101.199 44.5756 101.053 45.0074 101.053C45.4456 101.053 45.8075 101.199 46.0869 101.491C46.3663 101.784 46.506 102.146 46.506 102.591V103.246H46.4997ZM45.9028 102.591C45.9028 102.292 45.8202 102.044 45.6615 101.847C45.5027 101.657 45.2868 101.555 45.0074 101.555C44.7407 101.555 44.5311 101.65 44.3787 101.847C44.2263 102.038 44.1501 102.286 44.1501 102.591V103.246C44.1501 103.551 44.2263 103.799 44.3787 103.996C44.5311 104.193 44.7407 104.288 45.0074 104.288C45.2805 104.288 45.5027 104.193 45.6615 103.996C45.8202 103.805 45.9028 103.551 45.9028 103.246V102.591Z" fill="#778089"/>
<path d="M48.6641 104.727V101.116H49.8452C50.2452 101.116 50.5564 101.199 50.7786 101.364C51.0009 101.529 51.1152 101.777 51.1152 102.101C51.1152 102.26 51.0707 102.4 50.9818 102.534C50.8929 102.661 50.7659 102.756 50.6072 102.826C50.8358 102.864 51.0136 102.966 51.1406 103.125C51.2676 103.284 51.3247 103.474 51.3247 103.697C51.3247 104.034 51.2168 104.294 50.9945 104.472C50.7723 104.65 50.4675 104.739 50.0801 104.739H48.6641V104.727ZM49.2673 102.635H49.9087C50.0928 102.635 50.2452 102.591 50.3532 102.502C50.4611 102.413 50.5183 102.286 50.5183 102.127C50.5183 101.949 50.4611 101.815 50.3468 101.726C50.2325 101.637 50.0674 101.599 49.8515 101.599H49.2737V102.635H49.2673ZM49.2673 103.08V104.244H50.0801C50.2897 104.244 50.4484 104.199 50.5627 104.104C50.677 104.008 50.7342 103.869 50.7342 103.691C50.7342 103.506 50.677 103.366 50.5691 103.258C50.4611 103.15 50.3024 103.093 50.1055 103.087H50.0738H49.2673V103.08Z" fill="#778089"/>
<path d="M54.0032 102.451H54.7652C55.1652 102.451 55.4764 102.553 55.705 102.763C55.9336 102.972 56.0479 103.246 56.0479 103.583C56.0479 103.919 55.9336 104.199 55.705 104.409C55.4764 104.619 55.1652 104.727 54.7652 104.727H53.4062V101.116H54.0095V102.451H54.0032ZM54.0032 102.934V104.244H54.7652C54.9874 104.244 55.1589 104.18 55.2732 104.053C55.3875 103.926 55.4446 103.767 55.4446 103.576C55.4446 103.398 55.3875 103.246 55.2732 103.119C55.1589 102.998 54.9874 102.934 54.7652 102.934H54.0032ZM57.0385 104.727H56.4352V101.116H57.0385V104.727Z" fill="#778089"/>
<path d="M61.5146 101.11H62.1178V104.72H61.5146V102.133L61.5019 102.127L59.9016 104.72H59.3047V101.11H59.9016V103.697L59.9143 103.703L61.5146 101.11ZM61.4955 100.048L61.5019 100.061C61.5082 100.264 61.4384 100.43 61.2987 100.557C61.1526 100.684 60.9621 100.748 60.7208 100.748C60.4731 100.748 60.2826 100.684 60.1366 100.557C59.9905 100.43 59.927 100.264 59.9334 100.061L59.9397 100.048H60.3842C60.3842 100.144 60.4096 100.22 60.4668 100.284C60.5176 100.347 60.6065 100.373 60.7208 100.373C60.8287 100.373 60.9113 100.341 60.9684 100.284C61.0256 100.22 61.051 100.144 61.051 100.048H61.4955Z" fill="#778089"/>
<path d="M70.5073 105.61H69.904V104.72H67.4783V105.61H66.875V104.244H67.11C67.3132 104.244 67.4656 104.11 67.5608 103.837C67.6561 103.563 67.7196 103.15 67.745 102.591L67.8275 101.11H70.0374V104.244H70.5009V105.61H70.5073ZM68.3546 102.591C68.3355 102.966 68.2911 103.29 68.2339 103.563C68.1704 103.837 68.0879 104.066 67.9799 104.244H69.4404V101.599H68.4117L68.3546 102.591Z" fill="#778089"/>
<path d="M75.2497 103.246C75.2497 103.684 75.11 104.053 74.8369 104.345C74.5575 104.638 74.2019 104.778 73.7574 104.778C73.3256 104.778 72.9763 104.631 72.7033 104.345C72.4302 104.053 72.2969 103.691 72.2969 103.246V102.591C72.2969 102.152 72.4302 101.784 72.7033 101.491C72.9763 101.199 73.3256 101.053 73.7574 101.053C74.1955 101.053 74.5575 101.199 74.8369 101.491C75.1163 101.784 75.256 102.146 75.256 102.591V103.246H75.2497ZM74.6528 102.591C74.6528 102.292 74.5702 102.044 74.4115 101.847C74.2527 101.657 74.0368 101.555 73.7574 101.555C73.4907 101.555 73.2811 101.65 73.1287 101.847C72.9763 102.038 72.9001 102.286 72.9001 102.591V103.246C72.9001 103.551 72.9763 103.799 73.1287 103.996C73.2811 104.193 73.4907 104.288 73.7574 104.288C74.0304 104.288 74.2527 104.193 74.4115 103.996C74.5702 103.805 74.6528 103.551 74.6528 103.246V102.591Z" fill="#778089"/>
<path d="M79.2365 103.894H79.2492L80.2907 101.116H81.059V104.727H80.4558V102.133H80.4431L79.4524 104.733H79.0397L78.03 102.089L78.0173 102.095V104.739H77.4141V101.129H78.2015L79.2365 103.894Z" fill="#778089"/>
<path d="M87.4364 102.642C87.6968 102.642 87.8873 102.591 88.0143 102.496C88.1413 102.4 88.1984 102.26 88.1984 102.089C88.1984 101.93 88.1286 101.803 87.9952 101.695C87.8619 101.593 87.6587 101.536 87.3983 101.536C87.1888 101.536 87.0173 101.587 86.8776 101.688C86.7379 101.79 86.6681 101.917 86.6681 102.07H86.0902L86.0839 102.057C86.0712 101.758 86.1982 101.523 86.4522 101.339C86.7062 101.154 87.0237 101.059 87.3983 101.059C87.8301 101.059 88.173 101.148 88.4207 101.326C88.6683 101.504 88.7953 101.758 88.7953 102.089C88.7953 102.254 88.7382 102.407 88.6302 102.54C88.5223 102.68 88.3699 102.788 88.1794 102.864C88.3953 102.934 88.5604 103.042 88.6747 103.188C88.789 103.335 88.8461 103.506 88.8461 103.71C88.8461 104.04 88.7128 104.301 88.4397 104.492C88.173 104.682 87.8174 104.771 87.3856 104.771C87.011 104.771 86.6871 104.682 86.4141 104.504C86.141 104.326 86.0077 104.072 86.0204 103.729L86.0267 103.716H86.6046C86.6046 103.881 86.6744 104.015 86.8268 104.123C86.9729 104.231 87.1634 104.288 87.392 104.288C87.6587 104.288 87.8619 104.231 88.0206 104.123C88.173 104.015 88.2492 103.875 88.2492 103.703C88.2492 103.5 88.1794 103.354 88.046 103.258C87.9063 103.163 87.7031 103.112 87.4364 103.112H86.9665V102.635H87.4364V102.642Z" fill="#778089"/>
<path d="M92.9281 103.881H91.6517L91.3723 104.727H90.75L92.0073 101.116H92.5788L93.8235 104.727H93.2011L92.9281 103.881ZM91.8105 103.379H92.7566L92.2931 101.955H92.2804L91.8105 103.379Z" fill="#778089"/>
<path d="M98.611 104.727H98.0077V101.599H96.3884V104.727H95.7852V101.116H98.611V104.727Z" fill="#778089"/>
<path d="M103.622 101.11V104.72H103.018V103.29C102.891 103.322 102.752 103.354 102.606 103.366C102.46 103.386 102.307 103.392 102.155 103.392C101.736 103.392 101.418 103.303 101.196 103.112C100.974 102.928 100.859 102.635 100.859 102.241V101.104H101.463V102.241C101.463 102.496 101.52 102.667 101.628 102.763C101.736 102.858 101.914 102.902 102.161 102.902C102.301 102.902 102.447 102.896 102.593 102.877C102.745 102.858 102.885 102.832 103.018 102.794V101.104H103.622V101.11Z" fill="#778089"/>
<path d="M107.78 103.881H106.503L106.224 104.727H105.602L106.859 101.116H107.43L108.675 104.727H108.053L107.78 103.881ZM106.668 103.379H107.615L107.151 101.955H107.138L106.668 103.379Z" fill="#778089"/>
<path d="M113.257 103.544L113.264 103.557C113.27 103.919 113.149 104.212 112.908 104.441C112.667 104.663 112.337 104.778 111.924 104.778C111.505 104.778 111.162 104.638 110.902 104.352C110.641 104.066 110.508 103.703 110.508 103.265V102.578C110.508 102.14 110.635 101.777 110.895 101.491C111.156 101.205 111.492 101.065 111.905 101.065C112.33 101.065 112.66 101.173 112.908 101.39C113.149 101.606 113.27 101.904 113.264 102.28L113.257 102.292H112.673C112.673 102.051 112.61 101.866 112.476 101.739C112.343 101.612 112.152 101.549 111.898 101.549C111.651 101.549 111.46 101.644 111.314 101.841C111.175 102.038 111.098 102.28 111.098 102.578V103.271C111.098 103.57 111.168 103.818 111.314 104.015C111.46 104.212 111.657 104.307 111.911 104.307C112.159 104.307 112.343 104.244 112.47 104.117C112.597 103.989 112.66 103.799 112.66 103.557H113.257V103.544Z" fill="#778089"/>
<path d="M117.816 101.599H116.698V104.727H116.095V101.599H114.996V101.116H117.809V101.599H117.816Z" fill="#778089"/>
<path d="M121.81 103.099H120.4V104.244H122.064V104.727H119.797V101.116H122.045V101.599H120.394V102.616H121.803V103.099H121.81Z" fill="#778089"/>
<path d="M126.339 101.11H126.942V104.72H126.339V102.133L126.326 102.127L124.726 104.72H124.129V101.11H124.726V103.697L124.739 103.703L126.339 101.11ZM126.313 100.048L126.32 100.061C126.326 100.264 126.256 100.43 126.116 100.557C125.97 100.684 125.78 100.748 125.539 100.748C125.297 100.748 125.1 100.684 124.954 100.557C124.808 100.43 124.745 100.264 124.751 100.061L124.758 100.048H125.202C125.202 100.144 125.227 100.22 125.285 100.284C125.342 100.347 125.424 100.373 125.539 100.373C125.647 100.373 125.729 100.341 125.786 100.284C125.843 100.22 125.869 100.144 125.869 100.048H126.313Z" fill="#778089"/>
<path d="M132.888 103.163H132.595V104.727H131.992V101.116H132.595V102.648H132.83L134.005 101.116H134.71L134.716 101.129L133.364 102.826L134.831 104.727H134.069L132.888 103.163Z" fill="#778089"/>
<path d="M138.623 103.881H137.347L137.068 104.727H136.445L137.703 101.116H138.274L139.519 104.727H138.896L138.623 103.881ZM137.512 103.379H138.458L137.995 101.955H137.982L137.512 103.379Z" fill="#778089"/>
<path d="M143.317 103.894H143.33L144.371 101.116H145.14V104.727H144.536V102.133H144.524L143.527 104.733H143.114L142.104 102.089L142.092 102.095V104.739H141.488V101.129H142.276L143.317 103.894Z" fill="#778089"/>
<path d="M149.35 103.881H148.074L147.794 104.727H147.172L148.429 101.116H149.001L150.245 104.727H149.623L149.35 103.881ZM148.239 103.379H149.185L148.721 101.955H148.709L148.239 103.379Z" fill="#778089"/>
<path d="M153.515 102.642C153.775 102.642 153.965 102.591 154.092 102.496C154.219 102.4 154.277 102.26 154.277 102.089C154.277 101.93 154.207 101.803 154.073 101.695C153.94 101.593 153.737 101.536 153.476 101.536C153.267 101.536 153.095 101.587 152.956 101.688C152.816 101.79 152.746 101.917 152.746 102.07H152.168L152.162 102.057C152.149 101.758 152.276 101.523 152.53 101.339C152.784 101.154 153.102 101.059 153.476 101.059C153.908 101.059 154.251 101.148 154.499 101.326C154.746 101.504 154.873 101.758 154.873 102.089C154.873 102.254 154.816 102.407 154.708 102.54C154.6 102.68 154.448 102.788 154.257 102.864C154.473 102.934 154.638 103.042 154.753 103.188C154.867 103.335 154.924 103.506 154.924 103.71C154.924 104.04 154.791 104.301 154.518 104.492C154.251 104.682 153.896 104.771 153.464 104.771C153.089 104.771 152.765 104.682 152.492 104.504C152.219 104.326 152.086 104.072 152.098 103.729L152.105 103.716H152.683C152.683 103.881 152.753 104.015 152.905 104.123C153.051 104.231 153.241 104.288 153.47 104.288C153.737 104.288 153.94 104.231 154.099 104.123C154.251 104.015 154.327 103.875 154.327 103.703C154.327 103.5 154.257 103.354 154.124 103.258C153.984 103.163 153.781 103.112 153.515 103.112H153.045V102.635H153.515V102.642Z" fill="#778089"/>
</svg>
