<svg width="290" height="52" viewBox="0 0 290 52" fill="none" xmlns="http://www.w3.org/2000/svg">
<path d="M22.9492 16.7352C25.1205 15.7254 25.5737 15.5606 25.5737 15.5606C25.5737 15.5606 23.5711 18.3941 23.4762 19.816C23.4762 19.816 26.417 15.4472 29.8742 12.0161C35.9137 6.02954 40.9731 6.67869 40.9731 6.67869C40.9731 6.67869 37.1259 5.24645 33.4052 6.02954C29.6844 6.82294 27.1653 8.53337 27.1653 8.53337C27.1653 8.53337 31.2866 7.45147 32.7833 8.3273C26.7226 9.33707 23.4868 13.1598 23.4868 13.1598C23.4868 13.1598 26.7437 11.676 27.7134 12.5416C24.5092 13.9223 22.9492 16.7352 22.9492 16.7352Z" fill="#2A8AEA"/>
<path d="M47.8551 17.4669C47.6759 16.4056 47.6759 15.3958 47.8445 14.3139C48.0132 13.2732 47.7813 12.1707 47.7391 11.0991C47.8129 11.1094 47.9605 11.1094 48.2451 11.13C47.328 10.3882 47.5389 9.74932 48.1818 9.07957C48.4559 8.79106 48.5929 8.38922 48.7404 7.97706C47.8129 8.58499 46.8537 8.87349 45.6416 8.72924C45.9367 7.94615 46.2002 7.2764 46.4532 6.60666C46.4216 6.55514 46.39 6.51392 46.3583 6.4624C45.7997 6.85395 45.2305 7.20428 44.7035 7.63704C44.3241 7.95646 44.0079 7.96676 43.5441 7.79159C42.4057 7.35883 40.4242 7.60613 39.0118 7.93585C37.104 8.37891 35.3859 9.46081 33.71 10.7076C30.2318 13.3247 27.3332 16.4674 25.0249 20.1047C23.8338 21.9799 22.316 23.1855 20.4609 23.8037C20.5769 24.9268 20.7666 26.0706 21.0301 27.204C21.8312 30.6661 23.233 33.8396 25.1197 36.4877C27.4491 36.1065 29.768 35.5295 32.0658 34.7876C32.5084 34.6433 33.0565 34.7258 33.5414 34.8082C34.2265 34.9421 34.88 35.21 35.5651 35.3543C36.7351 35.5913 37.0091 36.2919 36.2397 37.2399C35.27 38.4351 34.2265 39.4655 32.382 39.177C32.4557 39.5995 32.5084 39.8777 32.5611 40.2177C30.3055 38.703 28.8404 39.4037 28.4188 42.093C28.4715 42.1445 28.5137 42.2269 28.5664 42.2269C30.8642 42.2475 33.1514 43.1543 35.4597 42.2991C35.797 42.1754 36.187 42.0415 36.5348 42.0724C38.5691 42.2063 39.5072 40.9493 40.4136 39.4449C41.2463 38.0642 42.332 36.8277 43.3122 35.5398C43.4387 35.3646 43.6495 35.2306 43.7022 35.0349C43.9025 34.396 42.7641 32.3971 42.079 32.191C40.6771 31.7789 39.2542 31.3976 37.8524 30.9958C37.8418 30.903 37.8102 30.8 37.8418 30.7691C39.3385 29.1205 39.5072 27.3379 38.938 25.1844C38.2529 22.5982 39.1699 18.9918 41.0566 16.6529C42.4374 17.7966 43.5336 18.9094 43.9657 20.4756C44.0816 20.898 44.1449 21.3411 44.1871 21.7739C44.303 22.8661 44.7562 23.2164 45.8313 22.9897C46.8432 22.7733 47.8867 22.5776 48.1502 21.3411C48.1924 21.1556 48.2767 20.9599 48.2556 20.7744C48.1291 19.6822 48.0553 18.5694 47.8551 17.4669ZM38.7483 37.8581C38.158 39.28 36.9775 40.2486 35.8286 40.1868C36.8616 39.3522 37.7364 38.6618 38.7483 37.8581Z" fill="#2A8AEA"/>
<path d="M4.72459 30.7892C2.12115 19.4344 5.92618 8.5742 13.4203 4.04053C3.45976 6.42071 -2.17928 18.7028 0.793074 31.6547C3.76543 44.6066 14.253 53.3443 24.2873 51.335C15.5284 50.3665 7.33858 42.144 4.72459 30.7892Z" fill="#2A8AEA"/>
<path d="M11.2808 29.3468C8.56141 17.518 12.9672 6.23531 21.2835 2.4126C20.7143 2.47442 20.1452 2.55685 19.576 2.6805C9.45734 4.90612 3.68127 17.2913 6.68525 30.3565C9.68922 43.4218 20.3244 52.2006 30.4535 49.9853C31.0227 49.8617 31.5708 49.7071 32.1084 49.5113C22.9278 49.5319 14.0002 41.1755 11.2808 29.3468Z" fill="#2A8AEA"/>
<path d="M39.8591 45.5549C31.1212 47.4714 21.8247 39.4551 19.1053 27.6263C16.3859 15.7975 21.266 4.6694 30.0145 2.7529C33.6719 1.9492 37.4243 2.88684 40.755 5.11247C36.4967 1.67099 31.3847 0.0945125 26.3886 1.18672C16.27 3.41234 10.5044 15.7975 13.5084 28.8627C16.5124 41.928 27.1581 50.7068 37.2767 48.4915C42.2623 47.3993 46.1938 43.8342 48.5443 38.9399C46.4994 42.3401 43.5165 44.7512 39.8591 45.5549Z" fill="#2A8AEA"/>
<path d="M78.2694 35.2092H72.6549L65.1182 26.9092V35.2092H60.9199V18.1855H65.1182V26.0721L72.5335 18.1855H78.1683L69.8526 26.3847L78.2694 35.2092Z" fill="#323A42"/>
<path d="M94.8911 35.2067L93.6468 32.0703H85.4222L84.1779 35.2067H79.7368L87.3039 18.1831H92.0181L99.5447 35.2067H94.8911ZM86.6665 28.954H92.4025L89.5194 21.8037L86.6665 28.954Z" fill="#323A42"/>
<path d="M117.25 18.1831H120.76V35.2067H116.855V24.9401L112.1 32.2417H109.905L105.15 24.9401V35.2067H101.246V18.1831H104.928L111.099 27.885L117.25 18.1831Z" fill="#323A42"/>
<path d="M137.803 35.2067L136.558 32.0703H128.334L127.09 35.2067H122.648L130.215 18.1831H134.93L142.466 35.2067H137.803ZM129.578 28.954H135.314L132.431 21.8037L129.578 28.954Z" fill="#323A42"/>
<path d="M156.46 18.1839V21.8851H150.553V35.2176H146.354V21.8751H140.446V18.1738H156.46V18.1839Z" fill="#323A42"/>
<path d="M163.218 31.7576H173.617V35.2168H159.03V18.1831H173.375V21.6423H163.228V24.8695H172.403V28.0362H163.228V31.7576H163.218Z" fill="#323A42"/>
<path d="M175.658 35.2076L182.193 26.5445L175.901 18.1738H180.898L185.046 23.9929L189.194 18.1738H193.949L187.656 26.5445L194.191 35.2076H189.194L184.803 29.0758L180.342 35.2076H175.658Z" fill="#323A42"/>
<path d="M196.513 35.2068V18.1831H200.711V31.5156H208.906V18.1831H213.104V31.5156H215.299V38.1314H211.394V35.2168H196.513V35.2068Z" fill="#323A42"/>
<path d="M222.04 31.7576H232.439V35.2168H217.852V18.1831H232.197V21.6423H222.05V24.8695H231.225V28.0362H222.05V31.7576H222.04Z" fill="#323A42"/>
<path d="M247.728 18.1831H251.926V35.2067H247.728V28.1976H239.534V35.2067H235.335V18.1831H239.534V24.5065H247.728V18.1831Z" fill="#323A42"/>
<path d="M270.921 18.1839V21.8851H265.013V35.2176H260.815V21.8751H254.907V18.1738H270.921V18.1839Z" fill="#323A42"/>
<path d="M273.891 35.2067V18.1831H285.748C288.752 18.1831 289.996 19.4034 289.996 22.4188V25.6259C289.996 28.6413 288.752 29.8616 285.748 29.8616H278.089V35.2168H273.891V35.2067ZM278.079 26.7453H284.109C285.404 26.7453 285.788 26.3319 285.788 25.041V23.145C285.788 21.8541 285.393 21.4406 284.109 21.4406H278.079V26.7453Z" fill="#323A42"/>
</svg>
