<svg width="295" height="50" viewBox="0 0 295 50" fill="none" xmlns="http://www.w3.org/2000/svg">
<path fill-rule="evenodd" clip-rule="evenodd" d="M25.5381 49.9999L52.6638 20.7017L43.0565 49.9879L25.5381 49.9999Z" fill="#385490"/>
<path fill-rule="evenodd" clip-rule="evenodd" d="M47.4064 14.9305L7.41445 26.2451L35.0006 26.8318L52.7492 18.7619L28.3372 38.4816L28.5432 28.1249L16.7431 27.8854L16.5129 39.0803L8.45635 44.7555L0 19.1091L26.5927 0L47.4064 14.9305Z" fill="#3992D3"/>
<path d="M78.4439 36.056C75.8563 36.056 73.5128 35.5011 71.4134 34.3913C69.3384 33.2574 67.7028 31.7013 66.5067 29.723C65.3349 27.7448 64.749 25.5132 64.749 23.0282C64.749 20.5433 65.3471 18.3117 66.5433 16.3334C67.7394 14.3551 69.375 12.8111 71.45 11.7013C73.5494 10.5674 75.8929 10.0005 78.4805 10.0005C80.5799 10.0005 82.4962 10.3624 84.2295 11.0861C85.9627 11.8099 87.4274 12.8594 88.6235 14.2345L85.5477 17.0934C83.6924 15.1151 81.4099 14.1259 78.7002 14.1259C76.9426 14.1259 75.3681 14.5119 73.9766 15.284C72.5851 16.0319 71.4988 17.0813 70.7176 18.4323C69.9365 19.7834 69.5459 21.3153 69.5459 23.0282C69.5459 24.7411 69.9365 26.2731 70.7176 27.6241C71.4988 28.9752 72.5851 30.0367 73.9766 30.8087C75.3681 31.5566 76.9426 31.9305 78.7002 31.9305C81.4099 31.9305 83.6924 30.9293 85.5477 28.9269L88.6235 31.822C87.4274 33.1971 85.9505 34.2466 84.1928 34.9703C82.4596 35.6941 80.5433 36.056 78.4439 36.056Z" fill="#3992D3"/>
<path d="M107.483 20.2056H100.636V35.6941H96.0589V20.2056H89.1748V16.3696H107.483V20.2056Z" fill="#3992D3"/>
<path d="M118.09 16.1525C120.971 16.1525 123.168 16.8401 124.682 18.2152C126.22 19.5662 126.988 21.6169 126.988 24.3672V35.6941H122.668V33.3419C122.106 34.1863 121.301 34.8376 120.251 35.296C119.226 35.7303 117.981 35.9474 116.516 35.9474C115.051 35.9474 113.77 35.7062 112.671 35.2236C111.573 34.717 110.718 34.0294 110.108 33.1609C109.522 32.2683 109.229 31.2671 109.229 30.1573C109.229 28.4203 109.876 27.0331 111.17 25.9957C112.488 24.9341 114.551 24.4034 117.358 24.4034H122.411V24.1139C122.411 22.7629 121.996 21.7255 121.166 21.0017C120.361 20.2779 119.152 19.916 117.541 19.916C116.443 19.916 115.356 20.0849 114.282 20.4227C113.233 20.7604 112.342 21.2309 111.609 21.834L109.815 18.5409C110.84 17.7689 112.073 17.1778 113.513 16.7677C114.954 16.3575 116.479 16.1525 118.09 16.1525ZM117.468 32.6543C118.615 32.6543 119.628 32.401 120.507 31.8943C121.41 31.3636 122.045 30.6157 122.411 29.6507V27.407H117.688C115.051 27.407 113.733 28.2635 113.733 29.9764C113.733 30.7966 114.063 31.448 114.722 31.9305C115.381 32.413 116.296 32.6543 117.468 32.6543Z" fill="#3992D3"/>
<path d="M150.375 16.3696V35.6941H145.798V20.2056H138.475L138.292 24.0415C138.169 26.5988 137.925 28.746 137.559 30.483C137.217 32.1959 136.619 33.559 135.765 34.5723C134.935 35.5614 133.788 36.056 132.323 36.056C131.639 36.056 130.797 35.9233 129.796 35.6579L130.016 31.8581C130.358 31.9305 130.651 31.9667 130.895 31.9667C131.822 31.9667 132.518 31.6048 132.982 30.8811C133.446 30.1332 133.739 29.2526 133.861 28.2393C134.007 27.2019 134.129 25.7303 134.227 23.8244L134.557 16.3696H150.375Z" fill="#3992D3"/>
<path d="M166.353 22.7387C168.843 22.7387 170.747 23.2936 172.065 24.4034C173.408 25.5132 174.079 27.0813 174.079 29.1078C174.079 31.2309 173.347 32.8714 171.882 34.0294C170.418 35.1875 168.355 35.7544 165.694 35.7303L156.54 35.6941V16.3696H161.117V22.7025L166.353 22.7387ZM165.291 32.401C166.634 32.4251 167.659 32.1477 168.367 31.5686C169.075 30.9896 169.429 30.1452 169.429 29.0355C169.429 27.9498 169.087 27.1537 168.404 26.6471C167.72 26.1404 166.683 25.875 165.291 25.8509L161.117 25.8147V32.3648L165.291 32.401Z" fill="#3992D3"/>
<path d="M191.042 36.0555C188.455 36.0555 186.111 35.5006 184.012 34.3908C181.937 33.2569 180.301 31.7008 179.105 29.7226C177.933 27.7443 177.347 25.5127 177.347 23.0277C177.347 20.5428 177.945 18.3112 179.142 16.3329C180.338 14.3546 181.973 12.8106 184.048 11.7008C186.148 10.5669 188.491 10 191.079 10C193.178 10 195.095 10.3619 196.828 11.0856C198.561 11.8094 200.026 12.8589 201.222 14.234L198.146 17.0929C196.291 15.1146 194.008 14.1255 191.299 14.1255C189.541 14.1255 187.966 14.5115 186.575 15.2835C185.184 16.0314 184.097 17.0808 183.316 18.4318C182.535 19.7829 182.144 21.3148 182.144 23.0277C182.144 24.7407 182.535 26.2726 183.316 27.6236C184.097 28.9747 185.184 30.0362 186.575 30.8082C187.966 31.5561 189.541 31.93 191.299 31.93C194.008 31.93 196.291 30.9288 198.146 28.9264L201.222 31.8215C200.026 33.1966 198.549 34.2461 196.791 34.9698C195.058 35.6936 193.142 36.0555 191.042 36.0555Z" fill="#385490"/>
<path d="M213.258 27.9493H209.706V35.6936H205.129V16.3691H209.706V24.1858H213.368L219.154 16.3691H224.06L216.956 25.6695L224.536 35.6936H219.154L213.258 27.9493Z" fill="#385490"/>
<path d="M245.487 16.3691V35.6936H240.91V20.2051H233.587L233.404 24.041C233.282 26.5983 233.038 28.7455 232.671 30.4825C232.33 32.1954 231.732 33.5585 230.877 34.5718C230.047 35.5609 228.9 36.0555 227.435 36.0555C226.752 36.0555 225.909 35.9228 224.908 35.6574L225.128 31.8577C225.47 31.93 225.763 31.9662 226.007 31.9662C226.935 31.9662 227.63 31.6043 228.094 30.8806C228.558 30.1327 228.851 29.2521 228.973 28.2388C229.119 27.2014 229.242 25.7298 229.339 23.8239L229.669 16.3691H245.487Z" fill="#385490"/>
<path d="M258.939 16.152C261.819 16.152 264.016 16.8396 265.53 18.2147C267.068 19.5657 267.837 21.6164 267.837 24.3667V35.6936H263.516V33.3414C262.954 34.1858 262.149 34.8372 261.099 35.2955C260.074 35.7298 258.829 35.9469 257.364 35.9469C255.899 35.9469 254.618 35.7057 253.519 35.2232C252.421 34.7165 251.566 34.029 250.956 33.1604C250.37 32.2678 250.077 31.2666 250.077 30.1568C250.077 28.4198 250.724 27.0326 252.018 25.9952C253.336 24.9337 255.399 24.4029 258.206 24.4029H263.259V24.1134C263.259 22.7624 262.844 21.725 262.014 21.0012C261.209 20.2774 260 19.9156 258.389 19.9156C257.291 19.9156 256.204 20.0844 255.13 20.4222C254.081 20.76 253.19 21.2304 252.457 21.8335L250.663 18.5404C251.688 17.7684 252.921 17.1773 254.361 16.7672C255.802 16.3571 257.327 16.152 258.939 16.152ZM258.316 32.6538C259.463 32.6538 260.476 32.4005 261.355 31.8938C262.259 31.3631 262.893 30.6152 263.259 29.6502V27.4065H258.536C255.899 27.4065 254.581 28.263 254.581 29.9759C254.581 30.7961 254.911 31.4475 255.57 31.93C256.229 32.4125 257.144 32.6538 258.316 32.6538Z" fill="#385490"/>
<path d="M294.372 31.8577V40H290.088V35.6936H275.002V40H270.754V31.8577H271.67C272.915 31.8094 273.757 31.0253 274.196 29.5054C274.66 27.9614 274.965 25.7901 275.112 22.9916L275.368 16.3691H291.48V31.8577H294.372ZM279.286 23.3173C279.188 25.5368 279.005 27.3462 278.737 28.7455C278.468 30.1448 277.98 31.1821 277.272 31.8577H286.902V20.2051H279.396L279.286 23.3173Z" fill="#385490"/>
</svg>
