<svg width="290" height="51" viewBox="0 0 290 51" fill="none" xmlns="http://www.w3.org/2000/svg">
<path d="M22.9492 15.891C25.1205 14.8812 25.5737 14.7163 25.5737 14.7163C25.5737 14.7163 23.5711 17.5499 23.4762 18.9718C23.4762 18.9718 26.417 14.603 29.8742 11.1718C35.9137 5.18531 40.9731 5.83445 40.9731 5.83445C40.9731 5.83445 37.1259 4.40222 33.4052 5.18531C29.6844 5.9787 27.1653 7.68913 27.1653 7.68913C27.1653 7.68913 31.2866 6.60723 32.7833 7.48306C26.7226 8.49283 23.4868 12.3155 23.4868 12.3155C23.4868 12.3155 26.7437 10.8318 27.7134 11.6973C24.5092 13.078 22.9492 15.891 22.9492 15.891Z" fill="#2A8AEA"/>
<path d="M47.8551 16.6226C47.6759 15.5613 47.6759 14.5516 47.8445 13.4697C48.0132 12.429 47.7813 11.3265 47.7391 10.2549C47.8129 10.2652 47.9605 10.2652 48.2451 10.2858C47.328 9.54392 47.5389 8.90508 48.1818 8.23533C48.4559 7.94683 48.5929 7.54498 48.7404 7.13283C47.8129 7.74075 46.8537 8.02926 45.6416 7.885C45.9367 7.10191 46.2002 6.43217 46.4532 5.76242C46.4216 5.7109 46.39 5.66968 46.3583 5.61816C45.7997 6.00971 45.2305 6.36004 44.7035 6.7928C44.3241 7.11222 44.0079 7.12252 43.5441 6.94736C42.4057 6.5146 40.4242 6.76189 39.0118 7.09161C37.104 7.53467 35.3859 8.61657 33.71 9.86334C30.2318 12.4805 27.3332 15.6232 25.0249 19.2604C23.8338 21.1357 22.316 22.3413 20.4609 22.9595C20.5769 24.0826 20.7666 25.2263 21.0301 26.3597C21.8312 29.8218 23.233 32.9954 25.1197 35.6435C27.4491 35.2622 29.768 34.6852 32.0658 33.9433C32.5084 33.7991 33.0565 33.8815 33.5414 33.964C34.2265 34.0979 34.88 34.3658 35.5651 34.5101C36.7351 34.747 37.0091 35.4477 36.2397 36.3957C35.27 37.5909 34.2265 38.6213 32.382 38.3328C32.4557 38.7552 32.5084 39.0334 32.5611 39.3735C30.3055 37.8588 28.8404 38.5595 28.4188 41.2487C28.4715 41.3003 28.5137 41.3827 28.5664 41.3827C30.8642 41.4033 33.1514 42.31 35.4597 41.4548C35.797 41.3312 36.187 41.1972 36.5348 41.2281C38.5691 41.3621 39.5072 40.105 40.4136 38.6007C41.2463 37.22 42.332 35.9835 43.3122 34.6955C43.4387 34.5204 43.6495 34.3864 43.7022 34.1906C43.9025 33.5518 42.7641 31.5529 42.079 31.3468C40.6771 30.9346 39.2542 30.5534 37.8524 30.1515C37.8418 30.0588 37.8102 29.9558 37.8418 29.9249C39.3385 28.2763 39.5072 26.4937 38.938 24.3402C38.2529 21.7539 39.1699 18.1476 41.0566 15.8086C42.4374 16.9524 43.5336 18.0652 43.9657 19.6313C44.0816 20.0538 44.1449 20.4969 44.1871 20.9296C44.303 22.0218 44.7562 22.3722 45.8313 22.1455C46.8432 21.9291 47.8867 21.7333 48.1502 20.4969C48.1924 20.3114 48.2767 20.1156 48.2556 19.9302C48.1291 18.838 48.0553 17.7251 47.8551 16.6226ZM38.7483 37.0139C38.158 38.4358 36.9775 39.4044 35.8286 39.3425C36.8616 38.5079 37.7364 37.8176 38.7483 37.0139Z" fill="#2A8AEA"/>
<path d="M4.72459 29.945C2.12115 18.5902 5.92618 7.72997 13.4203 3.19629C3.45976 5.57647 -2.17928 17.8586 0.793074 30.8105C3.76543 43.7624 14.253 52.5 24.2873 50.4908C15.5284 49.5222 7.33858 41.2998 4.72459 29.945Z" fill="#2A8AEA"/>
<path d="M11.2808 28.5025C8.56141 16.6737 12.9672 5.39107 21.2835 1.56836C20.7143 1.63018 20.1452 1.71261 19.576 1.83626C9.45734 4.06188 3.68127 16.4471 6.68525 29.5123C9.68922 42.5775 20.3244 51.3564 30.4535 49.1411C31.0227 49.0174 31.5708 48.8629 32.1084 48.6671C22.9278 48.6877 14.0002 40.3313 11.2808 28.5025Z" fill="#2A8AEA"/>
<path d="M39.8591 44.7107C31.1212 46.6272 21.8247 38.6108 19.1053 26.7821C16.3859 14.9533 21.266 3.82517 30.0145 1.90866C33.6719 1.10496 37.4243 2.04261 40.755 4.26823C36.4967 0.826757 31.3847 -0.749726 26.3886 0.342478C16.27 2.5681 10.5044 14.9533 13.5084 28.0185C16.5124 41.0837 27.1581 49.8626 37.2767 47.6473C42.2623 46.5551 46.1938 42.9899 48.5443 38.0956C46.4994 41.4959 43.5165 43.907 39.8591 44.7107Z" fill="#2A8AEA"/>
<path d="M78.2694 34.3649H72.6549L65.1182 26.0649V34.3649H60.9199V17.3413H65.1182V25.2278L72.5335 17.3413H78.1683L69.8526 25.5405L78.2694 34.3649Z" fill="white"/>
<path d="M94.8911 34.362L93.6468 31.2255H85.4222L84.1779 34.362H79.7368L87.3039 17.3384H92.0181L99.5447 34.362H94.8911ZM86.6665 28.1093H92.4025L89.5194 20.9589L86.6665 28.1093Z" fill="white"/>
<path d="M117.25 17.3384H120.76V34.362H116.855V24.0954L112.1 31.397H109.905L105.15 24.0954V34.362H101.246V17.3384H104.928L111.099 27.0402L117.25 17.3384Z" fill="white"/>
<path d="M137.803 34.362L136.558 31.2255H128.334L127.09 34.362H122.648L130.215 17.3384H134.93L142.466 34.362H137.803ZM129.578 28.1093H135.314L132.431 20.9589L129.578 28.1093Z" fill="white"/>
<path d="M156.46 17.3397V21.0409H150.553V34.3734H146.354V21.0308H140.446V17.3296H156.46V17.3397Z" fill="white"/>
<path d="M163.218 30.9129H173.617V34.3721H159.03V17.3384H173.375V20.7976H163.228V24.0248H172.403V27.1915H163.228V30.9129H163.218Z" fill="white"/>
<path d="M175.658 34.3633L182.193 25.7002L175.901 17.3296H180.898L185.046 23.1487L189.194 17.3296H193.949L187.656 25.7002L194.191 34.3633H189.194L184.803 28.2316L180.342 34.3633H175.658Z" fill="white"/>
<path d="M196.513 34.362V17.3384H200.711V30.6709H208.906V17.3384H213.104V30.6709H215.299V37.2867H211.394V34.3721H196.513V34.362Z" fill="white"/>
<path d="M222.04 30.9129H232.439V34.3721H217.852V17.3384H232.197V20.7976H222.05V24.0248H231.225V27.1915H222.05V30.9129H222.04Z" fill="white"/>
<path d="M247.728 17.3384H251.926V34.362H247.728V27.3529H239.534V34.362H235.335V17.3384H239.534V23.6617H247.728V17.3384Z" fill="white"/>
<path d="M270.921 17.3397V21.0409H265.013V34.3734H260.815V21.0308H254.907V17.3296H270.921V17.3397Z" fill="white"/>
<path d="M273.891 34.362V17.3384H285.748C288.752 17.3384 289.996 18.5587 289.996 21.5741V24.7812C289.996 27.7966 288.752 29.0169 285.748 29.0169H278.089V34.3721H273.891V34.362ZM278.079 25.9006H284.109C285.404 25.9006 285.788 25.4871 285.788 24.1962V22.3002C285.788 21.0094 285.393 20.5959 284.109 20.5959H278.079V25.9006Z" fill="white"/>
</svg>
