<svg width="922" height="536" viewBox="0 0 922 536" fill="none" xmlns="http://www.w3.org/2000/svg">
<path d="M618.719 118.219L618.45 117.144L620.466 118.085L621.473 117.076L622.884 115.666L624.967 113.584L626.243 115.128H626.915L628.594 113.449L630.139 111.636L633.095 110.292L635.244 111.905L634.035 115.263V117.144L632.625 118.554L630.407 119.563L627.99 120.503H625.572L623.758 122.317L620.869 121.309L619.391 119.159L618.719 118.219Z" fill="#F3F4F6"/>
<path d="M613.748 121.04H609.449L608.038 122.451L605.821 123.996L604.209 122.383L600.313 123.592L600.582 126.011L601.59 127.019L603.067 128.497L604.076 129.504L602.597 130.714L600.582 128.967L599.507 130.041L598.029 128.563L594.67 129.236L593.192 128.43L592.521 130.176L593.596 131.25L591.58 132.326V134.878L593.193 136.49L592.789 138.372H594.267L596.149 140.253L595.61 142.403L598.029 143.612L601.253 143.746L602.597 145.089H605.015L607.837 144.283V142.134L606.09 140.521L607.031 139.581L608.441 140.991L610.927 136.491L613.278 134.14L614.286 135.147L616.436 132.998L617.107 130.982L614.689 130.176L613.077 131.789L611.062 130.31L608.643 128.832L606.224 127.086L607.031 125.34L608.307 124.063L609.315 127.488L610.859 129.034L613.479 129.504L615.092 128.832H616.436L617.778 127.489L617.107 124.667H614.958L615.495 122.249V120.503L613.748 121.04Z" fill="#F3F4F6"/>
<path d="M616.033 144.687L614.823 145.762L615.763 148.449L617.309 149.994L618.586 147.508V145.493L617.645 144.553L616.033 144.687Z" fill="#F3F4F6"/>
<path d="M621.541 147.105L619.996 148.651L620.87 150.733L622.348 152.211L621.406 154.36L622.214 155.167L623.423 152.614L626.512 151.942L629.2 150.867L632.827 148.717L630.946 145.224H628.393L624.766 144.015L623.086 145.56L621.541 147.105Z" fill="#F3F4F6"/>
<path d="M591.311 141.327L590.102 140.119L587.952 139.984L589.364 141.395L590.236 144.552H591.982V142.806L591.311 141.327Z" fill="#F3F4F6"/>
<path d="M524.132 193.591L521.648 196.077V197.756H523.729L524.402 199.368L526.148 198.562L528.164 196.547V193.322H525.612L524.132 193.591Z" fill="#F3F4F6"/>
<path d="M611.726 99.0059L610.92 100.484L611.794 101.357L612.802 100.484L611.726 99.0059Z" fill="#F3F4F6"/>
<path d="M604.202 157.719L601.649 157.181L600.844 157.853L602.322 158.524L604.202 160.002L605.008 158.928L604.202 157.719Z" fill="#F3F4F6"/>
<path d="M495.912 160.003L495.374 160.81L496.584 161.616L497.12 160.675L495.912 160.003Z" fill="#F3F4F6"/>
<path d="M490.135 148.046L488.792 148.852L490.673 149.793L492.016 150.733L493.494 150.33L493.091 148.584L491.613 148.986L490.135 148.046Z" fill="#F3F4F6"/>
<path d="M476.968 141.462V139.582L477.102 136.222L476.162 134.342L474.818 134.476L472.938 136.76L473.072 138.775L472.265 140.119L472.803 143.747L471.191 145.359L471.325 148.986L470.519 152.076L469.847 155.167L471.057 155.838L473.609 153.823L475.088 152.883L478.446 151.137L481.133 150.867L484.493 148.315L486.104 145.224L485.029 142.537L483.82 140.522L482.208 141.194L480.596 138.372L479.386 137.163L477.908 138.909L476.968 141.462Z" fill="#F3F4F6"/>
<path d="M464.876 127.086L463.667 128.564L462.592 130.58L461.651 130.177L462.323 127.624V124.937L459.367 125.877C459.367 125.877 457.621 126.28 457.218 126.415C456.815 126.549 454.799 127.221 454.799 127.221L453.858 129.237L453.321 130.983L452.112 132.461L452.515 134.208L450.231 135.954L451.306 136.895L452.918 136.357L454.262 138.238L454.396 139.984L455.605 141.462L458.695 141.73L459.098 143.477L461.248 142.134L462.323 143.88L465.278 144.955L468.1 143.611L469.444 141.73L468.369 139.58L466.622 137.161L467.966 136.22L468.503 133.937L467.831 131.384L468.1 128.831L464.876 127.086Z" fill="#F3F4F6"/>
<path d="M462.458 168.2L461.114 169.811L459.368 170.214L460.98 171.423L462.592 169.811L462.458 168.2Z" fill="#F3F4F6"/>
<path d="M440.021 167.662L439.349 168.736L440.289 169.543L441.499 167.795L440.021 167.662Z" fill="#F3F4F6"/>
<path d="M426.182 204.475L424.57 205.281C424.57 205.281 425.241 207.297 425.241 207.028C425.241 206.758 426.45 206.49 426.45 206.49L426.182 204.475Z" fill="#F3F4F6"/>
<path d="M414.629 192.383L413.15 193.591L413.956 195.204L415.299 194.935L414.629 192.383Z" fill="#F3F4F6"/>
<path d="M414.09 209.984L413.822 211.461H416.106L417.315 212.67L417.45 210.655L416.106 210.386L414.09 209.984Z" fill="#F3F4F6"/>
<path d="M406.298 130.311L405.491 131.117L406.432 131.655L407.91 132.729L408.313 131.385L406.298 130.311Z" fill="#F3F4F6"/>
<path d="M398.103 223.956L397.162 225.164L397.7 226.777L398.64 227.987L399.983 226.508L400.521 224.762L399.312 223.552L398.103 223.956Z" fill="#F3F4F6"/>
<path d="M391.251 228.524L389.772 230.002L388.16 231.345L389.638 232.42L390.847 231.345H392.729L394.475 229.733L392.863 228.121L391.251 228.524Z" fill="#F3F4F6"/>
<path d="M386.414 213.611L385.205 214.686L386.01 215.895L387.623 214.82L389.638 215.357L389.101 214.148L386.414 213.611Z" fill="#F3F4F6"/>
<path d="M380.233 218.985L379.562 220.731L380.636 221.672L381.845 220.194L380.233 218.985Z" fill="#F3F4F6"/>
<path d="M365.859 210.252L364.381 211.327L364.918 212.537L363.843 214.014L364.112 214.955L366.53 215.626L368.814 214.551L370.158 214.686V213.342L368.008 212.805L369.083 211.596L367.873 209.85L366.396 210.387L365.859 210.252Z" fill="#F3F4F6"/>
<path d="M307.549 231.479L305.399 232.554L303.787 233.092L304.19 236.585L304.458 238.467L305.936 238.869L306.474 241.69L309.296 241.959L310.236 239.676L308.892 237.392L309.027 234.839L307.549 231.479Z" fill="#F3F4F6"/>
<path d="M259.987 219.792L257.031 220.597L255.284 222.882L253.941 224.628L254.881 227.18L257.031 227.987L259.046 228.793L260.927 227.449L263.211 227.853L264.42 225.032L262.54 222.613L262.405 220.597L259.987 219.792Z" fill="#F3F4F6"/>
<path d="M172.925 221.672L172.388 222.478L173.328 223.687L174.537 222.478L172.925 221.672Z" fill="#F3F4F6"/>
<path d="M298.142 223.553H296.664L295.052 221.134L294.112 221.672L291.291 218.984L289.14 216.701L289.947 214.282L292.096 213.61L292.902 212.267L291.424 211.058L291.559 207.833L290.618 207.565L289.678 205.146L287.663 205.012L286.051 202.728L286.588 199.772L288.737 196.816L291.291 197.085L292.096 198.025L293.036 198.429L293.44 196.681L296.53 195.742L298.949 193.189L297.336 191.442L299.486 190.098L301.904 191.039L302.576 189.023V187.008H305.666L307.144 188.486L308.689 186.941L309.024 185.531L312.384 184.858L311.242 183.717L308.353 182.709V181.635L311.712 180.693L315.205 179.753L316.952 178.007H319.235V176.395L322.461 176.26L320.714 174.513L323.536 174.379L324.61 175.454L324.475 172.767L325.819 171.423L324.341 169.677L325.282 168.199L326.894 169.811H328.91V167.795L331.865 168.87L333.343 167.258L334.821 165.511H336.703L339.926 164.034L342.211 164.84H345.569L347.787 162.623L350.406 162.824L351.615 164.572H354.436L355.78 165.915L358.199 165.242H361.558L363.775 163.026L366.394 161.615L369.887 160.271H373.112L374.993 163.228V166.452L372.172 169.005L369.619 171.423L366.26 171.692L362.229 173.573L358.601 172.23L356.855 173.976L352.69 173.842H347.316L345.3 175.991H341.136L338.046 177.738L338.986 179.887L336.836 180.693L334.284 180.425H332L331.731 181.903L329.313 181.231V183.649L326.894 185.396L324.879 186.874V184.59L323.266 186.068L323.67 188.755H322.057L320.915 187.613V188.889V190.905L319.74 189.729L318.229 191.24L316.952 192.517H315.204L313.861 194.263L312.115 197.219H309.294L307.009 199.1V201.653L304.725 202.594L303.919 205.281L302.038 207.161V210.521L301.097 212.939L302.306 216.432L301.232 219.925L302.71 222.209L303.381 224.628L302.576 225.434L300.292 226.509V224.762L298.142 223.553Z" fill="#F3F4F6"/>
<path d="M417.593 112.918L416.483 113.14L415.762 113.861L416.872 114.972L418.371 114.472L419.259 113.584L417.593 112.918Z" fill="#F3F4F6"/>
<path d="M443.021 110.697L442.021 111.697L442.799 112.474L443.632 113.306L445.353 111.697V110.586L443.021 110.697Z" fill="#F3F4F6"/>
<path d="M453.68 109.254L453.347 111.475L451.348 112.363L448.35 114.362V117.137L449.572 118.359L447.962 119.968L446.907 122.023L448.35 124.022L448.905 126.02L451.459 128.241L453.791 126.02H455.345L457.677 124.688L460.453 123.8L459.676 121.135V117.804L461.341 116.36L459.954 114.972L457.122 112.141L456.123 109.92L453.68 109.254Z" fill="#F3F4F6"/>
<path d="M447.129 127.686L445.241 127.464L445.574 129.907V131.461L448.017 132.127L449.016 133.127L450.516 131.627L451.348 129.463L449.905 128.352L447.129 127.686Z" fill="#F3F4F6"/>
<path d="M417.483 184.536L416.761 185.257L417.705 186.091L419.259 185.646L417.483 184.536Z" fill="#F3F4F6"/>
<path d="M383.728 91.4883L382.617 91.8214L383.505 93.0428V94.1531H385.06V92.0435L383.728 91.4883Z" fill="#F3F4F6"/>
<path d="M383.395 100.926L382.617 102.148L379.73 102.703L377.843 103.702L379.286 104.368L378.62 105.923L379.841 106.256H382.284L384.228 104.312L385.671 102.869L385.171 100.704L383.395 100.926Z" fill="#F3F4F6"/>
<path d="M374.179 98.9276L373.568 99.5379L374.734 100.704L376.844 99.927V98.1504H375.622L374.179 98.9276Z" fill="#F3F4F6"/>
<path d="M372.569 102.425L370.958 100.593L369.737 101.815L368.849 103.591V105.812L370.736 106.145L371.18 107.477L373.512 106.922L375.012 105.423L376.122 104.313L376.732 102.481H375.067L372.569 102.425Z" fill="#F3F4F6"/>
<path d="M365.962 110.142L365.24 110.863V112.252H366.739L367.294 110.475L365.962 110.142Z" fill="#F3F4F6"/>
<path d="M362.853 104.48L362.075 103.702H359.633V105.368L358.3 106.7L359.078 107.478L361.742 106.922L362.742 107.922L365.073 107.367L365.74 105.812L367.405 106.367L366.517 104.369L365.018 102.869L362.853 104.48Z" fill="#F3F4F6"/>
<path d="M375.178 85.9365L374.512 87.269L375.678 88.4344L376.788 87.324L375.178 85.9365Z" fill="#F3F4F6"/>
<path d="M372.735 89.0454H370.958V91.0441L372.846 92.9317V94.4862L374.512 93.7089L373.512 91.5992L372.735 89.0454Z" fill="#F3F4F6"/>
<path d="M361.631 94.8193H360.077L359.744 95.1524L361.021 96.4289L361.631 94.8193Z" fill="#F3F4F6"/>
<path d="M362.964 97.373L361.91 98.4274L362.964 99.5938L364.185 99.4827L362.964 97.373Z" fill="#F3F4F6"/>
<path d="M363.963 92.4877V93.9312H365.518L365.185 92.2656L363.963 92.4877Z" fill="#F3F4F6"/>
<path d="M366.129 96.0957V97.3731H367.405L366.406 96.3737L366.129 96.0957Z" fill="#F3F4F6"/>
<path d="M367.405 99.0389L367.96 99.594L368.96 98.5947L367.405 99.0389Z" fill="#F3F4F6"/>
<path d="M368.96 93.1538V94.7083L370.292 94.8193V93.1538H368.96Z" fill="#F3F4F6"/>
<path d="M366.961 90.0449L367.738 91.4884L368.46 90.7662L367.738 90.0449H366.961Z" fill="#F3F4F6"/>
<path d="M352.638 99.3718L351.805 100.204L353.249 101.648L354.858 101.704V99.0387L353.748 97.5952L352.638 99.3718Z" fill="#F3F4F6"/>
<path d="M356.302 97.5952L356.857 99.1497H357.967V97.8173L356.302 97.5952Z" fill="#F3F4F6"/>
<path d="M350.084 88.7123L348.973 89.8227V91.0441L347.697 92.3205L345.42 90.711L343.533 91.7103V93.0427L341.201 91.3772L339.424 92.0434L339.979 94.7082L341.645 94.1531V95.9296L343.422 96.3738L345.032 94.7633L347.308 93.82L349.195 94.3751H351.971L353.97 92.3765L352.082 90.4889L353.36 89.2115L351.194 87.9351L350.084 88.7123Z" fill="#F3F4F6"/>
<path d="M343.755 85.9366H341.312L339.868 84.4932L338.869 86.4918L340.146 87.7683L340.646 89.2677L343.533 88.2684L344.532 89.2677L346.42 88.4905L347.197 89.2677V87.6022L345.92 86.3248H344.754L343.755 85.9366Z" fill="#F3F4F6"/>
<path d="M345.92 97.6504H344.976L345.309 99.0388L347.308 99.1498L345.92 97.6504Z" fill="#F3F4F6"/>
<path d="M346.308 100.593L345.309 101.593L346.086 102.37L347.974 102.814L346.753 101.593L346.308 100.593Z" fill="#F3F4F6"/>
<path d="M354.414 86.2695V87.713H355.524L356.635 86.6026L354.414 86.2695Z" fill="#F3F4F6"/>
<path d="M744.556 61.2867L745.74 56.9936L750.256 52.6259L755.289 47.592L757.584 45.2975L762.026 43.3726L765.208 41.5223L768.169 38.5617L771.205 35.5264L774.906 34.0456L777.571 30.1967L782.604 28.7159L785.269 25.9027L788.526 24.4219L790.599 23.2379L792.968 25.6069L796.372 24.5703L799.408 26.8647L801.406 24.8661L804.959 22.9412V21.1646L801.406 21.9046L797.261 21.6088L794.596 20.8688L795.484 18.204L798.297 16.279L795.928 15.6866V14.3541L797.557 14.5034L797.853 11.8385L799.334 9.76614L801.406 7.69377L804.959 6.36134H805.996L808.661 2.65985C808.661 2.65985 811.177 1.91991 812.066 1.03163C812.954 0.143343 812.066 3.54814 812.066 3.54814L813.991 5.17637L815.47 6.65714L813.842 10.0619C813.842 10.0619 816.063 10.0619 816.951 9.17365C817.84 8.28536 816.951 10.9502 816.951 10.9502V14.0592L813.546 16.2799L816.211 16.7241L817.84 15.0958L821.319 16.4283V14.8738L824.057 17.6124L825.982 20.5739L827.611 20.1298L829.239 18.0574V19.9823L830.276 22.3514H827.167V23.5354L829.683 24.2754L828.351 28.1243L824.946 28.4201L821.837 31.8249L820.209 35.3781L817.1 36.4147L814.879 35.5264H812.066L809.549 39.2279L810.659 41.4486V45.2238L808.217 47.6666L806.292 46.1858L804.367 47.6666H801.555L799.925 46.3342L798.446 45.4459L798.224 46.852L799.334 47.9624L798.001 48.5549L797.113 49.4432L799.703 49.8873V51.8859L801.702 53.8846L804.959 52.9963H807.18L807.328 55.8095L808.66 54.4771L810.955 56.7724L813.398 59.2152L814.582 63.5083L815.175 66.9131L812.806 70.762H810.585L807.476 72.0944L806.44 74.4626L808.957 73.426H810.585L808.217 76.2401L809.697 77.7199L811.622 76.98V74.1668L813.398 72.8344L816.581 72.7607L818.432 70.9103L819.32 69.4296L821.541 69.5779L823.318 69.2821L826.574 69.1338V71.2061H829.239L829.98 69.8H832.57L834.124 68.2455L836.049 67.9497L837.678 69.2821L840.047 67.5056L841.157 70.0967L843.304 72.2437V75.3527L840.342 76.5368L838.418 80.6806H835.309L834.421 82.013L837.9 84.3075L836.789 85.4178L839.307 89.2676L840.342 94.0049V99.3346L841.231 103.48L842.711 107.033L843.452 111.771L844.932 116.36L847.745 118.877V123.17L849.226 129.092L851.743 131.905L853.371 133.534L850.854 135.754L848.19 134.422L844.488 135.606L842.564 140.047L839.455 144.489L841.083 146.118L839.899 150.264V152.484L842.416 156.333V158.702L839.602 157.37L837.53 155.297L835.754 155.445L837.382 159.738V162.551L840.12 163.81L837.382 166.548H835.605V170.397L833.977 172.026L836.198 175.727L837.974 177.504L840.047 179.576L842.86 182.389L843.451 186.535L843.896 189.792L847.967 191.938L850.41 194.381H854.555L853.445 191.865V190.606L854.852 189.2L855.888 186.979L859.737 190.828L860.477 194.233L864.326 196.898L868.139 197.749L869.656 196.231H872.099L874.986 199.118L873.801 201.932L870.841 202.82L871.729 206.373L874.838 211.554L877.577 212.221L879.724 214.367L884.757 213.775L887.718 216.144L888.754 218.809L886.977 219.993L884.461 221.621L882.98 224.879L884.017 230.801L886.977 235.391L889.569 236.353L890.827 237.611L895.12 238.648V240.424L891.863 240.869V243.533L890.679 246.198L892.16 251.528L894.675 252.565L898.525 256.414L901.338 259.078L901.931 263.816L903.411 270.034L904.151 274.031V276.992L902.522 274.771H898.229L895.491 273.365L893.344 271.218H890.383L887.718 268.553L882.536 266.184L877.65 264.111L872.025 261.151L870.397 258.93L867.732 257.154L864.77 256.561L858.405 254.636L854.259 252.415L850.262 249.751L848.337 246.197L844.044 241.904L841.083 238.795L841.082 235.686L839.01 233.614L838.566 230.209L836.049 226.656L833.31 226.064V224.805L834.569 223.546L835.605 221.325L834.199 218.883L835.531 217.55L836.642 216.44L835.161 211.998L834.421 207.261L832.645 201.783L829.831 198.082L828.647 193.196L827.315 188.606L825.834 184.905L824.057 179.427L822.281 177.946L822.133 174.985L823.169 171.432V169.36V166.843L821.393 165.067L819.468 161.365H817.544L815.693 160.699L813.991 158.996L811.917 156.331L808.808 154.406V151.002L811.622 148.338L810.659 147.375L808.364 149.669L805.108 151.446V154.555L804.219 156.924L805.995 158.552L808.586 161.143L811.029 163.586H813.991L813.694 165.511L812.361 165.363L810.955 167.361L812.806 169.212V173.949L814.286 177.502L814.582 183.127L813.546 186.535L812.361 183.574L809.697 182.242L809.698 185.943L807.477 183.723L805.996 182.242L804.811 179.725L800.666 175.876L801.85 179.134L800.666 182.687H796.669V185.056L795.337 189.941L793.707 191.866L793.856 198.38L796.521 200.157L796.077 204.302L798.741 208.448V212.889L799.556 218.737L801.999 221.18V223.845L804.071 225.917L805.996 225.621L807.698 224.067L808.957 222.808H811.177L811.029 225.621L808.661 226.361V230.358L804.219 231.098L805.255 236.28L804.811 238.5L801.999 239.684V242.793L800.962 245.606C800.962 245.606 797.483 246.42 798.149 245.754C798.815 245.088 796.816 244.422 796.816 244.422V242.497L797.409 240.572L799.852 239.757L798.741 238.647L796.077 239.684L793.263 240.128V241.46L789.119 243.385L787.045 245.902L784.677 246.494L782.752 248.419L782.012 250.64L782.751 253.453L784.38 255.081L782.456 257.154L779.347 255.969L780.31 259.152L778.015 261.447L775.942 263.371H774.165L772.389 265L773.574 266.925L774.462 267.813L771.945 269.441H768.54L765.209 272.772L763.062 274.919L760.693 278.917L758.176 281.433L755.66 286.467L755.215 291.352L757.584 296.09L755.364 298.31L754.624 303.048L755.955 306.452L758.029 308.525L756.252 311.485V315.483V320.812L755.364 324.514V329.548L756.845 331.176V334.729V338.727L755.512 343.76V347.906L753.291 351.608V355.308L752.106 358.565L753.439 361.563H755.697L757.436 359.824H759.878L761.804 357.898L763.95 355.752L765.431 357.233L767.207 358.121V360.046L768.614 362.636L770.391 364.413L771.945 362.859V360.49L769.872 359.602V357.381L771.501 355.605V357.085L773.278 358.417L774.166 358.121L775.054 359.01V361.674V363.599L778.015 362.415V360.935L779.643 358.715L780.68 357.826L782.308 359.01L782.679 356.568L781.272 355.162L779.94 352.644L778.311 349.684L780.976 348.204L782.605 346.574L785.861 345.835H789.711L792.894 346.205L794.3 347.611C794.3 347.611 797.706 347.019 798.446 347.019C799.186 347.019 801.258 346.129 801.258 346.129L803.109 347.981L801.702 349.388L800.666 350.423L799.778 352.053H802.295H804.959L805.552 353.977L807.773 356.197L810.512 355.828L811.918 357.234L813.398 360.047L813.842 365.673L815.767 371.595L818.802 375.962L822.577 379.737L824.057 381.219L824.797 383.734L827.759 386.696L829.831 390.249L830.572 392.322L833.311 396.541L835.605 398.835V405.053L834.717 410.383L836.346 415.712L836.198 421.19L837.826 425.484L839.01 430.222L839.898 434.514L840.787 440.288V445.914L839.898 448.876V454.649V461.756L839.01 467.085L839.898 472.563L839.602 479.669V483.075L836.642 487.96L834.717 492.105L832.496 496.251H830.571L826.871 497.73L823.762 499.507L821.615 498.619V496.62L820.504 495.51L819.393 498.027V500.765L818.135 499.507L816.211 497.583V499.063L815.619 502.763L816.211 505.281L815.397 508.168L814.138 509.426V510.907V513.275L811.326 513.128L810.141 511.943L811.177 508.537L812.954 504.984V502.024L811.399 498.544L808.217 495.362L806.588 493.733L805.255 490.327L802.443 487.515L799.778 486.627L799.703 483.74L801.555 481.889L803.183 480.261V477.3L805.255 475.227L807.624 474.043L810.068 474.857L812.214 472.711L813.546 470.046L811.177 466.344L812.361 463.235L810.882 459.978L810.585 456.573L808.513 453.76L809.105 451.392L807.476 448.578L806.736 445.322L803.775 442.213L805.996 439.992V436.734L804.146 434.884L801.999 432.736L801.406 430.812H798.89L795.337 432.736L794.448 435.698L792.079 439.548L789.414 442.952L790.599 446.654L787.49 449.17L784.381 450.946L781.716 451.835L780.976 454.499H778.163L775.35 452.872L773.278 452.131V448.725L770.909 446.654L768.984 444.728L765.801 443.915L764.098 445.617L760.693 444.728L757.88 443.989L753.587 444.581H749.59L747.962 446.21L743.52 447.837L739.079 446.949L737.229 443.323L735.082 441.175C735.082 441.175 732.565 439.695 732.565 439.102C732.565 438.508 729.752 436.29 729.752 436.29L726.199 435.698L724.718 432.145L721.312 429.48L718.944 427.112L715.687 426.223L714.503 423.114L711.541 421.782L709.765 420.005L703.843 419.412H700.734L697.181 421.338L692.74 420.597L689.334 421.782H685.633L680.599 425.483L678.23 427.851L673.567 430.59L671.273 432.886L669.644 437.771L668.459 440.731L670.088 442.804L672.383 440.953L674.233 442.804L676.306 444.877L677.49 449.614L676.306 452.131L675.418 458.497V462.494L673.789 466.64L676.01 470.933L677.342 472.265V476.412L674.233 477.3L672.234 481.963L669.348 484.85L664.462 486.627L658.985 486.183L654.988 485.442L652.027 487.219L647.881 489.587L644.772 487.959L641.959 486.922L638.258 488.551L635.149 491.66L632.929 493.881L631.67 498.247L629.079 500.839L625.674 503.208L620.937 505.428L617.309 509.056L615.459 510.905H610.722L606.428 512.238H600.358L595.917 512.831L591.919 511.499L590.734 509.278L588.662 507.205H583.036L577.855 506.464L575.782 505.132L568.972 506.095H564.752L561.273 509.573L557.425 510.461L553.723 511.499L548.393 511.055L544.767 509.5L542.472 507.205L540.326 502.689L537.586 499.951L533.737 498.471H530.036L525.817 499.58L522.93 496.695H517.156L513.75 494.177L512.047 495.879L509.753 498.175L507.903 501.95L505.904 503.948L505.312 507.798L507.163 510.019V513.348L509.753 515.94V519.493L506.274 521.789L502.943 525.12H500.13H495.837L491.84 524.082L487.694 524.823L484.734 523.935L480.44 522.453L478.071 520.085L475.258 517.273L471.853 516.237L467.856 517.864L465.339 515.347L462.156 513.942L459.565 516.532H456.308L455.272 519.641H451.423L446.537 522.75L443.576 525.711H440.615L440.023 528.82L436.544 529.634L434.101 532.077L429.66 531.929L425.958 534.001L424.033 535.927L419.74 535.186L418.408 532.965L416.78 530.004L415.965 526.969L413.671 529.265L409.822 530.744L406.269 529.559L402.271 528.524V524.971L399.162 523.047L397.978 520.382L395.462 518.753L394.869 515.199L392.797 513.275L390.021 512.054L388.207 510.241H384.432L382.582 512.09L378.88 512.684L377.399 511.202L374.142 511.794L372.366 510.017L370.737 508.39V506.169L369.109 504.245L366.739 504.984L365.111 508.39L361.854 508.981L359.929 505.133L358.892 501.728L358.152 497.878L355.636 493.436V489.883L353.267 487.663V482.777L351.49 476.856L348.973 474.338L347.345 472.711L345.642 469.083L343.792 467.232L341.276 466.196V463.531H343.348L345.124 461.163L344.385 459.09H341.72L339.499 461.311L336.39 461.458L334.096 461.533L331.653 463.976L327.507 465.161L323.954 467.085L322.325 464.716L319.216 466.196H316.699L317.588 462.199L321.141 460.57V458.498H318.18L315.515 456.869L313.887 458.498L310.926 457.61L311.888 454.13L309.741 451.984L306.781 453.76L303.523 452.872L302.709 450.282L304.56 448.431V445.618L305.3 443.545L304.116 439.844L301.895 438.807H299.23L297.898 436.142H294.196L291.236 434.365L287.978 434.069L286.202 436.586H282.5L279.243 437.474L276.578 435.995L273.321 436.586H269.324L265.475 434.588H263.92L262.217 436.29L259.257 436.883L256.443 435.401H253.927L250.522 434.365L245.488 434.513L241.787 433.774L239.122 434.513L236.753 432.441L233.348 430.665H230.239L229.202 433.921L230.239 436.142L228.167 438.215L229.795 439.251L231.423 440.88L233.422 442.879L231.571 444.728H229.499L226.983 442.213L223.134 442.36L220.617 443.396L221.654 447.098L220.617 449.763L218.101 450.502L215.14 449.763L213.956 452.872L214.918 455.018L216.99 457.091L218.396 458.497L218.989 461.014L221.061 463.087L218.989 465.9L217.064 467.824H213.807L210.476 468.046L208.773 466.344L207.589 463.937H206.071L204.48 465.53H201.889L199.002 462.643L198.446 460.978L196.263 458.793V455.018L194.412 453.167H191.007L188.194 454.204L187.157 451.984L184.344 449.763L181.827 448.431L178.423 450.06L175.314 450.504L172.797 449.763L171.021 446.357L168.504 444.137L166.728 447.098H164.803V444.73L166.579 442.953L165.395 440.436L163.914 436.586L163.322 432.589L161.101 429.924L157.548 428.592L156.512 426.076L154.587 424.15L151.034 424.744H148.962V421.929L147.925 418.97L144.298 418.302L142.448 420.153L139.043 421.338L136.083 419.709H132.974L131.493 421.929H128.384H124.979L124.237 423.559L122.312 425.483L122.017 428.295L118.39 427.63L116.243 425.483V422.521L117.206 419.634L115.651 418.08H113.134L112.097 420.45L110.172 421.855H107.285L104.991 424.15L103.066 426.074V428.739L100.549 429.777L97.8846 429.627L95.9597 431.553L93.5906 433.181L94.5526 436.067L96.6996 438.215L95.8113 442.063L93.8864 443.989L95.8113 445.172L98.6245 447.837L100.401 449.614L99.6611 453.464L100.476 458.497V462.569L98.9212 464.123L97.4404 462.494L95.2197 462.199L95.5155 464.864L96.7742 467.454L98.6245 469.305L97.1437 470.785L94.6272 471.082H92.5549H90.9266H89.5942C89.5942 471.082 87.8176 471.304 86.4115 471.304C85.0053 471.304 85.3011 470.194 85.3011 470.194L83.0804 469.6L82.0447 468.565L79.3798 468.12V470.194L77.3075 471.082L74.7909 474.042H71.9777L68.8687 474.93L67.0549 474.449L65.5377 475.967V478.41L67.0922 479.965L67.9805 482.777L67.2405 485.589L66.5743 488.181L64.8715 489.883V490.919L63.3907 492.251L60.1334 497.581V501.728L61.0216 506.761L60.4292 510.611L60.725 515.347L57.1718 516.976L54.8028 515.94L51.398 517.123L48.1406 516.384L47.6965 513.57L46.0682 508.685L45.7724 505.132L43.4034 503.504V501.578L42.2193 498.469L40.1469 495.805L41.4794 493.584L42.3677 491.068L40.1469 488.698L39.407 486.033L36.8905 485.739L36.3726 484.184L34.5205 482.333L31.2632 481.889L29.1908 479.815L28.5984 475.079L26.526 473.153L27.1185 470.194L24.602 468.12L23.2695 464.716L21.0488 463.679L17.7915 461.458L16.7548 457.905L14.5341 454.501L13.7942 451.54L12.166 451.243L10.9819 449.763L9.50111 447.69L7.5762 447.986L6.39212 444.433L6.83626 437.624L6.24377 432.589L5.05969 430.073L3.57892 427.853L3.87472 423.411L2.09815 421.782L0.914062 419.414L1.80235 416.749L1.06241 413.787L2.69063 412.158L4.4672 411.863L6.83626 414.823L9.05697 415.564L10.0936 413.343L12.6101 412.308L16.0149 412.158H17.7915L20.0122 412.899L20.4563 409.199L19.2722 406.978L19.8647 405.052L21.6413 405.349L23.2695 406.534L25.0461 408.161L26.3785 406.829L28.4509 407.717L31.8557 408.161L34.3722 409.199L34.9647 406.534L33.1881 405.201L30.6716 404.608L29.0434 402.981L27.2668 402.387L29.4875 400.019L32.744 398.539L35.5572 399.722L38.0737 398.687L40.4427 401.204L43.9959 405.052L47.2532 401.796L49.4739 400.463L48.8814 397.205L50.9538 395.133L53.0262 395.43L52.8778 393.06L58.3559 392.321L59.3925 389.804L60.5766 388.324L58.0601 387.139V384.03L55.691 381.365L54.8028 377.959L52.582 376.627L50.213 373.962L51.1013 370.853L50.213 366.263L47.4007 364.192L44.1433 361.675L43.1067 358.27L40.886 356.493L40.1461 354.421L42.071 352.2L43.5517 348.943V345.834L41.9235 342.873L40.2953 340.357L41.7761 339.172L42.6643 336.952H44.4409L45.7733 335.768L46.81 331.77L47.1058 329.401L45.9208 326.441L44.2917 324.811L42.071 324.516L40.4427 322.739L39.1103 320.814L37.1117 322.516L35.5572 320.962L34.2247 318.741L35.5572 316.372L38.3704 313.559L40.2953 311.338L41.0352 308.673L43.2559 308.525L44.8842 310.301L45.7724 312.522L48.7331 313.56L51.5463 312.671L52.2862 309.711L53.1745 306.453L50.9538 304.233L52.4346 303.196L52.2862 300.679L53.1745 297.126L54.8028 293.277L55.9868 290.02L58.9475 289.132L59.9841 286.911L62.7973 284.542V279.508L60.2808 277.14L57.4676 276.4L58.3559 274.179L59.0958 271.81L57.0235 269.738L55.691 266.777L56.1352 264.705L58.9484 261.892L60.5766 258.931L59.8367 256.266L62.2057 255.674L65.7589 253.453V250.344L67.2396 248.567L70.9402 248.419L72.5685 246.494L72.7168 244.273L75.8258 243.089L78.3423 239.685L81.7471 239.833L84.7078 238.056L88.705 238.945L89.2975 236.724L90.63 235.391L93.1465 236.576L95.2188 238.796L98.4771 239.832L99.6611 242.497L100.845 245.457L102.622 243.681L102.326 239.388L99.6611 237.019V231.985L102.03 231.393L102.77 230.653L99.5128 229.321L97.5879 227.1L130.75 226.952L136.968 224.731V220.882L138.005 211.111H142.15L145.704 208.298V204.449L148.368 203.412V198.378L150.738 198.23L155.919 194.084L158.435 195.268L163.913 185.053L164.284 182.315L168.799 177.799H176.349L178.718 173.654V165.659L183.456 163.29L189.674 160.181L193.967 161.809H196.484L198.557 163.882L201.099 162.111L200.481 165.214L202.997 164.918L206.55 165.067V167.436L207.29 170.101L205.662 169.064L203.959 167.361L202.405 168.916L203.145 171.729V174.542L205.661 175.875L207.586 177.799V180.908L209.733 181.945V185.424L212.176 187.867L213.36 192.013V196.306L212.62 200.007L213.508 202.08L213.582 206.595L216.173 209.186L216.025 212.443L215.432 217.773L212.841 222.288L208.918 226.212H204.772L200.182 227.1L196.185 225.619L191.817 223.177L189.082 220.437V216.44L186.269 213.627L184.936 210.518L183.9 207.557L181.976 204.301L180.939 198.822L178.867 197.934L179.533 194.603L181.236 192.9L179.164 190.828L178.202 193.419L176.795 194.825L177.388 198.083L177.462 201.858L175.833 203.486L177.98 205.633L177.388 208.89L175.315 213.48L171.689 214.59L168.802 217.477L167.691 222.733L164.953 225.472L165.841 228.581L167.173 232.43L165.026 236.205L168.062 239.24L171.316 242.497L175.018 239.832L175.758 236.131L173.833 234.206L174.129 230.949V228.433L176.645 225.768H179.162L180.05 232.43L180.865 236.798L183.456 239.389L185.084 242.794L189.303 244.052L190.562 242.794L189.525 240.277L192.042 238.205L192.19 233.023L196.78 233.763L201.073 232.135L204.626 234.06L208.624 232.801H211.362L213.066 234.502L215.582 238.351L213.51 240.424V243.681L215.36 241.386L217.951 238.795L221.505 238.055L224.465 233.762V230.061L225.649 227.544L229.498 225.619V223.25L233.2 221.03V217.328L232.607 213.775H235.124L235.938 215.625L239.269 218.956L241.786 222.805V227.987L240.898 230.652L239.565 231.984L237.344 229.763L234.235 229.023L229.498 230.652V234.5L230.682 238.054V241.014L234.087 241.903L237.344 243.383L241.046 241.607V238.942L244.895 238.054L248.596 239.83L248.004 237.461L253.778 238.498L256.887 237.905L262.512 238.645H265.77L267.398 241.606H268.879V238.941L273.616 237.46H276.134L277.171 241.309H274.357L273.469 243.974L271.248 244.714L274.653 247.823H277.022L281.464 245.898L285.683 246.713L290.273 251.302L291.827 249.748H294.936L298.86 248.489L300.414 250.044L299.97 252.116L297.601 253.744V256.261L300.414 258.63L300.637 255.891L301.895 254.633L304.856 255.372V253.003L307.669 252.559L308.262 249.006L307.817 244.713L310.482 243.381L312.777 242.714L315.515 245.453L316.699 244.269L319.735 248.044L323.214 251.524L326.027 254.337L327.878 258.112L331.357 261.591L333.726 265.293L336.243 268.698V271.658L338.314 274.919L341.275 273.143V270.034L344.679 266.925L342.31 266.185L340.682 262.336L341.275 258.19L338.461 256.265L336.907 253.082L338.313 251.676L341.274 250.196V247.827L342.014 244.273L343.346 242.497V240.276L341.421 239.684L342.458 236.723L344.086 234.651L347.047 233.614L350.229 232.059L351.34 230.949L353.856 228.433L355.781 224.14L357.262 220.586L358.89 217.033L361.703 215.552L363.48 218.069H367.033L368.81 219.846H371.919L373.251 224.879L371.77 226.36L371.104 231.764L366.885 235.983L365.701 239.832L368.217 242.053L367.329 247.087L366.589 251.084L363.628 255.525L362.592 261.892L360.963 267.517L359.779 270.33L360.89 274.254L363.481 276.845L363.037 279.214L359.779 281.731L359.187 287.209L355.93 288.097L352.081 291.946L349.86 295.203L347.788 296.387L344.086 295.647L341.865 297.128L339.423 295.574L337.868 294.019L335.647 293.279V296.092L337.868 299.497L340.089 300.534L343.049 302.606L345.566 302.458L347.343 304.974H350.007C350.007 304.974 351.118 302.976 350.525 302.383C349.933 301.791 352.08 300.829 352.08 300.829H354.005L354.893 299.94L358.594 298.904L361.555 297.276V294.167L362.888 292.834L365.182 290.54L367.032 288.689L367.921 285.136L367.181 282.027L366.885 279.214L368.883 277.215L370.882 275.217H373.991L377.396 274.773L378.358 277.66L379.764 279.066L381.541 283.655L379.175 286.023L379.323 289.576V291.797L382.284 294.757L385.689 295.497V293.425L382.358 292.463L381.099 291.204V289.428L380.803 286.763L383.172 286.023L384.061 284.098L383.172 281.285L384.209 278.916L382.728 275.955L380.803 274.178L379.619 272.994L375.992 271.736L373.92 269.663L372.217 271.366L369.996 272.403L368.812 270.774H366.148L365.703 267.961L367.48 266.185L367.036 261.447L369.108 258.19L370.441 254.341L373.401 251.381L372.365 248.123L371.476 245.31L371.847 242.276L369.7 240.129L372.069 237.76L375.77 234.058H378.879L380.656 231.245L381.84 228.136L380.803 225.619L381.84 223.399H384.209L383.469 226.508V230.801L382.877 234.65L380.212 237.315V241.016V243.681L383.321 246.05L385.097 247.531L387.392 246.125L389.686 248.419L392.203 250.788V249.012L391.241 246.717L389.538 245.014L386.873 243.682V242.498L384.652 240.277L383.617 237.019L386.726 234.946L388.206 236.427L390.575 238.796L392.352 237.168L391.759 235.243L391.537 233.54L393.24 231.837L396.201 232.43L398.644 232.059L400.642 234.058L404.491 236.13L403.455 239.091L404.417 240.053L407.008 242.644H411.005L411.598 240.275L409.969 238.054L410.118 235.982L407.304 234.945L405.232 231.541L404.047 230.357L404.935 226.803L406.268 223.843L405.084 222.659L404.344 218.957L407.304 216.292H414.262L417.815 217.625V216.737H423.589L427.438 215.108H430.251L431.731 213.628L430.251 211.407L428.474 210.814L426.993 209.334C426.993 209.334 427.586 208.741 428.696 207.631C429.806 206.52 429.806 208.741 429.806 208.741L431.583 208.297L430.399 206.965L431.214 205.114L429.955 203.856L431.436 201.783L433.508 200.155L431.436 200.007L431.287 197.786L435.433 197.934L437.061 194.529L441.132 192.975L442.687 191.42L448.238 190.606L449.645 189.2L453.642 188.016L454.53 186.979L451.865 186.091L453.346 184.61L457.195 183.722L460.452 183.278L461.192 181.649L463.857 181.205L462.451 183.87V186.017L464.301 184.167L468.892 184.314L469.336 181.945L472.297 181.353L475.257 181.945L473.925 180.169L472.148 178.836L471.26 177.208H474.517L477.922 176.171H478.959L478.663 173.655L477.478 172.766V169.213L478.219 166.844L480.44 161.366L483.104 159.441L485.473 156.925L488.434 158.701L490.655 158.406L491.321 161.441L489.026 163.735L487.102 166.252L491.802 166.511L492.727 165.586H495.614L497.761 167.733L495.836 169.657C495.836 169.657 495.688 171.582 496.576 171.582C497.464 171.582 499.834 172.619 499.834 172.619L500.573 170.102L499.241 168.77L502.498 166.993H505.459L508.494 164.846L510.197 166.549L512.492 165.439L514.194 167.142L515.674 170.102L517.451 171.583L518.487 170.399L520.042 171.954L522.041 173.952L521.745 177.061L518.783 176.469L519.968 177.653L522.929 179.281L524.779 182.464L523.077 184.166V187.126L521.596 189.199L520.19 192.086L518.487 193.789L515.527 197.342V198.822L514.639 202.968L512.418 205.189L511.53 209.779L507.976 210.667L506.866 213.998L504.423 216.441L503.831 220.29L503.091 222.955L505.756 221.77L505.163 218.81L507.828 217.182C507.828 217.182 510.197 216.442 511.53 216.442C512.862 216.442 513.306 213.777 513.306 213.777L515.823 211.704L518.192 210.816L519.598 208.078L518.487 206.967L516.711 206.819L516.859 205.633L516.711 203.264L518.932 203.116H520.708L523.225 203.708L526.186 204.892L526.778 203.116L528.629 200.524L530.184 202.079V205.04L531.96 207.556H534.032L531.96 205.633L533.366 204.227L536.105 201.488L539.806 199.563L545.432 198.527L549.873 197.194L550.984 198.897L549.948 199.934L552.391 202.377H556.98L557.128 201.192L557.572 199.564L559.349 202.377L562.458 201.193L565.567 198.528C565.567 198.528 568.824 197.936 569.564 197.936C570.304 197.936 569.564 195.271 569.564 195.271L569.12 192.31L566.899 188.906L567.492 185.501L567.936 183.724L569.712 185.501L571.562 184.095L573.117 185.649L575.486 187.277L576.078 185.501L577.263 185.202L578.447 186.535L579.631 185.647C579.631 185.647 579.483 182.908 580.594 182.908C581.704 182.908 582 181.502 582 181.502L585.257 184.018L586.293 182.982L589.846 184.166L588.662 187.793H590.364L592.067 189.496V192.309L594.88 190.532L596.361 192.013V195.27L594.436 195.863L593.252 197.046L595.324 199.118C595.324 199.118 596.952 198.378 596.952 197.638C596.952 196.897 598.285 198.97 598.285 198.97V201.339L601.32 201.264L604.207 204.151L606.428 205.632L609.537 206.225L610.869 204.892L614.274 206.669L614.571 203.856L613.09 198.971L612.202 196.75V194.678L610.277 192.753V190.088L613.978 190.532L616.05 192.605L619.308 191.716H623.009L622.268 187.867L624.342 184.018L628.191 183.13L631.004 182.982L634.26 183.87V181.649L630.782 180.095L632.04 178.836L633.669 177.06L636.481 177.208L638.702 174.987L637.666 174.395L635.445 172.174L632.928 170.842V167.584L631.892 166.696L630.411 170.545L628.635 169.361V166.252L631.892 163.291L631.448 161.219L628.339 159.294L630.263 157.369H633.076L637.222 155.297L638.406 151.892L643.884 149.819L648.177 147.894C648.177 147.894 648.77 148.487 648.77 149.375C648.77 150.264 645.956 151.3 645.956 151.3L644.92 155.297L647.437 154.112L649.658 151.892L652.47 152.78L651.73 158.554L654.247 156.185V153.372L653.358 148.634L653.951 146.562L655.283 142.861L658.392 141.38L662.834 139.455L665.499 141.38C665.499 141.38 664.24 143.083 663.278 144.045C662.316 145.007 664.315 145.674 664.315 145.674H667.571L669.644 143.305C669.644 143.305 672.012 145.821 672.457 146.265C672.901 146.709 672.012 142.861 672.012 142.861L676.01 140.64L678.823 142.121L681.932 141.973L684.745 139.16L687.706 135.458V131.165L691.407 125.687L694.516 122.578L697.329 119.174L702.214 118.434L706.286 118.212L708.285 120.21L712.429 124.356L716.131 122.728L718.796 120.581H721.683L720.276 119.174V117.1L723.089 114.288V109.402L724.421 106.886H726.642L728.567 104.961V102L732.268 99.3355L733.157 95.7823L731.676 94.3016L732.268 92.525L730.196 89.5643L731.824 86.6028L733.379 85.0483L736.192 87.8615L734.045 90.0085L736.266 92.2292H739.67L742.039 91.3409L745.297 89.8601L748.258 89.1202L748.997 86.7511L748.109 84.3821L746.481 84.0863L741.447 81.8656L737.746 82.4581L736.858 80.3857H733.897V78.7575L734.637 75.9443L737.302 74.6118L737.598 71.5028L739.967 70.1704H742.039L741.151 67.6539L742.039 64.989L744.556 61.2867Z" fill="#F3F4F6"/>
<path d="M765.337 346.128L764.056 347.537V349.329V351.251L766.233 350.354L767.387 351.507L768.668 350.227L769.179 347.664L767.77 345.615L765.337 346.128Z" fill="#F3F4F6"/>
<path d="M800.946 332.934L799.921 333.191L799.154 331.013V329.091L802.484 329.988L804.149 330.756L805.046 332.806L806.839 334.6L810.042 335.24L810.81 337.289L814.396 339.595H816.317L817.854 341.772L819.135 345.231L821.12 347.216L824.899 351.123L827.332 351.764L830.663 353.045L833.865 355.863L838.221 358.296L841.038 360.73L844.754 362.652L847.955 364.573L850.006 366.238L853.592 367.647L853.08 369.313L851.8 370.593L849.366 371.361H847.445L847.957 374.051L847.445 375.972V377.509L849.622 380.84C849.622 380.84 851.673 383.144 851.287 383.529C850.902 383.914 851.416 387.5 851.416 387.5L853.082 389.166L855.643 391.729L857.821 393.138H861.151L863.072 395.058H865.249L866.402 397.492L869.221 397.621L870.95 395.891L873.96 397.621L875.754 399.927C875.754 399.927 876.396 401.463 875.754 401.463C875.113 401.463 871.655 399.798 871.655 399.798L870.182 401.271H866.916L865.892 403.897L866.532 406.458L868.581 408.508L870.118 411.839L868.069 413.504L866.403 411.455L864.226 409.276L860.383 405.69V403.256L857.822 400.695L855.389 398.261L853.723 396.084L851.673 392.112L849.111 389.679L846.421 388.142L843.859 387.373L841.68 382.762L836.941 376.23L833.099 372.386L829.897 369.185L827.078 365.342L825.285 362.397L820.418 360.219L816.575 358.554L814.269 358.297L811.195 354.07V352.149L807.864 348.818L806.071 345.488L802.484 344.335L803.381 341.773V339.852L806.327 340.748L806.839 338.186L805.111 336.458V335.497L803.413 333.798L800.946 332.934Z" fill="#F3F4F6"/>
<path d="M909.185 399.797L909.697 402.486L909.953 405.048L910.979 405.432V403.383L911.747 401.717V399.412L909.185 399.797Z" fill="#F3F4F6"/>
<path d="M918.023 401.334V402.486L919.688 403.383V401.461L918.023 401.334Z" fill="#F3F4F6"/>
<path d="M912.771 390.958L914.309 391.598L914.822 389.549L914.052 385.451L915.461 384.042L915.205 381.094L913.027 380.455L912.387 383.786L913.22 384.616L912.516 387.115L912.771 390.958Z" fill="#F3F4F6"/>
<path d="M916.614 374.049L915.974 374.69L916.486 376.869L917.511 375.331L916.614 374.049Z" fill="#F3F4F6"/>
<path d="M918.152 366.235L918.791 362.905L917.896 360.856L918.408 358.678L920.137 356.948L920.585 359.319L920.2 361.752L920.714 364.57L919.816 366.619L918.152 366.235Z" fill="#F3F4F6"/>
<path d="M845.266 172.303V175.121L845.01 177.682L846.547 178.707L847.572 179.988L847.7 182.293L849.75 183.062L849.238 180.757L848.34 178.963L849.238 176.017V172.431L846.803 171.406L845.266 172.303Z" fill="#F3F4F6"/>
<path d="M895.095 185.752L893.301 186.392L894.198 188.314H897.273H900.347L902.268 186.392L899.835 185.624L897.4 186.649L895.095 185.752Z" fill="#F3F4F6"/>
<path d="M903.935 280.157L903.166 282.462L901.949 283.679L903.358 285.088L904.19 286.817L903.935 289.123L903.806 292.069L905.151 293.414L906.624 292.581V289.507L907.969 288.163L906.88 285.536L905.087 283.743L905.215 281.438L903.935 280.157Z" fill="#F3F4F6"/>
<path d="M909.442 300.138V302.06L910.723 302.7L911.62 301.548L909.442 300.138Z" fill="#F3F4F6"/>
<path d="M919.818 337.67V340.489V342.794H921.612L921.099 340.617V339.207V337.542L919.818 337.67Z" fill="#F3F4F6"/>
<path d="M905.986 179.089L904.32 180.242L905.217 181.139L906.434 179.922L907.651 178.705L905.986 179.089Z" fill="#F3F4F6"/>
<path d="M736.463 25.0129L735.287 24.5723L734.259 25.6489L732.006 26.825L730.17 28.661L730.341 31.8198L729.557 32.6041L729.949 35.15L731.418 37.3049L732.936 40.8314L735.287 41.3209L736.878 39.7291L738.078 37.5501L736.757 36.1297L738.715 33.289L738.372 30.204V26.5309L736.463 25.0129Z" fill="#F3F4F6"/>
<path d="M2.13428 228.3L4.43849 228.817L6.41314 228.253L7.16552 226.795L8.95186 227.077L10.6218 228.747L10.692 231.027L12.0555 231.45L12.338 233.237L14.4539 233.613L14.9238 231.92L13.7726 230.768L14.7595 229.781L15.3946 230.416L17.4163 232.109V234.647L17.1338 236.857L18.3091 238.785L19.4851 239.584L19.908 242.453L18.874 244.616L13.9369 247.108L6.46022 238.221L2.13428 228.3Z" fill="#F3F4F6"/>
</svg>
