<svg width="30" height="40" viewBox="0 0 30 40" fill="none" xmlns="http://www.w3.org/2000/svg">
<path d="M14.9997 0C7.01178 0 0.513184 6.49859 0.513184 14.4864C0.513184 24.3995 13.4772 38.9526 14.0291 39.5673C14.5476 40.1447 15.4527 40.1437 15.9702 39.5673C16.5222 38.9526 29.4862 24.3995 29.4862 14.4864C29.486 6.49859 22.9875 0 14.9997 0ZM14.9997 21.7749C10.9808 21.7749 7.71123 18.5053 7.71123 14.4864C7.71123 10.4675 10.9808 7.19797 14.9997 7.19797C19.0185 7.19797 22.288 10.4676 22.288 14.4865C22.288 18.5054 19.0185 21.7749 14.9997 21.7749Z" fill="#2A8AEA"/>
</svg>
