<svg width="75" height="75" viewBox="0 0 75 75" fill="none" xmlns="http://www.w3.org/2000/svg">
<path d="M69.5564 32.8815C69.5564 21.0206 60.606 11.2258 49.1081 9.85645L43.0657 2.41935C41.8161 0.881855 39.9629 0 37.9814 0H30.1391C26.527 0 23.5887 2.93952 23.5887 6.55161C23.5887 8.06855 24.1198 9.54798 25.0827 10.7153L29.8935 16.5569C29.4895 16.9645 29.0939 17.3831 28.7177 17.8234L27.9907 18.6738L31.9984 22.6815C29.7 25.7153 28.4274 29.4448 28.4274 33.2661C28.4274 39.7101 31.9306 45.3375 37.1226 48.3871H11.4919V47.1774H9.07257V48.3871H5.44354V50.8065H9.07257V52.0161H11.4919V50.8065H18.75V55.6452H13.9113V64.1129C13.9113 66.1137 15.5395 67.7419 17.5403 67.7419H18.75V71.371C18.75 73.3718 20.3782 75 22.379 75H24.7984C26.7992 75 28.4274 73.3718 28.4274 71.371V67.7419H55.0403V71.371C55.0403 73.3718 56.6685 75 58.6693 75H61.0887C63.0895 75 64.7177 73.3718 64.7177 71.371V67.7419H65.9274C67.9282 67.7419 69.5564 66.1137 69.5564 64.1129V48.3871H63.5855C67.4056 44.1472 69.5564 38.6456 69.5564 32.8815ZM26.9504 9.17782C26.3431 8.44113 26.0081 7.50726 26.0081 6.55161C26.0081 4.27258 27.8613 2.41935 30.1403 2.41935H37.9827C39.2323 2.41935 40.4008 2.97581 41.1883 3.94597L45.8564 9.69194C44.8742 9.7125 43.9004 9.79476 42.9387 9.9375L39.3085 5.46895C38.9818 5.06734 38.498 4.83871 37.9814 4.83871H30.1403C29.1956 4.83871 28.4274 5.60685 28.4274 6.55161C28.4274 6.94113 28.5629 7.3246 28.8181 7.64032L33.6363 13.4903C32.9625 13.9331 32.3129 14.4121 31.6851 14.9262L26.9504 9.17782ZM40.2738 10.4927C38.706 10.9198 37.1915 11.5113 35.752 12.254L31.6367 7.25806H37.6452L40.2738 10.4927ZM31.304 18.5661C35.227 14.4411 40.65 12.0968 46.3524 12.0968C57.8129 12.0968 67.1371 21.421 67.1371 32.8815C67.1371 38.5839 64.7927 44.0069 60.6677 47.9298L48.5867 35.8488L47.7351 36.5903C47.2597 37.0052 46.4613 37.5 45.3629 37.5C43.3621 37.5 41.7339 35.8718 41.7339 33.871C41.7339 32.7714 42.2286 31.9754 42.6423 31.4988L43.3851 30.6484L31.304 18.5661ZM57.704 48.3871H54.8347C55.4286 48.0387 56.0008 47.6528 56.5524 47.2355L57.704 48.3871ZM30.8468 33.2661C30.8468 30.0835 31.8714 26.9746 33.727 24.4089L40.1516 30.8335C39.6073 31.7577 39.3145 32.804 39.3145 33.871C39.3145 37.2061 42.0278 39.9194 45.3629 39.9194C46.4286 39.9194 47.4762 39.6278 48.3992 39.0835L54.8238 45.5081C52.2593 47.3625 49.1504 48.3871 45.9677 48.3871C37.6294 48.3871 30.8468 41.6044 30.8468 33.2661ZM26.0081 50.8065H45.3629V50.7762C45.5649 50.7823 45.7633 50.8065 45.9677 50.8065C48.2625 50.8065 50.521 50.3371 52.621 49.477V55.6452H26.0081V50.8065ZM21.1693 50.8065H23.5887V55.6452H21.1693V50.8065ZM26.0081 71.371C26.0081 72.0387 25.4649 72.5807 24.7984 72.5807H22.379C21.7125 72.5807 21.1693 72.0387 21.1693 71.371V67.7419H26.0081V71.371ZM62.2984 71.371C62.2984 72.0387 61.7552 72.5807 61.0887 72.5807H58.6693C58.0028 72.5807 57.4597 72.0387 57.4597 71.371V67.7419H62.2984V71.371ZM67.1371 50.8065V64.1129C67.1371 64.7806 66.5939 65.3226 65.9274 65.3226H17.5403C16.8738 65.3226 16.3306 64.7806 16.3306 64.1129V58.0645H55.0403V50.8065H60.1234H61.0706H67.1371Z" fill="#3992D3"/>
<path d="M45.9679 14.5161C42.6183 14.5161 39.3304 15.4101 36.4586 17.1036L37.6877 19.1879C40.1868 17.7145 43.0501 16.9355 45.9679 16.9355C52.8473 16.9355 59.0276 21.2855 61.3465 27.7572L63.6243 26.9419C60.9618 19.5097 53.8659 14.5161 45.9679 14.5161Z" fill="#3992D3"/>
<path d="M64.2617 29.1387L61.9016 29.6685C62.042 30.2939 62.1472 30.935 62.2125 31.5762L64.6186 31.3282C64.5436 30.5951 64.4226 29.8572 64.2617 29.1387Z" fill="#3992D3"/>
<path d="M61.0887 53.2258C59.0879 53.2258 57.4597 54.8541 57.4597 56.8549C57.4597 58.8557 59.0879 60.4839 61.0887 60.4839C63.0895 60.4839 64.7177 58.8557 64.7177 56.8549C64.7177 54.8541 63.0895 53.2258 61.0887 53.2258ZM61.0887 58.0645C60.4222 58.0645 59.879 57.5226 59.879 56.8549C59.879 56.1871 60.4222 55.6452 61.0887 55.6452C61.7552 55.6452 62.2984 56.1871 62.2984 56.8549C62.2984 57.5226 61.7552 58.0645 61.0887 58.0645Z" fill="#3992D3"/>
</svg>
