<svg width="75" height="75" viewBox="0 0 75 75" fill="none" xmlns="http://www.w3.org/2000/svg">
<path d="M70.0029 26.8931H61.1386L61.0786 25.5989C61.0547 25.0816 60.7767 24.6112 60.3351 24.3405L58.1892 23.0253L59.5155 22.4165C60.2974 22.0575 60.6415 21.1292 60.2826 20.3471L58.7798 17.0733C58.5637 16.6029 58.1299 16.2708 57.6192 16.1853L54.8897 15.7283L56.0036 14.3421C56.5188 13.7011 56.4462 12.765 55.8383 12.2109L53.1522 9.76299C52.7694 9.41408 52.2403 9.27819 51.7368 9.39891L49.2894 9.98625L49.7966 8.61798C50.0958 7.8112 49.6828 6.91146 48.8758 6.61219L45.4985 5.35999C45.013 5.18007 44.4715 5.25198 44.0497 5.55262L41.7965 7.1596L41.604 5.39157C41.5148 4.57413 40.7975 3.96355 39.9802 4.00169L36.3499 4.16999C35.8325 4.19392 35.3622 4.47187 35.0915 4.91347L33.7763 7.05939L33.1675 5.73309C32.8085 4.95106 31.88 4.60681 31.0981 4.96597L28.7387 6.04904C28.3502 6.22733 28.0488 6.56174 27.9117 6.96629L26.7011 10.5371L25.0932 9.24483C24.4523 8.72967 23.516 8.80227 22.9621 9.41012L21.1917 11.3526C20.9039 11.6684 20.7569 12.0939 20.7888 12.5203L21.0544 16.0766L19.3691 15.4518C18.5626 15.1527 17.6627 15.5657 17.3633 16.3726L16.4607 18.8072C16.3122 19.2077 16.3355 19.6573 16.5247 20.0403L18.1937 23.4212L16.143 23.6445C15.3254 23.7334 14.7147 24.4466 14.7528 25.2683L14.8282 26.8929H5.99672C4.34435 26.8931 3 28.2374 3 29.8898V38.4247V50.598C3 52.2504 4.34435 53.5948 5.99672 53.5948H7.77351L5.42797 67.1625C5.16083 68.7081 6.35041 70.1249 7.92226 70.1249H10.0812C11.1835 70.1249 12.1515 69.4201 12.4901 68.3711L14.851 61.0566H61.1486L63.5096 68.3712C63.8482 69.4203 64.8162 70.1251 65.9186 70.1251H68.0775C69.6459 70.1251 70.8394 68.7115 70.5718 67.1627L69.6309 61.7195C69.5345 61.1616 69.0037 60.7871 68.4459 60.8839C67.8878 60.9804 67.5136 61.5109 67.6102 62.069L68.5511 67.512C68.6018 67.8058 68.3761 68.0743 68.0776 68.0743H65.9187C65.7094 68.0743 65.5256 67.9404 65.4614 67.7414L59.9566 50.686H65.6425L66.792 57.3352C66.8883 57.8922 67.4179 58.2675 67.9771 58.171C68.5352 58.0745 68.9093 57.544 68.8127 56.9859L67.7236 50.6861H70.0033C71.6557 50.6861 73 49.3417 73 47.6894V29.8898C72.9996 28.2374 71.6552 26.8931 70.0029 26.8931ZM19.1122 25.3844C20.1886 25.2671 20.822 24.113 20.3427 23.1421L18.4571 19.3222L19.1158 17.5454L21.0576 18.2653C22.1242 18.661 23.2411 17.8185 23.1565 16.6857L22.8495 12.5784L24.1676 11.1321C25.559 12.0869 26.161 13.2109 27.3769 12.8566C27.8657 12.7142 28.2549 12.3415 28.4185 11.8594L29.7862 7.82487L31.5084 7.03437L32.2959 8.74977C32.8149 9.88084 34.3917 9.9801 35.0449 8.91438L36.7045 6.20654L39.6154 6.07147L39.8486 8.21343C39.9777 9.39863 41.3343 10.0084 42.3063 9.31524L45.0294 7.37316L47.7038 8.36477L47.0475 10.1347C46.8467 10.6761 46.96 11.281 47.3434 11.713C47.7267 12.145 48.3138 12.3297 48.875 12.1948L51.9632 11.4538L54.1169 13.4165L52.7672 15.0959C52.0204 16.0254 52.5488 17.4158 53.7261 17.6128L57.0248 18.1651L58.2146 20.7573L56.499 21.5448C55.3657 22.0651 55.2716 23.6423 56.3345 24.2936L59.0423 25.9533L59.0859 26.8931H49.2284C49.2268 26.838 49.2257 26.7826 49.2232 26.728C48.9356 20.5257 43.6856 15.7397 37.4792 16.0252C31.5853 16.2988 26.9533 21.0912 26.7732 26.8929H16.881L16.8226 25.6335L19.1122 25.3844ZM37.756 21.9946C35.0612 22.1197 32.9295 24.2626 32.7528 26.8932H28.8236C28.9988 22.1738 32.7609 18.2975 37.5742 18.0741C42.6449 17.8392 46.9394 21.7515 47.1747 26.8233C47.1758 26.8462 47.1749 26.8702 47.1759 26.8932H43.2462C43.054 24.0504 40.616 21.8603 37.756 21.9946ZM41.1885 26.8931H34.8104C34.9815 25.3521 36.2545 24.1171 37.851 24.043C39.5491 23.9643 41.0036 25.2269 41.1885 26.8931ZM10.5385 67.7414C10.4742 67.9406 10.2905 68.0743 10.0812 68.0743H7.92226C7.62407 68.0743 7.39794 67.8061 7.4488 67.512L9.85476 53.5949H15.1046L10.5385 67.7414ZM60.4866 59.0058H15.513L17.2594 53.5948H27.7349C29.2832 53.5948 30.5429 52.335 30.5429 50.7867V50.686H36.9744V51.0957C36.9744 53.91 39.2642 56.1998 42.0785 56.1998C44.8928 56.1998 47.1826 53.91 47.1826 51.0957V50.686H57.8012L60.4866 59.0058ZM30.5429 48.6352V43.9668H35.1416C36.1523 43.9668 36.9745 44.789 36.9745 45.7998V48.6352H30.5429ZM39.0252 51.0957V50.686H45.132V51.0957C45.132 52.7792 43.7622 54.149 42.0786 54.149C40.395 54.149 39.0252 52.7794 39.0252 51.0957ZM70.9488 47.6892C70.9488 48.2108 70.5244 48.6352 70.0029 48.6352C69.0003 48.6352 39.7179 48.6352 39.0252 48.6352V45.7998C39.0252 43.6582 37.283 41.916 35.1414 41.916H30.5428V40.2073C30.5428 38.659 29.2831 37.3993 27.7347 37.3993H14.2619C13.6956 37.3993 13.2365 37.8584 13.2365 38.4247C13.2365 38.991 13.6956 39.4501 14.2619 39.4501H27.7347C28.1523 39.4501 28.492 39.7898 28.492 40.2073V50.7867C28.492 51.2043 28.1523 51.544 27.7347 51.544C25.1676 51.544 8.24313 51.544 5.99658 51.544C5.475 51.544 5.05063 51.1196 5.05063 50.598V39.4501H9.46813C10.0344 39.4501 10.4935 38.991 10.4935 38.4247C10.4935 37.8584 10.0344 37.3993 9.46813 37.3993H5.05077V29.8898C5.05077 29.3682 5.47514 28.9438 5.99672 28.9438H70.0029C70.5244 28.9438 70.9488 29.3682 70.9488 29.8898V47.6892Z" fill="#3992D3"/>
<path d="M7.9278 45.4969C7.9278 47.6662 9.69269 49.4311 11.862 49.4311C14.0313 49.4311 15.7962 47.6662 15.7962 45.4969C15.7962 43.3276 14.0313 41.5627 11.862 41.5627C9.69269 41.5627 7.9278 43.3276 7.9278 45.4969ZM13.7456 45.4969C13.7456 46.5354 12.9006 47.3804 11.8621 47.3804C10.8236 47.3804 9.9787 46.5354 9.9787 45.4969C9.9787 44.4584 10.8236 43.6135 11.8621 43.6135C12.9006 43.6135 13.7456 44.4584 13.7456 45.4969Z" fill="#3992D3"/>
<path d="M21.681 49.4314C23.8503 49.4314 25.6152 47.6665 25.6152 45.4972C25.6152 43.3279 23.8503 41.563 21.681 41.563C19.5117 41.563 17.7468 43.3279 17.7468 45.4972C17.7468 47.6665 19.5117 49.4314 21.681 49.4314ZM21.681 43.6138C22.7195 43.6138 23.5644 44.4587 23.5644 45.4972C23.5644 46.5357 22.7195 47.3806 21.681 47.3806C20.6425 47.3806 19.7976 46.5357 19.7976 45.4972C19.7976 44.4587 20.6425 43.6138 21.681 43.6138Z" fill="#3992D3"/>
</svg>
