<svg width="75" height="75" viewBox="0 0 75 75" fill="none" xmlns="http://www.w3.org/2000/svg">
<path d="M19.3334 48.1667C15.4728 48.1667 12.3334 51.3062 12.3334 55.1668C12.3334 59.0273 15.4728 62.1668 19.3334 62.1668C23.1939 62.1668 26.3334 59.0273 26.3334 55.1668C26.3334 51.3062 23.1938 48.1667 19.3334 48.1667ZM19.3334 59.8334C16.7596 59.8334 14.6667 57.7404 14.6667 55.1668C14.6667 52.593 16.7598 50.5001 19.3334 50.5001C21.907 50.5001 24 52.5932 24 55.1668C24 57.7404 21.907 59.8334 19.3334 59.8334Z" fill="#3992D3"/>
<path d="M59.0001 48.1667C55.1396 48.1667 52.0001 51.3062 52.0001 55.1668C52.0001 59.0273 55.1396 62.1668 59.0001 62.1668C62.8607 62.1668 66.0002 59.0273 66.0002 55.1668C66.0002 51.3062 62.8607 48.1667 59.0001 48.1667ZM59.0001 59.8334C56.4264 59.8334 54.3335 57.7404 54.3335 55.1668C54.3335 52.593 56.4265 50.5001 59.0001 50.5001C61.5739 50.5001 63.6668 52.5932 63.6668 55.1668C63.6668 57.7404 61.5739 59.8334 59.0001 59.8334Z" fill="#3992D3"/>
<path d="M72.8146 41.7024L62.3146 25.369C62.0999 25.0353 61.7301 24.8335 61.3333 24.8335H48.5001C47.8549 24.8335 47.3335 25.3562 47.3335 26.0001V55.1668C47.3335 55.812 47.8549 56.3334 48.5001 56.3334H53.1667V54.0001H49.6667V27.1669H60.6964L70.6668 42.6766V54.0003H64.8334V56.3336H71.8334C72.4786 56.3336 73 55.8121 73 55.167V42.3335C73.0001 42.1107 72.936 41.8902 72.8146 41.7024Z" fill="#3992D3"/>
<path d="M54.3338 40V31.8334H63.6672V29.5H53.1672C52.522 29.5 52.0006 30.0227 52.0006 30.6666V41.1667C52.0006 41.8118 52.522 42.3333 53.1672 42.3333H70.6672V39.9999H54.3338V40Z" fill="#3992D3"/>
<path d="M48.5001 16.6667H4.16662C3.52268 16.6667 3 17.1894 3 17.8334V55.1669C3 55.812 3.52268 56.3335 4.16662 56.3335H13.5V54.0001H5.33339V19H47.3335V54.0001H25.1667V56.3335H48.5001C49.1453 56.3335 49.6667 55.812 49.6667 55.1669V17.8334C49.6667 17.1894 49.1453 16.6667 48.5001 16.6667Z" fill="#3992D3"/>
<path d="M11.1667 49.3335H4.16667V51.6669H11.1667V49.3335Z" fill="#3992D3"/>
<path d="M47.3335 49.3335H27.5001V51.6669H47.3335V49.3335Z" fill="#3992D3"/>
<path d="M71.8335 49.3335H67.1668V51.6669H71.8335V49.3335Z" fill="#3992D3"/>
<path d="M48.5002 21.3333H7.66667V23.6666H48.5002V21.3333Z" fill="#3992D3"/>
<path d="M20.5001 54H18.1667V56.3334H20.5001V54Z" fill="#3992D3"/>
<path d="M60.1669 54H57.8335V56.3334H60.1669V54Z" fill="#3992D3"/>
<path d="M24.0001 12H7.66667V14.3334H24.0001V12Z" fill="#3992D3"/>
<path d="M5.33338 12H3V14.3334H5.33338V12Z" fill="#3992D3"/>
</svg>
