<?xml version="1.0" encoding="utf-8"?><svg xmlns="http://www.w3.org/2000/svg" xmlns:xlink="http://www.w3.org/1999/xlink"><symbol viewBox="0 0 256 512" class="asvg-inline--fa afa-chevron-right afa-w-8 afa-2x" id="arrow" xmlns="http://www.w3.org/2000/svg"><path d="M24.707 38.101L4.908 57.899c-4.686 4.686-4.686 12.284 0 16.971L185.607 256 4.908 437.13c-4.686 4.686-4.686 12.284 0 16.971L24.707 473.9c4.686 4.686 12.284 4.686 16.971 0l209.414-209.414c4.686-4.686 4.686-12.284 0-16.971L41.678 38.101c-4.687-4.687-12.285-4.687-16.971 0z"/></symbol><symbol viewBox="0 0 20 21" id="basket" xmlns="http://www.w3.org/2000/svg"><g clip-path="url(#bclip0)"><path d="M18.927 3.768a2.492 2.492 0 00-1.919-.89H3.535l-.035-.29a2.474 2.474 0 00-.821-1.564 2.511 2.511 0 00-1.66-.627H.832a.837.837 0 00-.589.242.824.824 0 000 1.17.837.837 0 00.59.242h.184c.204 0 .401.074.554.209.153.134.25.32.274.52l1.147 9.675a4.124 4.124 0 001.369 2.607 4.186 4.186 0 002.769 1.045h8.702a.837.837 0 00.59-.242.823.823 0 000-1.17.837.837 0 00-.59-.242H7.131a2.513 2.513 0 01-1.44-.457 2.482 2.482 0 01-.91-1.196h9.933c.977 0 1.923-.34 2.673-.962a4.127 4.127 0 001.428-2.44l.654-3.6a2.457 2.457 0 00-.542-2.03zm-1.094 1.737l-.655 3.6a2.476 2.476 0 01-.858 1.465 2.512 2.512 0 01-1.606.576H4.516l-.784-6.615h13.276a.839.839 0 01.643.295.824.824 0 01.182.68zm-12 14.736c.92 0 1.667-.74 1.667-1.653a1.66 1.66 0 00-1.667-1.654c-.92 0-1.667.74-1.667 1.654a1.66 1.66 0 001.667 1.653zm8.334 0c.92 0 1.666-.74 1.666-1.653a1.66 1.66 0 00-1.666-1.654c-.92 0-1.667.74-1.667 1.654a1.66 1.66 0 001.667 1.653z"/></g><defs><clipPath id="bclip0"><path transform="translate(0 .397)" d="M0 0h20v19.844H0z"/></clipPath></defs></symbol><symbol viewBox="0 0 16 16" id="call" xmlns="http://www.w3.org/2000/svg"><g clip-path="url(#cclip0)"><path d="M14.716 10.502c-.98 0-1.941-.153-2.853-.454-.446-.153-.995-.013-1.268.267l-1.799 1.358C6.71 10.56 5.424 9.275 4.326 7.204l1.318-1.752c.343-.342.465-.842.318-1.31a9.098 9.098 0 01-.456-2.858C5.506.576 4.93 0 4.222 0H1.284C.576 0 0 .576 0 1.284 0 9.398 6.602 16 14.716 16c.708 0 1.284-.576 1.284-1.284v-2.93c0-.708-.576-1.284-1.284-1.284z"/></g><defs><clipPath id="cclip0"><path d="M0 0h16v16H0z"/></clipPath></defs></symbol><symbol viewBox="0 0 344.96 344.96" id="check" xmlns="http://www.w3.org/2000/svg"><g data-name="Слой 2"><path d="M321.85 86.24l-40-23.11-23.1-40H212.5L172.48 0l-40 23.11H86.24l-23.11 40-40 23.1v46.21L0 172.48l23.11 40v46.21l40 23.11 23.11 40h46.21l40 23.1 40-23.11h46.21l23.11-40 40-23.11V212.5l23.11-40-23.11-40V86.24zM156.91 243.07a16.79 16.79 0 01-23.34 0l-50.45-50.44a16.19 16.19 0 010-22.89l13.35-13.35a16.19 16.19 0 0122.89 0l25.87 25.87 80.34-80.35a16.19 16.19 0 0122.89 0l13.35 13.35a16.19 16.19 0 010 22.89z" data-name="Capa 1"/></g></symbol><symbol viewBox="0 0 12 12" id="chevron-left" xmlns="http://www.w3.org/2000/svg"><path d="M2.666 5.532l5.34-5.34A.652.652 0 018.472 0a.65.65 0 01.464.192l.393.393a.657.657 0 010 .928L4.844 5.998l4.49 4.489a.652.652 0 01.19.464c0 .176-.067.34-.19.464l-.394.393a.652.652 0 01-.464.192.652.652 0 01-.464-.192L2.666 6.463a.653.653 0 01-.191-.465c0-.177.068-.342.191-.466z"/></symbol><symbol viewBox="0 0 12 12" id="chevron-right" xmlns="http://www.w3.org/2000/svg"><path d="M9.334 5.532L3.994.192A.652.652 0 003.528 0a.652.652 0 00-.464.192l-.393.393a.657.657 0 000 .928l4.484 4.485-4.49 4.489a.652.652 0 00-.19.464c0 .176.067.34.19.464l.394.393a.652.652 0 00.464.192.65.65 0 00.464-.192l5.346-5.345a.653.653 0 00.191-.465.652.652 0 00-.191-.466z"/></symbol><symbol viewBox="0 0 20 20" id="close" xmlns="http://www.w3.org/2000/svg"><path d="M20 2l-2-2-8 8-8-8-2 2 8 8-8 8 2 2 8-8 8 8 2-2-8-8 8-8z"/></symbol><symbol viewBox="0 0 10 11" id="compass" xmlns="http://www.w3.org/2000/svg"><g clip-path="url(#hclip0)"><path d="M9.878.81a.42.42 0 00-.453-.09L.26 4.44a.413.413 0 00.083.79l4.3.776.782 4.266a.415.415 0 00.41.34c.167 0 .32-.101.385-.258l3.75-9.095A.411.411 0 009.878.81z"/></g><defs><clipPath id="hclip0"><path transform="translate(0 .689)" d="M0 0h10v9.922H0z"/></clipPath></defs></symbol><symbol viewBox="0 0 24 24" id="fb" xmlns="http://www.w3.org/2000/svg"><path d="M13.397 20.997v-8.196h2.765l.411-3.209h-3.176V7.548c0-.926.258-1.56 1.587-1.56h1.684v-2.86A22.108 22.108 0 0014.201 3c-2.444 0-4.122 1.492-4.122 4.231v2.355H7.332v3.21h2.753v8.201h3.312z"/></symbol><symbol viewBox="0 0 24 24" id="instagram" xmlns="http://www.w3.org/2000/svg"><path d="M11.999 7.377a4.624 4.624 0 100 9.248 4.624 4.624 0 000-9.248zm0 7.627a3.004 3.004 0 110-6.008 3.004 3.004 0 010 6.008zm4.807-6.719a1.078 1.078 0 100-2.156 1.078 1.078 0 000 2.156z"/><path d="M20.533 6.11A4.605 4.605 0 0017.9 3.48a6.607 6.607 0 00-2.186-.42c-.963-.042-1.268-.054-3.71-.054s-2.755 0-3.71.054a6.554 6.554 0 00-2.184.42 4.6 4.6 0 00-2.633 2.63 6.585 6.585 0 00-.419 2.186c-.043.962-.056 1.267-.056 3.71 0 2.442 0 2.753.056 3.71.015.748.156 1.486.419 2.187a4.61 4.61 0 002.634 2.632 6.583 6.583 0 002.185.45c.963.042 1.268.055 3.71.055s2.755 0 3.71-.055a6.616 6.616 0 002.186-.42 4.613 4.613 0 002.633-2.632c.263-.7.404-1.438.419-2.186.043-.962.056-1.267.056-3.71s0-2.753-.056-3.71a6.583 6.583 0 00-.421-2.217zm-1.218 9.533a5.046 5.046 0 01-.311 1.688 2.987 2.987 0 01-1.712 1.71c-.535.2-1.1.305-1.67.312-.95.044-1.218.055-3.654.055-2.438 0-2.687 0-3.655-.055a4.961 4.961 0 01-1.67-.311 2.984 2.984 0 01-1.718-1.711 5.08 5.08 0 01-.311-1.67c-.043-.95-.053-1.217-.053-3.653 0-2.437 0-2.686.053-3.655a5.038 5.038 0 01.311-1.687c.305-.79.93-1.41 1.719-1.712a5.01 5.01 0 011.669-.311c.95-.043 1.218-.055 3.655-.055s2.687 0 3.654.055a4.96 4.96 0 011.67.31 2.99 2.99 0 011.712 1.713 5.06 5.06 0 01.311 1.669c.043.95.054 1.218.054 3.655 0 2.436 0 2.698-.043 3.654h-.011v-.001z"/></symbol><symbol viewBox="0 0 20 20" id="loading" xmlns="http://www.w3.org/2000/svg"><path d="M5.908 10a.91.91 0 00-.91-.91H1.363a.91.91 0 000 1.819H5a.91.91 0 00.909-.91zm12.726-.91h-1.819a.91.91 0 000 1.819h1.819a.91.91 0 100-1.818zm-8.182-3.635a.91.91 0 00.91-.91V.91a.91.91 0 00-1.819 0v3.636c0 .503.407.91.91.91zm.004 9.09a.91.91 0 00-.91.91v3.636a.91.91 0 001.82 0v-3.637a.91.91 0 00-.91-.909zM4.67 2.929a.91.91 0 00-1.287 1.285l2.572 2.572a.906.906 0 001.285 0 .91.91 0 000-1.286L4.67 2.93zm10.28 10.285a.91.91 0 00-1.285 1.286l2.571 2.571a.906.906 0 001.286 0 .909.909 0 000-1.285l-2.572-2.572zm-8.995 0l-2.572 2.571a.909.909 0 101.286 1.286L7.24 14.5a.91.91 0 00-1.285-1.286z"/></symbol><symbol viewBox="0 0 290 51" id="logo" xmlns="http://www.w3.org/2000/svg"><path d="M22.95 15.891c2.17-1.01 2.624-1.175 2.624-1.175s-2.003 2.834-2.098 4.256c0 0 2.941-4.369 6.398-7.8 6.04-5.987 11.1-5.338 11.1-5.338s-3.848-1.432-7.569-.649c-3.72.794-6.24 2.504-6.24 2.504s4.122-1.082 5.618-.206c-6.06 1.01-9.296 4.833-9.296 4.833s3.257-1.484 4.226-.619c-3.204 1.381-4.764 4.194-4.764 4.194z"/><path d="M47.855 16.623a9.59 9.59 0 01-.01-3.153c.168-1.041-.064-2.144-.106-3.215.074.01.222.01.506.03-.917-.741-.706-1.38-.063-2.05.274-.288.41-.69.558-1.102-.927.608-1.886.896-3.098.752.295-.783.558-1.453.811-2.123-.031-.051-.063-.092-.095-.144-.558.392-1.127.742-1.654 1.175-.38.32-.696.33-1.16.154-1.138-.432-3.12-.185-4.532.145-1.908.443-3.626 1.525-5.302 2.771a35.469 35.469 0 00-8.685 9.397c-1.191 1.876-2.709 3.081-4.564 3.7a27.58 27.58 0 00.57 3.4c.8 3.462 2.202 6.635 4.089 9.284a47.711 47.711 0 006.946-1.7c.442-.145.99-.063 1.475.02.686.134 1.339.402 2.024.546 1.17.237 1.444.938.675 1.886-.97 1.195-2.014 2.225-3.858 1.937.074.422.126.7.18 1.04-2.256-1.514-3.722-.813-4.143 1.876.052.051.095.134.147.134 2.298.02 4.585.927 6.894.072.337-.124.727-.258 1.075-.227 2.034.134 2.972-1.123 3.879-2.627.832-1.381 1.918-2.617 2.898-3.905.127-.176.338-.31.39-.505.2-.64-.938-2.638-1.623-2.844-1.402-.412-2.825-.794-4.227-1.196-.01-.092-.042-.195-.01-.226 1.497-1.649 1.665-3.431 1.096-5.585-.685-2.586.232-6.192 2.119-8.531 1.38 1.143 2.477 2.256 2.909 3.822.116.423.179.866.221 1.299.116 1.092.57 1.442 1.644 1.215 1.012-.216 2.056-.412 2.32-1.648.041-.186.126-.381.105-.567-.127-1.092-.2-2.205-.4-3.307zm-9.107 20.39c-.59 1.423-1.77 2.391-2.92 2.33 1.034-.835 1.908-1.525 2.92-2.33zM4.725 29.945C2.12 18.59 5.926 7.73 13.42 3.196 3.46 5.576-2.18 17.86.793 30.81c2.972 12.952 13.46 21.69 23.494 19.68-8.759-.968-16.948-9.19-19.562-20.545z"/><path d="M11.28 28.503C8.562 16.672 12.968 5.39 21.285 1.568c-.57.062-1.139.145-1.708.268C9.457 4.062 3.681 16.447 6.686 29.512c3.003 13.066 13.638 21.844 23.767 19.63a12.95 12.95 0 001.655-.475c-9.18.02-18.108-8.336-20.827-20.165z"/><path d="M39.86 44.71c-8.739 1.917-18.035-6.1-20.755-17.928-2.72-11.829 2.161-22.957 10.91-24.873 3.657-.804 7.41.134 10.74 2.36C36.497.826 31.385-.75 26.389.341 16.27 2.568 10.504 14.953 13.509 28.02c3.003 13.065 13.65 21.844 23.768 19.628 4.985-1.092 8.917-4.657 11.267-9.551-2.045 3.4-5.027 5.811-8.685 6.615zM78.27 34.365h-5.615l-7.537-8.3v8.3H60.92V17.34h4.198v7.887l7.416-7.887h5.634l-8.315 8.2 8.416 8.824zm16.621-.003l-1.244-3.137h-8.225l-1.244 3.137h-4.441l7.567-17.024h4.714l7.527 17.024H94.89zm-8.225-6.253h5.737l-2.884-7.15-2.853 7.15zm30.584-10.771h3.51v17.024h-3.905V24.095l-4.755 7.302h-2.195l-4.755-7.302v10.267h-3.904V17.338h3.682l6.171 9.702 6.151-9.702zm20.553 17.024l-1.245-3.137h-8.224l-1.244 3.137h-4.442l7.567-17.024h4.715l7.536 17.024h-4.663zm-8.225-6.253h5.736l-2.883-7.15-2.853 7.15zM156.46 17.34v3.7h-5.907v13.333h-4.199V21.031h-5.908V17.33h16.014v.01zm6.758 13.573h10.399v3.46H159.03V17.337h14.345v3.46h-10.147v3.227h9.175v3.167h-9.175v3.72h-.01zm12.44 3.45l6.535-8.663-6.292-8.37h4.997l4.148 5.819 4.148-5.82h4.755l-6.293 8.371 6.535 8.663h-4.997l-4.391-6.131-4.461 6.131h-4.684zm20.855-.001V17.338h4.198v13.333h8.195V17.338h4.198v13.333h2.195v6.616h-3.905v-2.915h-14.881v-.01zm25.527-3.449h10.399v3.46h-14.587V17.337h14.345v3.46H222.05v3.227h9.175v3.167h-9.175v3.72h-.01zm25.688-13.575h4.198v17.024h-4.198v-7.01h-8.194v7.01h-4.199V17.338h4.199v6.324h8.194v-6.324zm23.193.002v3.7h-5.908v13.333h-4.198V21.031h-5.908V17.33h16.014v.01zm2.97 17.022V17.338h11.857c3.004 0 4.248 1.22 4.248 4.236v3.207c0 3.016-1.244 4.236-4.248 4.236h-7.659v5.355h-4.198v-.01zm4.188-8.461h6.03c1.295 0 1.679-.414 1.679-1.705V22.3c0-1.29-.395-1.704-1.679-1.704h-6.03V25.9z"/></symbol><symbol viewBox="0 0 492 512" id="logo-icon" xmlns="http://www.w3.org/2000/svg"><path d="M231.399 160.23c21.894-10.181 26.464-11.844 26.464-11.844s-20.193 28.571-21.15 42.909c0 0 29.652-44.052 64.511-78.648 60.898-60.363 111.912-53.818 111.912-53.818s-38.792-14.44-76.308-6.545c-37.517 8-62.917 25.247-62.917 25.247s41.555-10.91 56.646-2.078c-61.11 10.181-93.737 48.726-93.737 48.726s32.84-14.961 42.617-6.234c-32.308 13.922-48.038 42.285-48.038 42.285z"/><path d="M482.527 167.608c-1.807-10.702-1.807-20.883-.106-31.792 1.7-10.493-.638-21.61-1.063-32.415.744.104 2.232.104 5.101.312-9.246-7.48-7.12-13.922-.637-20.675 2.763-2.91 4.144-6.961 5.632-11.117-9.352 6.13-19.023 9.039-31.245 7.584 2.975-7.896 5.632-14.649 8.183-21.402-.319-.52-.638-.935-.957-1.455-5.632 3.948-11.371 7.48-16.685 11.844-3.826 3.221-7.015 3.325-11.691 1.559-11.478-4.364-31.458-1.87-45.7 1.454-19.236 4.468-36.559 15.377-53.458 27.948-35.071 26.389-64.298 58.077-87.573 94.751-12.009 18.909-27.313 31.065-46.018 37.299a278.001 278.001 0 005.739 34.285c8.077 34.908 22.212 66.908 41.236 93.608 23.487-3.844 46.868-9.662 70.037-17.142 4.464-1.455 9.99-.624 14.879.208 6.908 1.35 13.497 4.052 20.405 5.506 11.797 2.39 14.561 9.454 6.802 19.013-9.777 12.051-20.299 22.441-38.898 19.532.744 4.259 1.276 7.065 1.807 10.493-22.743-15.272-37.516-8.208-41.767 18.909.531.519.956 1.35 1.488 1.35 23.168.208 46.231 9.351 69.506.728 3.401-1.247 7.333-2.598 10.84-2.286 20.512 1.351 29.971-11.324 39.11-26.493 8.396-13.922 19.343-26.389 29.227-39.376 1.275-1.766 3.401-3.117 3.932-5.091 2.02-6.441-9.458-26.597-16.367-28.675-14.135-4.155-28.482-7.999-42.617-12.051-.106-.935-.425-1.974-.106-2.286 15.091-16.623 16.792-34.597 11.052-56.311-6.908-26.077 2.339-62.44 21.362-86.024 13.923 11.532 24.976 22.753 29.333 38.545 1.169 4.259 1.807 8.727 2.232 13.09 1.169 11.013 5.739 14.546 16.58 12.26 10.202-2.182 20.724-4.156 23.381-16.623.425-1.87 1.275-3.844 1.063-5.714-1.276-11.013-2.02-22.234-4.039-33.35zm-91.825 205.606c-5.951 14.338-17.854 24.104-29.439 23.48 10.416-8.415 19.237-15.376 29.439-23.48zM47.639 301.938C21.387 187.447 59.754 77.942 135.317 32.228 34.885 56.228-21.974 180.07 7.997 310.666 37.967 441.26 143.714 529.363 244.89 509.103c-88.317-9.766-170.895-92.674-197.252-207.165z"/><path d="M113.745 287.394C86.325 168.123 130.75 54.359 214.603 15.814c-5.739.623-11.478 1.454-17.217 2.701C95.359 40.956 37.118 165.837 67.408 297.575c30.29 131.738 137.524 220.256 239.658 197.919 5.739-1.247 11.265-2.805 16.685-4.779-92.568.208-182.586-84.051-210.006-203.321z"/><path d="M401.903 450.822c-88.105 19.324-181.842-61.506-209.262-180.776-27.42-119.271 21.787-231.476 109.998-250.8 36.879-8.105 74.714 1.35 108.298 23.79C368 8.337 316.455-7.56 266.079 3.454c-102.027 22.441-160.162 147.322-129.872 279.06 30.289 131.738 137.63 220.256 239.658 197.919 50.269-11.013 89.911-46.961 113.611-96.31-20.618 34.285-50.694 58.596-87.573 66.7z"/></symbol><symbol viewBox="0 0 25 25" id="pdf" xmlns="http://www.w3.org/2000/svg"><path d="M6.25 0c-.86 0-1.563.703-1.563 1.563v21.875c0 .859.704 1.562 1.563 1.562h15.625c.86 0 1.563-.703 1.563-1.563V6.25L17.188 0H6.25z"/><path d="M18.75 6.25h4.688L17.188 0v4.688c0 .859.703 1.562 1.562 1.562zM23.438 10.938L18.75 6.25h4.688v4.688zM20.313 20.313c0 .43-.352.78-.782.78H2.344a.784.784 0 01-.781-.78V12.5c0-.43.351-.781.78-.781h17.188c.43 0 .782.351.782.781v7.813z"/><path d="M4.97 14.802a.43.43 0 01.425-.43h1.443c.812 0 1.544.543 1.544 1.585 0 .988-.732 1.537-1.544 1.537H5.795v.826c0 .274-.175.43-.4.43a.42.42 0 01-.424-.43v-3.518zm.825.356v1.556h1.043c.419 0 .75-.37.75-.757 0-.437-.331-.8-.75-.8H5.795zm3.812 3.592c-.206 0-.431-.113-.431-.387v-3.548c0-.224.225-.388.431-.388h1.43c2.855 0 2.793 4.323.057 4.323H9.607zm.394-3.56v2.798h1.037c1.686 0 1.761-2.798 0-2.798H10zm4.839.05v.993h1.594c.225 0 .45.225.45.443 0 .206-.225.375-.45.375H14.84v1.312c0 .218-.156.386-.375.386-.275 0-.443-.168-.443-.386v-3.549c0-.224.17-.387.443-.387h2.193c.275 0 .438.163.438.387 0 .2-.163.425-.438.425H14.84v.001zM19.531 21.094H4.688v.781H19.53c.43 0 .782-.352.782-.781v-.782c0 .43-.352.782-.782.782z"/></symbol><symbol viewBox="0 0 25 25" id="print" xmlns="http://www.w3.org/2000/svg"><path d="M7.759 5.172H5.264c-.607 0-1.187.257-1.595.706L0 9.914l12.213 1.293L25 9.914l-3.669-4.036a2.155 2.155 0 00-1.595-.706h-2.495"/><path d="M8.187 0h8.62c.239 0 .432.193.432.431v7.328H7.756V.43a.43.43 0 01.43-.431z"/><path d="M18.103 8.19H6.896a.431.431 0 110-.862h11.207a.431.431 0 010 .862zM15.949 20.69H9.052a.431.431 0 010-.862h6.897a.431.431 0 010 .862z"/><path d="M18.965 20.258h3.88A2.156 2.156 0 0025 18.103v-8.19H0v8.19a2.155 2.155 0 002.155 2.155h3.88"/><path d="M6.035 20.259h-.431v-3.88a3.448 3.448 0 013.448-3.448h6.896a3.448 3.448 0 013.449 3.448v3.88h-.431"/><path d="M15.949 20.69H9.052a.431.431 0 010-.862h6.897a.431.431 0 010 .862zM22.415 13.793a.862.862 0 100-1.724.862.862 0 000 1.724zM22.413 15.948a.431.431 0 100-.862.431.431 0 000 .862zM22.413 17.241a.431.431 0 100-.862.431.431 0 000 .862zm0 1.293a.431.431 0 100-.862.431.431 0 000 .862zM8.188 16.81h8.62c.477 0 .863.387.863.863v1.724H7.326v-1.724c0-.476.386-.862.862-.862zM1.722 12.5a.431.431 0 01-.431-.43v-.432a.431.431 0 11.862 0v.431a.431.431 0 01-.43.431zm0 4.31a.431.431 0 01-.431-.43v-2.587a.431.431 0 11.862 0v2.586a.431.431 0 01-.43.431z"/><path d="M17.517 23.707h3.172a.431.431 0 00.345-.69l-2.069-2.758-1.293-1.724H7.327l-1.293 1.724-2.069 2.758a.431.431 0 00.345.69h3.172"/><path d="M17.434 25H7.566a.431.431 0 01-.393-.61l1.764-3.879a.431.431 0 01.392-.252h6.341c.17 0 .323.099.393.252l1.763 3.88a.43.43 0 01-.392.61z"/><path d="M14.223 22.414h-3.448a.431.431 0 110-.862h3.448a.431.431 0 110 .862zm.863 1.293H9.913a.431.431 0 010-.862h5.173a.431.431 0 010 .862z"/></symbol><symbol viewBox="0 0 50 50" id="question" xmlns="http://www.w3.org/2000/svg"><path d="M25 0C11.215 0 0 11.215 0 25s11.215 25 25 25 25-11.215 25-25S38.785 0 25 0zm0 46.875C12.938 46.875 3.125 37.062 3.125 25S12.938 3.125 25 3.125 46.875 12.938 46.875 25 37.062 46.875 25 46.875z"/><path d="M23.438 37.5h3.125v3.125h-3.125V37.5zM25 9.375c-5.17 0-9.375 4.205-9.375 9.375v3.125h3.125V18.75A6.256 6.256 0 0125 12.5a6.256 6.256 0 016.25 6.25 6.753 6.753 0 01-3.26 5.76l-3.794 2.275c-.47.282-.759.79-.759 1.34v6.25h3.125V29.01l3.035-1.82a9.896 9.896 0 004.778-8.44c0-5.17-4.205-9.375-9.375-9.375z"/></symbol><symbol viewBox="0 0 20 20" id="refresh" xmlns="http://www.w3.org/2000/svg"><g clip-path="url(#qclip0)"><path d="M19.29 2.759a.781.781 0 00-.848.707l-.104 1.136C16.582 1.844 13.533 0 10.001 0 6.2 0 2.852 2.169 1.19 5.424a.781.781 0 101.391.71c1.407-2.754 4.232-4.572 7.42-4.572a8.324 8.324 0 017.03 3.884l-1.115-.796a.781.781 0 00-.908 1.272l3.378 2.412a.782.782 0 001.232-.565l.38-4.161a.781.781 0 00-.707-.85zm-.82 10.766a.781.781 0 00-1.051.34c-1.407 2.755-4.232 4.573-7.42 4.573a8.324 8.324 0 01-7.03-3.883l1.115.795a.781.781 0 00.908-1.271l-3.378-2.413a.782.782 0 00-1.232.565l-.38 4.161a.781.781 0 001.556.142l.104-1.135C3.418 18.157 6.467 20 9.999 20c3.8 0 7.15-2.169 8.812-5.424a.781.781 0 00-.34-1.05z"/></g><defs><clipPath id="qclip0"><path d="M0 0h20v20H0z"/></clipPath></defs></symbol><symbol viewBox="0 0 20 20" id="search" xmlns="http://www.w3.org/2000/svg"><path d="M12.53 13.33l5.975 5.882-5.976-5.882zm-4.184 2.353c-3.96 0-7.17-3.16-7.17-7.059 0-3.898 3.21-7.059 7.17-7.059s7.171 3.16 7.171 7.06c0 3.898-3.21 7.058-7.17 7.058z"/></symbol><symbol viewBox="0 0 14 14" id="search-icon" xmlns="http://www.w3.org/2000/svg"><path d="M5.987 11.973a5.952 5.952 0 003.665-1.263l3.29 3.29L14 12.942l-3.29-3.29a5.95 5.95 0 001.264-3.665A5.994 5.994 0 005.987 0 5.994 5.994 0 000 5.987c0 3.3 2.686 5.986 5.987 5.986zm0-10.476a4.495 4.495 0 014.49 4.49 4.495 4.495 0 01-4.49 4.49 4.495 4.495 0 01-4.49-4.49 4.495 4.495 0 014.49-4.49z"/></symbol><symbol viewBox="0 0 16 16" id="telegram" xmlns="http://www.w3.org/2000/svg"><path d="M14.629 3.698l-2.012 9.618c-.152.679-.548.848-1.11.528l-3.066-2.29-1.48 1.442c-.163.166-.3.305-.616.305l.22-3.165 5.683-5.204c.247-.223-.054-.347-.384-.123L4.839 9.29l-3.024-.959c-.658-.208-.67-.667.137-.986L13.78 2.727c.548-.208 1.027.124.849.971z"/></symbol><symbol viewBox="0 0 20 20" id="trolley" xmlns="http://www.w3.org/2000/svg"><g clip-path="url(#uclip0)"><path d="M18.927 3.371a2.492 2.492 0 00-1.919-.89H3.535L3.5 2.19A2.474 2.474 0 002.679.626 2.511 2.511 0 001.019 0H.832a.837.837 0 00-.589.242.824.824 0 000 1.17.837.837 0 00.59.242h.184c.204 0 .401.074.554.209.153.134.25.32.274.52l1.147 9.675a4.124 4.124 0 001.369 2.607A4.185 4.185 0 007.13 15.71h8.702a.837.837 0 00.59-.242.824.824 0 000-1.17.837.837 0 00-.59-.242H7.131a2.513 2.513 0 01-1.44-.457 2.482 2.482 0 01-.91-1.196h9.933c.977 0 1.923-.34 2.673-.962A4.127 4.127 0 0018.815 9l.654-3.6a2.457 2.457 0 00-.542-2.03zm-1.094 1.737l-.655 3.6a2.476 2.476 0 01-.858 1.465 2.512 2.512 0 01-1.606.576H4.516l-.784-6.615h13.276a.839.839 0 01.643.295.824.824 0 01.182.68zm-12 14.737c.92 0 1.667-.74 1.667-1.654a1.66 1.66 0 00-1.667-1.654c-.92 0-1.667.74-1.667 1.654a1.66 1.66 0 001.667 1.654zm8.334 0c.92 0 1.666-.74 1.666-1.654a1.66 1.66 0 00-1.666-1.654c-.92 0-1.667.74-1.667 1.654a1.66 1.66 0 001.667 1.654z"/></g><defs><clipPath id="uclip0"><path d="M0 0h20v19.844H0z"/></clipPath></defs></symbol><symbol viewBox="0 0 16 16" id="viber" xmlns="http://www.w3.org/2000/svg"><path d="M8 1.335c-1.071.013-3.374.19-4.662 1.37-.958.948-1.292 2.35-1.331 4.084-.033 1.728-.072 4.973 3.058 5.856v1.346s-.02.538.337.648c.438.14.688-.275 1.105-.72l.778-.879c2.142.178 3.782-.232 3.97-.293.435-.139 2.883-.451 3.283-3.696.41-3.351-.2-5.463-1.301-6.418h-.007c-.332-.306-1.668-1.279-4.652-1.29 0 0-.222-.014-.578-.008zm.037.942a7.02 7.02 0 01.488.011c2.527.007 3.732.767 4.017 1.023.927.794 1.405 2.697 1.055 5.495-.332 2.713-2.317 2.885-2.685 3.002-.156.05-1.6.406-3.42.289 0 0-1.356 1.634-1.78 2.055-.067.074-.146.095-.196.085-.071-.018-.093-.107-.089-.229l.013-2.233c-2.655-.733-2.498-3.5-2.47-4.946.033-1.446.304-2.628 1.113-3.43 1.088-.982 3.043-1.115 3.953-1.122zm.2 1.446a.166.166 0 100 .332 3.136 3.136 0 012.242.883c.606.588.9 1.378.912 2.411 0 .092.074.167.167.167V7.51a.167.167 0 00.168-.165 3.588 3.588 0 00-1.009-2.646c-.66-.645-1.496-.977-2.48-.977zm-2.198.382a.523.523 0 00-.342.067H5.69a2.61 2.61 0 00-.637.523 1.003 1.003 0 00-.256.525.71.71 0 00.026.302l.01.006c.172.504.396.988.67 1.444a8.48 8.48 0 001.29 1.762l.015.022.024.017.015.018.017.015c.532.505 1.127.94 1.769 1.295.734.4 1.18.588 1.447.667v.004c.078.024.15.034.221.034.228-.016.444-.109.613-.262a2.53 2.53 0 00.517-.638v-.004c.128-.241.085-.469-.1-.623-.37-.323-.77-.61-1.195-.857-.285-.155-.574-.061-.69.095l-.25.315c-.129.156-.361.134-.361.134l-.007.004C7.093 8.527 6.63 6.772 6.63 6.772s-.022-.239.139-.36l.312-.252c.15-.122.254-.41.094-.695a7.498 7.498 0 00-.856-1.194.475.475 0 00-.28-.167zm2.486.495c-.221 0-.221.334.003.334A2.098 2.098 0 0110 5.572 1.94 1.94 0 0110.5 7a.168.168 0 00.167.165l.007.009a.169.169 0 00.167-.167c.015-.662-.191-1.218-.595-1.663C9.84 4.9 9.273 4.65 8.549 4.6h-.024zm.274.898c-.228-.006-.236.335-.01.341.55.029.816.306.851.877a.166.166 0 00.165.163h.007a.168.168 0 00.16-.178c-.039-.744-.445-1.164-1.166-1.202H8.8z"/></symbol><symbol viewBox="0 0 24 24" id="vk" xmlns="http://www.w3.org/2000/svg"><path d="M21.579 6.855c.14-.465 0-.806-.662-.806h-2.193c-.558 0-.813.295-.953.619 0 0-1.115 2.719-2.695 4.482-.51.513-.743.675-1.021.675-.139 0-.341-.162-.341-.627V6.855c0-.558-.161-.806-.626-.806H9.642c-.348 0-.558.258-.558.504 0 .528.79.65.871 2.138v3.228c0 .707-.127.836-.407.836-.743 0-2.551-2.73-3.624-5.853-.209-.607-.42-.852-.98-.852H2.752c-.627 0-.752.295-.752.619 0 .582.743 3.462 3.461 7.27 1.812 2.602 4.363 4.012 6.687 4.012 1.393 0 1.565-.313 1.565-.853v-1.966c0-.626.133-.752.574-.752.324 0 .882.164 2.183 1.417 1.486 1.486 1.732 2.153 2.567 2.153h2.192c.626 0 .939-.313.759-.931-.197-.615-.907-1.51-1.849-2.57-.512-.603-1.277-1.253-1.51-1.578-.325-.42-.231-.604 0-.976.001 0 2.672-3.761 2.95-5.04z"/></symbol><symbol viewBox="0 0 16 16" id="whatsapp" xmlns="http://www.w3.org/2000/svg"><path fill-rule="evenodd" clip-rule="evenodd" d="M12.269 3.755A5.947 5.947 0 008.035 2 5.994 5.994 0 002.05 7.985a5.98 5.98 0 00.799 2.992L2 14.077l3.173-.832c.877.477 1.86.728 2.86.728h.002a5.993 5.993 0 005.533-8.276 5.953 5.953 0 00-1.3-1.942zm-4.234 9.208h-.002c-.89 0-1.765-.24-2.532-.694l-.181-.108-1.883.494.502-1.835-.118-.188a4.965 4.965 0 01-.76-2.647 4.982 4.982 0 016.88-4.597c.604.25 1.152.618 1.613 1.081a4.946 4.946 0 011.455 3.52 4.982 4.982 0 01-4.974 4.974zm2.729-3.726c-.15-.075-.885-.436-1.022-.486-.137-.05-.236-.075-.336.074-.1.15-.387.486-.474.586-.087.1-.175.112-.324.038-.15-.075-.631-.233-1.203-.742a4.505 4.505 0 01-.832-1.036c-.087-.15-.009-.231.066-.306.068-.066.15-.174.224-.262.075-.087.1-.149.15-.249.05-.1.025-.187-.013-.262-.037-.075-.337-.811-.461-1.11-.121-.29-.244-.252-.336-.256a6.418 6.418 0 00-.286-.005.55.55 0 00-.4.186c-.137.15-.523.512-.523 1.248s.536 1.447.61 1.547c.075.1 1.055 1.61 2.555 2.258.358.154.636.246.853.315.358.114.684.098.942.06.287-.043.885-.362 1.01-.711.124-.35.124-.649.087-.711-.038-.063-.138-.101-.287-.176z"/></symbol></svg>