<svg width="25" height="25" viewBox="0 0 25 25" fill="none" xmlns="http://www.w3.org/2000/svg">
<g clip-path="url(#clip0)">
<path fill-rule="evenodd" clip-rule="evenodd" d="M12.317 0C19.0916 0 24.5812 5.55164 24.5812 12.4028C24.5812 19.254 19.0916 24.8056 12.317 24.8056C5.54231 24.8056 0.0527344 19.254 0.0527344 12.4028C0.0527344 5.55164 5.54231 0 12.317 0Z" fill="#2FA6D9"/>
<path fill-rule="evenodd" clip-rule="evenodd" d="M5.00292 12.3584L8.30832 13.4077L14.8427 9.2292C15.8292 8.59966 16.1787 8.64755 15.1594 9.57157L10.0521 14.2323L11.9086 15.646L14.9555 17.9653C15.4215 18.2672 15.9093 18.0647 16.0586 17.5309C16.6811 14.4974 17.289 11.4639 17.9224 8.43404C18.3629 6.33557 17.7877 6.66692 16.0549 7.34063L11.2898 9.19609L5.19585 11.5706C4.76264 11.7105 4.70441 12.2774 5.00292 12.3584Z" fill="#EFF7FC"/>
<path fill-rule="evenodd" clip-rule="evenodd" d="M8.30811 13.4084L9.44387 17.112C9.50212 17.3292 9.61132 17.4249 9.70599 17.4065C9.78609 17.3918 9.85161 17.2924 9.85161 17.1157C9.92439 16.1585 9.97538 15.1903 10.0482 14.2331L15.1592 9.57607C16.1748 8.65201 15.8254 8.60049 14.8425 9.2337L8.30811 13.4084Z" fill="#C8DAEA"/>
<path fill-rule="evenodd" clip-rule="evenodd" d="M10.0507 14.2327C9.97788 15.1899 9.92694 16.1581 9.85411 17.1153C9.85411 17.292 9.78859 17.3914 9.7085 17.4061C10.0398 17.4061 10.149 17.3619 10.3747 17.141L11.9073 15.6427L10.0507 14.2327Z" fill="#A9C9DD"/>
</g>
<defs>
<clipPath id="clip0">
<rect width="25.0002" height="24.8056" fill="white"/>
</clipPath>
</defs>
</svg>
