<svg width="18" height="18" viewBox="0 0 18 18" fill="none" xmlns="http://www.w3.org/2000/svg">
<g clip-path="url(#clip0)">
<path d="M8.9999 1.45469C9.20661 1.60979 9.38748 1.62659 9.92806 1.65718C11.512 1.74809 12.5164 2.08646 13.6335 2.90662C15.0012 3.9071 15.8592 5.30264 16.1843 7.05455C16.268 7.50812 16.3094 7.89303 16.3376 8.4732C16.3547 8.86229 16.3682 9.01318 16.4567 9.18357C16.5815 9.41605 16.8233 9.57056 17.1038 9.59664C17.1314 9.59903 17.159 9.60023 17.1863 9.60023C17.4359 9.60023 17.6675 9.49462 17.8154 9.31073C18.0118 9.07132 18.0116 8.84816 17.9924 8.36755C17.936 6.87902 17.6105 5.54166 17.0249 4.39269C16.6073 3.57523 16.2086 3.03975 15.5006 2.34558C14.7456 1.61151 14.1636 1.20083 13.275 0.776337C12.3337 0.327022 11.6677 0.18482 10.6924 0.06575C10.4956 0.0432508 10.1251 0.0138613 9.86805 0.00545926C9.37817 -0.0107472 9.18678 0.0024711 8.9606 0.203452C8.78721 0.35613 8.69272 0.588047 8.70052 0.840319C8.70829 1.0908 8.81688 1.31368 8.9999 1.45469Z" fill="#8852C1"/>
<path d="M13.9371 7.88998C13.9371 8.31145 13.9719 8.70716 14.3874 8.91176C14.5014 8.97086 14.6499 9.00056 14.7948 9.00056C14.9235 9.00056 15.0489 8.97687 15.1446 8.92888C15.3126 8.84247 15.4821 8.66009 15.5484 8.4951C15.6327 8.28242 15.5943 7.51983 15.5703 7.30476C15.4578 6.3439 15.1239 5.43672 14.6049 4.68166C13.6648 3.31582 12.256 2.48992 10.4185 2.22686C9.79545 2.13507 9.33257 2.10266 9.06018 2.51843C8.8463 2.83434 8.87358 3.23721 9.12617 3.51951C9.32747 3.74781 9.61574 3.79941 9.87075 3.8198C10.6009 3.87739 11.4187 4.11648 11.9548 4.42879L11.9557 4.42907C12.5794 4.79026 13.0957 5.31526 13.4493 5.94763C13.7592 6.50072 13.9371 7.20871 13.9371 7.88998Z" fill="#8852C1"/>
<path d="M12.3388 5.31344C11.9284 4.93756 11.4475 4.70206 10.8265 4.57248C10.6843 4.54249 10.4431 4.51637 10.2931 4.50797C10.0345 4.49208 9.92806 4.49479 9.74417 4.58415C9.52188 4.69573 9.36618 4.90272 9.31637 5.15144C9.26687 5.39862 9.33018 5.64734 9.49218 5.83633C9.67938 6.05022 9.87108 6.10362 10.2577 6.14953C10.9039 6.22694 11.2678 6.44441 11.4736 6.8758C11.5777 7.09597 11.6368 7.33717 11.671 7.68397C11.7064 8.00887 11.77 8.21734 12.0013 8.38834C12.1468 8.49813 12.331 8.55244 12.5134 8.55244C12.7129 8.55244 12.9105 8.48733 13.0549 8.35863L13.0566 8.35744C13.3548 8.08776 13.3674 7.75326 13.2867 7.23128C13.1617 6.39519 12.8698 5.8036 12.3388 5.31344Z" fill="#8852C1"/>
<path d="M17.9984 14.5129C17.9837 14.1863 17.8714 13.8941 17.6621 13.6418C17.4599 13.4033 16.1684 12.3821 15.5921 11.9876C15.144 11.6826 14.4357 11.253 14.1045 11.0853C13.6152 10.842 13.1232 10.7994 12.6391 10.9599C12.5332 10.9953 12.4576 11.0268 12.3865 11.064C12.1414 11.1927 11.9614 11.3954 11.6116 11.8256C11.2369 12.278 11.1589 12.3659 11.1598 12.3659C11.1244 12.3872 11.068 12.4172 10.9996 12.4484C10.7209 12.5753 10.264 12.4709 9.52095 12.1088C8.89396 11.8056 8.33089 11.4162 7.69493 10.8468C7.15316 10.3641 6.60836 9.73802 6.306 9.25232C5.886 8.57854 5.63194 7.79888 5.62891 7.43678C5.62891 7.29577 5.69071 7.09328 5.75762 6.9817L5.787 6.9514C5.8068 6.9322 5.8287 6.9115 5.85869 6.88509C5.9631 6.7912 6.11426 6.66552 6.27176 6.541C6.96294 5.99652 7.18192 5.77603 7.29891 5.36654C7.41201 4.98796 7.31273 4.52177 6.98632 3.89991C6.50002 2.97203 4.95809 0.997203 4.31461 0.580828C4.20872 0.514525 4.03442 0.425126 3.91114 0.383749C3.64716 0.290448 3.26798 0.258668 3.03216 0.308763C2.70578 0.375663 2.34758 0.581144 1.55713 1.15533C1.12398 1.47243 0.456214 2.09249 0.27499 2.38888C-0.152494 3.10675 -0.0435841 3.72952 0.343999 4.7726C0.713302 5.76798 1.18698 6.76993 1.75006 7.74818L1.77945 7.79768C1.89286 7.99357 2.00894 8.18889 2.13075 8.38477L2.16225 8.43427C2.28315 8.62656 2.40556 8.81855 2.53363 9.00965L2.73552 9.30333C2.81082 9.41312 2.88581 9.52263 2.9635 9.63154C3.11681 9.84514 3.27399 10.0581 3.4369 10.2705C5.17352 12.5318 7.17415 14.3474 9.55277 15.82L9.65025 15.8812C9.99554 16.0927 10.363 16.3042 10.7422 16.5094L10.8904 16.5892C11.2828 16.798 11.6556 16.9852 12.0303 17.1607L12.147 17.2138C12.5895 17.4186 12.9942 17.5947 13.3836 17.7516C13.8549 17.9418 14.073 18 14.4041 18C14.4629 18 14.5256 17.9982 14.594 17.9949C14.8076 17.9847 14.9996 17.9529 15.1814 17.8975C15.4367 17.82 15.6923 17.6901 15.9848 17.4882C16.0358 17.4532 16.0867 17.4174 16.1416 17.3769C16.2064 17.3292 16.2754 17.2707 16.3453 17.2105C16.6786 16.9221 17.0611 16.5034 17.3692 16.0903C17.5336 15.8698 17.752 15.5497 17.8609 15.2749C17.9628 15.0178 18.009 14.7614 17.9983 14.5133V14.5129H17.9984Z" fill="#8852C1"/>
</g>
<defs>
<clipPath id="clip0">
<rect width="18" height="18" fill="white"/>
</clipPath>
</defs>
</svg>
