<svg width="25" height="25" viewBox="0 0 25 25" fill="none" xmlns="http://www.w3.org/2000/svg">
<ellipse cx="12.5001" cy="12.4028" rx="12.5001" ry="12.4028" fill="#8852C1"/>
<path d="M16.8406 11.5739C16.8571 9.70865 15.2546 7.99947 13.2712 7.76118C13.2298 7.75707 13.1884 7.74885 13.1428 7.74063C13.0435 7.7242 12.9441 7.70776 12.8406 7.70776C12.4348 7.70776 12.3271 7.99126 12.2981 8.15971C12.2691 8.32405 12.2981 8.46374 12.3768 8.57057C12.5134 8.75135 12.7495 8.78421 12.9399 8.80887C12.9938 8.81708 13.0476 8.8253 13.0931 8.83352C14.8737 9.22794 15.4741 9.84834 15.7681 11.6027C15.7764 11.6438 15.7805 11.6972 15.7805 11.7547C15.7929 11.9643 15.8219 12.3998 16.294 12.3998C16.3313 12.3998 16.3768 12.3957 16.4182 12.3916C16.8571 12.3258 16.8447 11.9273 16.8364 11.7342C16.8364 11.6808 16.8323 11.6274 16.8364 11.5945C16.8406 11.5904 16.8406 11.5822 16.8406 11.5739Z" fill="white"/>
<path d="M12.7296 7.07931C12.7835 7.08341 12.8332 7.08752 12.8746 7.09163C15.798 7.53947 17.1437 8.91585 17.5206 11.8412C17.5288 11.8905 17.5288 11.9521 17.5288 12.0178C17.533 12.2479 17.5413 12.7204 18.0547 12.7327H18.0713C18.2328 12.7327 18.3611 12.6834 18.4522 12.5889C18.6137 12.4246 18.6013 12.174 18.593 11.9768C18.5889 11.9275 18.5889 11.8823 18.5889 11.8412C18.6262 8.846 16.0133 6.13433 12.9988 6.03161C12.9864 6.03161 12.9739 6.03161 12.9615 6.03161C12.9574 6.03161 12.945 6.03161 12.9243 6.03161C12.8953 6.03161 12.858 6.0275 12.8166 6.0275C12.771 6.0234 12.7172 6.01929 12.6592 6.01929C12.1789 6.01929 12.0878 6.35619 12.0754 6.56162C12.0547 7.03 12.5102 7.06287 12.7296 7.07931Z" fill="white"/>
<path d="M17.3753 15.625C17.3132 15.5798 17.247 15.5305 17.189 15.4812C16.8702 15.2265 16.5306 14.9923 16.1993 14.7622C16.1331 14.717 16.0627 14.6677 15.9964 14.6225C15.5741 14.3308 15.1973 14.187 14.837 14.187C14.3567 14.187 13.9343 14.4499 13.5865 14.9717C13.4333 15.2018 13.2469 15.3169 13.0151 15.3169C12.8784 15.3169 12.7252 15.2799 12.5554 15.2018C11.1972 14.5896 10.2241 13.6529 9.66928 12.4121C9.40013 11.8122 9.48708 11.4219 9.95914 11.1056C10.2283 10.9248 10.7252 10.5879 10.6921 9.94282C10.6507 9.21149 9.02745 7.01339 8.34008 6.76277C8.05022 6.65594 7.7438 6.65594 7.43324 6.75866C6.64649 7.02161 6.0792 7.48177 5.79762 8.09395C5.52433 8.68148 5.53675 9.37583 5.83489 10.0948C6.6879 12.1779 7.89287 13.9898 9.40427 15.4894C10.8867 16.9562 12.7086 18.1559 14.8204 19.0598C15.0109 19.142 15.2097 19.1872 15.3546 19.2159C15.4043 19.2282 15.4457 19.2365 15.4788 19.2447C15.4954 19.2488 15.512 19.2529 15.5327 19.2529H15.5492C16.543 19.2529 17.7356 18.3531 18.1 17.326C18.4354 16.4262 17.8474 15.9825 17.3753 15.625Z" fill="white"/>
<path d="M13.1685 9.45823C12.9987 9.46234 12.6426 9.47055 12.5184 9.828C12.4604 9.99645 12.4687 10.1403 12.5391 10.2594C12.6426 10.4361 12.8455 10.4895 13.0318 10.5182C13.6985 10.6251 14.0422 10.9907 14.1085 11.6686C14.1416 11.985 14.3569 12.2069 14.6302 12.2069C14.6509 12.2069 14.6716 12.2069 14.6923 12.2028C15.0236 12.1617 15.1851 11.9234 15.1685 11.4838C15.1726 11.0277 14.9325 10.51 14.5225 10.0951C14.1126 9.68009 13.6198 9.4459 13.1685 9.45823Z" fill="white"/>
</svg>
