<svg width="26" height="25" viewBox="0 0 26 25" fill="none" xmlns="http://www.w3.org/2000/svg">
<g clip-path="url(#clip0)">
<path d="M12.4511 0C5.57601 0.0248056 0.000976562 5.58127 0.000976562 12.4028C0.000976562 14.5733 0.57598 16.719 1.66349 18.5918L1.92599 19.0507L0.58848 23.6026L4.97601 22.3251L5.46351 22.6599C7.53852 24.0615 9.97604 24.8056 12.5011 24.8056C19.3886 24.8056 25.0011 19.2368 25.0011 12.4028C25.0011 5.58127 19.4261 0.0248056 12.5511 0H12.4511Z" fill="#00C958"/>
<path d="M9.30189 15.5779C9.30189 15.5779 12.4644 18.9515 15.7769 19.5344C18.3144 19.9809 19.427 17.8353 19.7145 16.7686C19.8145 16.3965 19.7145 16.012 19.4395 15.7516C19.1769 15.4911 16.8394 14.4493 16.2769 14.4121C15.8894 14.3873 15.5769 14.5485 15.3019 14.9082L14.7394 15.6152C14.5144 15.9004 14.2144 15.9748 13.9394 15.826C13.3769 15.5159 12.4019 14.871 11.2144 13.6927C10.0269 12.5144 9.36439 11.547 9.05189 10.9889C8.88939 10.716 8.97689 10.4184 9.26439 10.1951L9.97689 9.63699C10.3394 9.35173 10.5019 9.05406 10.4769 8.66957C10.4394 8.09904 9.38939 5.79212 9.12689 5.53166C8.86439 5.2588 8.47688 5.15957 8.10188 5.2588C7.03937 5.54406 4.86436 6.64791 5.31436 9.16569C5.90187 12.44 9.30189 15.5779 9.30189 15.5779Z" fill="white"/>
</g>
<defs>
<clipPath id="clip0">
<rect width="25.0002" height="24.8056" fill="white" transform="translate(0.000976562)"/>
</clipPath>
</defs>
</svg>
