<svg width="18" height="18" viewBox="0 0 18 18" fill="none" xmlns="http://www.w3.org/2000/svg">
<g clip-path="url(#clip0)">
<path fill-rule="evenodd" clip-rule="evenodd" d="M15.3036 2.61584C13.6196 0.929883 11.3801 0.000988768 8.99415 0C4.07777 0 0.0765503 4.00111 0.0745727 8.91881C0.0739136 10.4908 0.484582 12.0254 1.26516 13.3781L-0.000244141 18L4.72816 16.7596C6.03103 17.4703 7.49781 17.8449 8.99053 17.8453H8.99426C13.9101 17.8453 17.9118 13.8439 17.9136 8.92595C17.9146 6.54258 16.9877 4.3017 15.3036 2.61584ZM8.99415 16.339H8.99108C7.66085 16.3384 6.35623 15.9809 5.21782 15.3056L4.94723 15.1449L2.14132 15.881L2.89026 13.1453L2.71393 12.8648C1.9718 11.6844 1.57992 10.3201 1.58058 8.91936C1.58212 4.8319 4.9079 1.50645 8.99712 1.50645C10.9773 1.5071 12.8387 2.27922 14.2384 3.68053C15.638 5.08184 16.4084 6.94446 16.4077 8.9254C16.406 13.0132 13.0804 16.339 8.99415 16.339ZM13.0606 10.7866C12.8378 10.675 11.7421 10.136 11.5377 10.0615C11.3336 9.98712 11.1848 9.9501 11.0364 10.1731C10.8878 10.3961 10.4607 10.8982 10.3306 11.0469C10.2006 11.1956 10.0707 11.2143 9.84779 11.1027C9.62488 10.9912 8.90681 10.7557 8.05548 9.99646C7.393 9.40551 6.94575 8.67568 6.81567 8.45266C6.68581 8.22942 6.81457 8.12043 6.91345 7.99783C7.15471 7.69823 7.3963 7.38413 7.47057 7.23549C7.54495 7.08673 7.5077 6.95654 7.45189 6.84503C7.3963 6.73352 6.95059 5.63654 6.76492 5.19016C6.58386 4.75576 6.40028 4.81443 6.26339 4.80762C6.13353 4.80114 5.98489 4.79982 5.83624 4.79982C5.68771 4.79982 5.44623 4.85552 5.24188 5.07876C5.03765 5.30189 4.46196 5.84099 4.46196 6.93798C4.46196 8.03496 5.26056 9.0947 5.37196 9.24346C5.48336 9.39221 6.94355 11.6433 9.17916 12.6086C9.7109 12.8384 10.126 12.9754 10.4497 13.0781C10.9837 13.2478 11.4694 13.2238 11.8535 13.1665C12.2817 13.1024 13.1719 12.6272 13.3578 12.1067C13.5435 11.5861 13.5435 11.1399 13.4877 11.0469C13.4321 10.9539 13.2834 10.8982 13.0606 10.7866Z" fill="#00C958"/>
</g>
<defs>
<clipPath id="clip0">
<rect width="18" height="18" fill="white"/>
</clipPath>
</defs>
</svg>
