<svg width="20" height="21" viewBox="0 0 20 21" fill="none" xmlns="http://www.w3.org/2000/svg">
<g clip-path="url(#clip0)">
<path d="M18.9275 3.76804C18.6931 3.48893 18.3996 3.26445 18.0679 3.11054C17.7363 2.95663 17.3745 2.87708 17.0083 2.87752H3.535L3.5 2.5873C3.42837 1.98404 3.13615 1.42783 2.67874 1.02412C2.22133 0.620407 1.63052 0.397255 1.01833 0.396973L0.833333 0.396973C0.61232 0.396973 0.400358 0.484087 0.244078 0.639151C0.0877974 0.794216 0 1.00453 0 1.22382C0 1.44312 0.0877974 1.65343 0.244078 1.80849C0.400358 1.96356 0.61232 2.05067 0.833333 2.05067H1.01833C1.22244 2.0507 1.41945 2.12505 1.57198 2.25963C1.72451 2.39421 1.82195 2.57965 1.84583 2.78078L2.9925 12.4549C3.11154 13.461 3.59873 14.3887 4.36159 15.062C5.12445 15.7352 6.10988 16.1071 7.13083 16.1071H15.8333C16.0543 16.1071 16.2663 16.02 16.4226 15.8649C16.5789 15.7099 16.6667 15.4996 16.6667 15.2803C16.6667 15.061 16.5789 14.8507 16.4226 14.6956C16.2663 14.5405 16.0543 14.4534 15.8333 14.4534H7.13083C6.61505 14.452 6.11233 14.2923 5.69161 13.9962C5.27089 13.7002 4.95276 13.2822 4.78083 12.7997H14.7142C15.6911 12.7998 16.6369 12.4592 17.3865 11.8376C18.1361 11.216 18.6417 10.3528 18.815 9.39888L19.4692 5.79878C19.5345 5.44159 19.5198 5.07451 19.4262 4.72358C19.3326 4.37264 19.1623 4.04642 18.9275 3.76804ZM17.8333 5.50525L17.1783 9.10535C17.0743 9.67836 16.7704 10.1968 16.3199 10.5699C15.8694 10.9429 15.301 11.1469 14.7142 11.146H4.51583L3.73167 4.53122H17.0083C17.1307 4.53049 17.2518 4.55654 17.3629 4.6075C17.4741 4.65846 17.5725 4.73309 17.6513 4.82608C17.73 4.91907 17.7872 5.02813 17.8186 5.14552C17.8501 5.2629 17.8551 5.38572 17.8333 5.50525Z" fill="#323A42"/>
<path d="M5.83317 20.2415C6.75364 20.2415 7.49983 19.5011 7.49983 18.5878C7.49983 17.6745 6.75364 16.9341 5.83317 16.9341C4.91269 16.9341 4.1665 17.6745 4.1665 18.5878C4.1665 19.5011 4.91269 20.2415 5.83317 20.2415Z" fill="#323A42"/>
<path d="M14.1667 20.2415C15.0871 20.2415 15.8333 19.5011 15.8333 18.5878C15.8333 17.6745 15.0871 16.9341 14.1667 16.9341C13.2462 16.9341 12.5 17.6745 12.5 18.5878C12.5 19.5011 13.2462 20.2415 14.1667 20.2415Z" fill="#323A42"/>
</g>
<defs>
<clipPath id="clip0">
<rect width="20" height="19.8444" fill="white" transform="translate(0 0.396973)"/>
</clipPath>
</defs>
</svg>
