<svg width="18" height="18" viewBox="0 0 18 18" fill="none" xmlns="http://www.w3.org/2000/svg">
<g clip-path="url(#clip0)">
<path d="M13.4994 0.00374516L11.1653 0C8.54289 0 6.84821 1.73869 6.84821 4.42978V6.4722H4.5013C4.2985 6.4722 4.13428 6.63662 4.13428 6.83942V9.79866C4.13428 10.0015 4.29869 10.1657 4.5013 10.1657H6.84821V17.6328C6.84821 17.8356 7.01243 17.9998 7.21523 17.9998H10.2773C10.4801 17.9998 10.6443 17.8354 10.6443 17.6328V10.1657H13.3884C13.5912 10.1657 13.7554 10.0015 13.7554 9.79866L13.7565 6.83942C13.7565 6.74204 13.7178 6.64879 13.649 6.57988C13.5803 6.51097 13.4867 6.4722 13.3893 6.4722H10.6443V4.74081C10.6443 3.90864 10.8426 3.48618 11.9266 3.48618L13.4991 3.48562C13.7017 3.48562 13.8659 3.32121 13.8659 3.1186V0.370771C13.8659 0.168345 13.7019 0.00411968 13.4994 0.00374516Z" fill="white"/>
</g>
<defs>
<clipPath id="clip0">
<rect width="18" height="17.9998" fill="white" transform="translate(0.000244141)"/>
</clipPath>
</defs>
</svg>
