<svg width="18" height="18" viewBox="0 0 18 18" fill="none" xmlns="http://www.w3.org/2000/svg">
<g clip-path="url(#clip0)">
<path d="M13.0323 0H4.96709C2.22817 0 -0.00012207 2.2284 -0.00012207 4.96732V13.0326C-0.00012207 15.7716 2.22817 17.9999 4.96709 17.9999H13.0323C15.7715 17.9999 17.9998 15.7715 17.9998 13.0326V4.96732C17.9999 2.2284 15.7715 0 13.0323 0ZM16.4028 13.0326C16.4028 14.891 14.8909 16.4029 13.0324 16.4029H4.96709C3.10878 16.403 1.59692 14.891 1.59692 13.0326V4.96732C1.59692 3.10901 3.10878 1.59704 4.96709 1.59704H13.0323C14.8908 1.59704 16.4027 3.10901 16.4027 4.96732V13.0326H16.4028Z" fill="white"/>
<path d="M8.99969 4.36212C6.44219 4.36212 4.36157 6.44274 4.36157 9.00024C4.36157 11.5576 6.44219 13.6381 8.99969 13.6381C11.5572 13.6381 13.6378 11.5576 13.6378 9.00024C13.6378 6.44274 11.5572 4.36212 8.99969 4.36212ZM8.99969 12.041C7.32291 12.041 5.95861 10.6769 5.95861 9.00013C5.95861 7.32324 7.3228 5.95905 8.99969 5.95905C10.6766 5.95905 12.0408 7.32324 12.0408 9.00013C12.0408 10.6769 10.6765 12.041 8.99969 12.041Z" fill="white"/>
<path d="M13.8325 3.00787C13.5248 3.00787 13.2226 3.13244 13.0053 3.3507C12.7869 3.5679 12.6614 3.87027 12.6614 4.17903C12.6614 4.48684 12.787 4.7891 13.0053 5.00736C13.2225 5.22456 13.5248 5.35019 13.8325 5.35019C14.1413 5.35019 14.4426 5.22456 14.6609 5.00736C14.8791 4.7891 15.0037 4.48673 15.0037 4.17903C15.0037 3.87027 14.8791 3.5679 14.6609 3.3507C14.4437 3.13244 14.1413 3.00787 13.8325 3.00787Z" fill="white"/>
</g>
<defs>
<clipPath id="clip0">
<rect width="18" height="18" fill="white" transform="translate(-0.00012207)"/>
</clipPath>
</defs>
</svg>
