<svg width="18" height="18" viewBox="0 0 18 18" fill="none" xmlns="http://www.w3.org/2000/svg">
<g clip-path="url(#clip0)">
<path d="M8.11419 12.6786C6.71877 12.5331 5.4606 12.1894 4.3834 11.3469C4.24974 11.2421 4.11174 11.141 3.98977 11.024C3.51828 10.5711 3.47078 10.0525 3.84386 9.51807C4.16302 9.06073 4.69879 8.93838 5.25568 9.20098C5.36351 9.25188 5.46625 9.31542 5.56466 9.38366C7.5722 10.7631 10.33 10.8011 12.3451 9.44568C12.5448 9.2926 12.7582 9.16781 13.0055 9.10409C13.4864 8.98061 13.9349 9.15725 14.193 9.57802C14.4878 10.0586 14.4841 10.5276 14.1208 10.9007C13.5635 11.4726 12.8933 11.8864 12.1487 12.1753C11.4446 12.4482 10.6733 12.5857 9.91003 12.6769C10.0252 12.8023 10.0795 12.8639 10.1515 12.9363C11.188 13.9777 12.229 15.0147 13.2621 16.0593C13.6141 16.4152 13.6876 16.8566 13.4938 17.2705C13.2819 17.723 12.8076 18.0207 12.3425 17.9888C12.0478 17.9684 11.818 17.8218 11.6139 17.6161C10.8317 16.829 10.0348 16.0565 9.2685 15.2545C9.04548 15.0213 8.93821 15.0654 8.7414 15.2679C7.95452 16.078 7.15482 16.8756 6.35041 17.6687C5.98921 18.0248 5.55938 18.0889 5.14049 17.8855C4.69521 17.6696 4.41186 17.2151 4.43373 16.7583C4.44881 16.4494 4.60076 16.2133 4.81284 16.0016C5.83858 14.9774 6.86148 13.9505 7.88477 12.9246C7.95244 12.8564 8.0156 12.784 8.11419 12.6786Z" fill="white"/>
<path d="M8.96424 9.11084C6.47484 9.10236 4.43356 7.03864 4.44807 4.54528C4.4624 2.0244 6.50501 -0.00707937 9.01891 -0.000104162C11.5379 0.00668253 13.5598 2.06739 13.5471 4.61447C13.5343 7.10273 11.4789 9.11951 8.96424 9.11084ZM11.2267 4.55131C11.2223 3.31331 10.2364 2.32773 9.00081 2.3266C7.75489 2.32528 6.76007 3.32877 6.76969 4.57808C6.77893 5.81138 7.77336 6.78998 9.01231 6.78545C10.2475 6.78112 11.2308 5.78913 11.2267 4.55131Z" fill="white"/>
</g>
<defs>
<clipPath id="clip0">
<rect width="18" height="18" fill="white"/>
</clipPath>
</defs>
</svg>
