<svg width="20" height="20" viewBox="0 0 20 20" fill="none" xmlns="http://www.w3.org/2000/svg">
<path d="M5.90768 9.99991C5.90768 9.49785 5.50065 9.09082 4.99859 9.09082H1.36222C0.860156 9.09082 0.453125 9.49785 0.453125 9.99991C0.453125 10.502 0.860156 10.909 1.36222 10.909H4.99859C5.50065 10.909 5.90768 10.502 5.90768 9.99991Z" fill="#CACFD6"/>
<path d="M18.6335 9.09082H16.8153C16.3133 9.09082 15.9062 9.49785 15.9062 9.99991C15.9062 10.502 16.3133 10.909 16.8153 10.909H18.6335C19.1356 10.909 19.5426 10.502 19.5426 9.99991C19.5426 9.49785 19.1356 9.09082 18.6335 9.09082Z" fill="#CACFD6"/>
<path d="M10.4521 5.45455C10.9541 5.45455 11.3612 5.04752 11.3612 4.54545V0.909091C11.3612 0.40703 10.9541 0 10.4521 0C9.95 0 9.54297 0.40703 9.54297 0.909091V4.54545C9.54297 5.04752 9.95 5.45455 10.4521 5.45455Z" fill="#CACFD6"/>
<path d="M10.456 14.5454C9.95391 14.5454 9.54688 14.9524 9.54688 15.4545V19.0909C9.54688 19.5929 9.95391 20 10.456 20C10.958 20 11.3651 19.5929 11.3651 19.0909V15.4545C11.3651 14.9524 10.958 14.5454 10.456 14.5454Z" fill="#CACFD6"/>
<path d="M4.6691 2.92885C4.31419 2.57382 3.73855 2.57388 3.38346 2.92885C3.02843 3.28388 3.02843 3.85945 3.38346 4.21448L5.9548 6.78587C6.13231 6.96339 6.36498 7.05218 6.59758 7.05218C6.83019 7.05218 7.06292 6.96339 7.24037 6.78593C7.5954 6.4309 7.5954 5.85533 7.24037 5.5003L4.6691 2.92885Z" fill="#CACFD6"/>
<path d="M14.9503 13.2145C14.5954 12.8595 14.0197 12.8595 13.6647 13.2145C13.3097 13.5695 13.3097 14.1451 13.6647 14.5001L16.2361 17.0714C16.4136 17.2489 16.6463 17.3376 16.8789 17.3376C17.1116 17.3376 17.3443 17.2488 17.5217 17.0714C17.8768 16.7164 17.8768 16.1408 17.5217 15.7857L14.9503 13.2145Z" fill="#CACFD6"/>
<path d="M5.95474 13.214L3.38346 15.7853C3.02843 16.1403 3.02843 16.7159 3.38346 17.0709C3.56098 17.2485 3.79364 17.3372 4.02631 17.3372C4.25898 17.3372 4.49164 17.2485 4.6691 17.0709L7.24037 14.4997C7.5954 14.1446 7.5954 13.5691 7.24037 13.214C6.88534 12.859 6.30971 12.859 5.95474 13.214Z" fill="#CACFD6"/>
</svg>
