<svg width="492" height="512" viewBox="0 0 492 512" fill="none" xmlns="http://www.w3.org/2000/svg">
<path d="M231.399 160.23C253.293 150.049 257.863 148.386 257.863 148.386C257.863 148.386 237.67 176.957 236.713 191.295C236.713 191.295 266.365 147.243 301.224 112.647C362.122 52.2841 413.136 58.8295 413.136 58.8295C413.136 58.8295 374.344 44.3882 336.828 52.2841C299.311 60.284 273.911 77.5305 273.911 77.5305C273.911 77.5305 315.466 66.6216 330.557 75.4526C269.447 85.6342 236.82 124.179 236.82 124.179C236.82 124.179 269.66 109.218 279.437 117.945C247.129 131.867 231.399 160.23 231.399 160.23Z" fill="#2A8AEA"/>
<path d="M482.527 167.608C480.72 156.906 480.72 146.725 482.421 135.816C484.121 125.323 481.783 114.206 481.358 103.401C482.102 103.505 483.59 103.505 486.459 103.713C477.213 96.2322 479.339 89.7907 485.822 83.0376C488.585 80.1285 489.966 76.0767 491.454 71.9209C482.102 78.0507 472.431 80.9597 460.209 79.5052C463.184 71.6092 465.841 64.8561 468.392 58.103C468.073 57.5835 467.754 57.1679 467.435 56.6484C461.803 60.5964 456.064 64.1288 450.75 68.4924C446.924 71.7131 443.735 71.817 439.059 70.0508C427.581 65.6872 407.601 68.1807 393.359 71.5053C374.123 75.9728 356.8 86.8817 339.901 99.4529C304.83 125.842 275.603 157.53 252.328 194.204C240.319 213.113 225.015 225.269 206.31 231.503C207.479 242.827 209.392 254.359 212.049 265.788C220.126 300.696 234.261 332.696 253.285 359.396C276.772 355.552 300.153 349.734 323.322 342.254C327.786 340.799 333.312 341.63 338.201 342.462C345.109 343.812 351.698 346.514 358.606 347.968C370.403 350.358 373.167 357.422 365.408 366.981C355.631 379.032 345.109 389.422 326.51 386.513C327.254 390.772 327.786 393.578 328.317 397.006C305.574 381.734 290.801 388.798 286.55 415.915C287.081 416.434 287.506 417.265 288.038 417.265C311.206 417.473 334.269 426.616 357.544 417.993C360.945 416.746 364.877 415.395 368.384 415.707C388.896 417.058 398.355 404.383 407.494 389.214C415.89 375.292 426.837 362.825 436.721 349.838C437.996 348.072 440.122 346.721 440.653 344.747C442.673 338.306 431.195 318.15 424.286 316.072C410.151 311.917 395.804 308.073 381.669 304.021C381.563 303.086 381.244 302.047 381.563 301.735C396.654 285.112 398.355 267.138 392.615 245.424C385.707 219.347 394.954 182.984 413.977 159.4C427.9 170.932 438.953 182.153 443.31 197.945C444.479 202.204 445.117 206.672 445.542 211.035C446.711 222.048 451.281 225.581 462.122 223.295C472.324 221.113 482.846 219.139 485.503 206.672C485.928 204.802 486.778 202.828 486.566 200.958C485.29 189.945 484.546 178.724 482.527 167.608ZM390.702 373.214C384.751 387.552 372.848 397.318 361.263 396.694C371.679 388.279 380.5 381.318 390.702 373.214Z" fill="#2A8AEA"/>
<path d="M47.6385 301.938C21.3877 187.447 59.7542 77.942 135.318 32.2285C34.8851 56.2281 -21.9739 180.07 7.99664 310.665C37.9672 441.26 143.714 529.363 244.891 509.103C156.574 499.337 73.9955 416.429 47.6385 301.938Z" fill="#2A8AEA"/>
<path d="M113.745 287.394C86.3253 168.123 130.75 54.3587 214.603 15.814C208.864 16.4373 203.125 17.2685 197.386 18.5152C95.359 40.9564 37.1184 165.837 67.4078 297.575C97.6971 429.313 204.932 517.831 307.066 495.494C312.805 494.247 318.331 492.689 323.751 490.715C231.183 490.923 141.165 406.664 113.745 287.394Z" fill="#2A8AEA"/>
<path d="M401.903 450.822C313.798 470.146 220.061 389.316 192.641 270.046C165.221 150.775 214.428 38.5695 302.639 19.2452C339.518 11.1414 377.353 20.5958 410.937 43.0369C368 8.33626 316.455 -7.55955 266.079 3.45324C164.052 25.8944 105.917 150.775 136.207 282.513C166.496 414.251 273.837 502.769 375.865 480.432C426.134 469.419 465.776 433.471 489.476 384.122C468.858 418.407 438.782 442.718 401.903 450.822Z" fill="#2A8AEA"/>
</svg>
