<svg width="25" height="25" viewBox="0 0 25 25" fill="none" xmlns="http://www.w3.org/2000/svg">
<path d="M6.25 0C5.39062 0 4.6875 0.703125 4.6875 1.5625V23.4375C4.6875 24.2969 5.39062 25 6.25 25H21.875C22.7344 25 23.4375 24.2969 23.4375 23.4375V6.25L17.1875 0H6.25Z" fill="#E2E5E7"/>
<path d="M18.75 6.25H23.4375L17.1875 0V4.6875C17.1875 5.54688 17.8906 6.25 18.75 6.25Z" fill="#B0B7BD"/>
<path d="M23.4375 10.9375L18.75 6.25H23.4375V10.9375Z" fill="#CAD1D8"/>
<path d="M20.3125 20.3125C20.3125 20.7422 19.9609 21.0938 19.5312 21.0938H2.34375C1.91406 21.0938 1.5625 20.7422 1.5625 20.3125V12.5C1.5625 12.0703 1.91406 11.7188 2.34375 11.7188H19.5312C19.9609 11.7188 20.3125 12.0703 20.3125 12.5V20.3125Z" fill="#F15642"/>
<path d="M4.9707 14.8023C4.9707 14.5961 5.1332 14.3711 5.39492 14.3711H6.83789C7.65039 14.3711 8.38164 14.9148 8.38164 15.957C8.38164 16.9445 7.65039 17.4945 6.83789 17.4945H5.79492V18.3195C5.79492 18.5945 5.61992 18.75 5.39492 18.75C5.18867 18.75 4.9707 18.5945 4.9707 18.3195V14.8023ZM5.79492 15.1578V16.7141H6.83789C7.25664 16.7141 7.58789 16.3445 7.58789 15.957C7.58789 15.5203 7.25664 15.1578 6.83789 15.1578H5.79492Z" fill="white"/>
<path d="M9.60703 18.7499C9.40078 18.7499 9.17578 18.6374 9.17578 18.3632V14.8147C9.17578 14.5905 9.40078 14.4272 9.60703 14.4272H11.0375C13.8922 14.4272 13.8297 18.7499 11.0937 18.7499H9.60703ZM10.0008 15.1897V17.9882H11.0375C12.7242 17.9882 12.7992 15.1897 11.0375 15.1897H10.0008Z" fill="white"/>
<path d="M14.8406 15.24V16.233H16.4336C16.6586 16.233 16.8836 16.458 16.8836 16.676C16.8836 16.8822 16.6586 17.051 16.4336 17.051H14.8406V18.3627C14.8406 18.5814 14.6852 18.7494 14.4664 18.7494C14.1914 18.7494 14.0234 18.5814 14.0234 18.3627V14.8143C14.0234 14.59 14.1922 14.4268 14.4664 14.4268H16.6594C16.9344 14.4268 17.0969 14.59 17.0969 14.8143C17.0969 15.0143 16.9344 15.2393 16.6594 15.2393H14.8406V15.24Z" fill="white"/>
<path d="M19.5312 21.0938H4.6875V21.875H19.5312C19.9609 21.875 20.3125 21.5234 20.3125 21.0938V20.3125C20.3125 20.7422 19.9609 21.0938 19.5312 21.0938Z" fill="#CAD1D8"/>
</svg>
