<svg width="25" height="25" viewBox="0 0 25 25" fill="none" xmlns="http://www.w3.org/2000/svg">
<path d="M7.75862 5.17236H5.26379C4.65651 5.17237 4.07742 5.42858 3.66897 5.87797L0 9.91374L12.2125 11.2068L25 9.91374L21.331 5.87797C20.9226 5.42858 20.3435 5.17237 19.7362 5.17236H17.2414" fill="#90BAE1"/>
<path d="M8.18689 0H16.8076C17.0456 0 17.2386 0.192981 17.2386 0.431034V7.75862H7.75586V0.431034C7.75586 0.192981 7.94884 0 8.18689 0Z" fill="#BDC3C7"/>
<path d="M18.1028 8.18971H6.89588C6.65782 8.18971 6.46484 7.99673 6.46484 7.75867C6.46484 7.52062 6.65782 7.32764 6.89588 7.32764H18.1028C18.3408 7.32764 18.5338 7.52062 18.5338 7.75867C18.5338 7.99673 18.3408 8.18971 18.1028 8.18971Z" fill="#2C3E50"/>
<path d="M15.9487 20.6897H9.05213C8.81407 20.6897 8.62109 20.4967 8.62109 20.2587C8.62109 20.0206 8.81407 19.8276 9.05213 19.8276H15.9487C16.1867 19.8276 16.3797 20.0206 16.3797 20.2587C16.3797 20.4967 16.1867 20.6897 15.9487 20.6897Z" fill="black"/>
<path d="M18.9655 20.2584H22.8448C23.4164 20.2584 23.9646 20.0313 24.3688 19.6272C24.7729 19.223 25 18.6748 25 18.1032V9.91357H0V18.1032C0 18.6748 0.227062 19.223 0.631235 19.6272C1.03541 20.0313 1.58359 20.2584 2.15517 20.2584H6.03448" fill="#4482C3"/>
<path d="M6.03455 20.2587H5.60352V16.3794C5.60352 14.475 7.14736 12.9312 9.05179 12.9312H15.9483C17.8528 12.9312 19.3966 14.475 19.3966 16.3794V20.2587H18.9656" fill="#2C3E50"/>
<path d="M15.9487 20.6897H9.05213C8.81407 20.6897 8.62109 20.4967 8.62109 20.2587C8.62109 20.0206 8.81407 19.8276 9.05213 19.8276H15.9487C16.1867 19.8276 16.3797 20.0206 16.3797 20.2587C16.3797 20.4967 16.1867 20.6897 15.9487 20.6897Z" fill="black"/>
<path d="M22.4148 13.793C22.8909 13.793 23.2769 13.407 23.2769 12.9309C23.2769 12.4548 22.8909 12.0688 22.4148 12.0688C21.9387 12.0688 21.5527 12.4548 21.5527 12.9309C21.5527 13.407 21.9387 13.793 22.4148 13.793Z" fill="#285680"/>
<path d="M22.4135 15.9485C22.6515 15.9485 22.8445 15.7555 22.8445 15.5175C22.8445 15.2794 22.6515 15.0864 22.4135 15.0864C22.1754 15.0864 21.9824 15.2794 21.9824 15.5175C21.9824 15.7555 22.1754 15.9485 22.4135 15.9485Z" fill="#CC4B4C"/>
<path d="M22.4135 17.2415C22.6515 17.2415 22.8445 17.0485 22.8445 16.8104C22.8445 16.5724 22.6515 16.3794 22.4135 16.3794C22.1754 16.3794 21.9824 16.5724 21.9824 16.8104C21.9824 17.0485 22.1754 17.2415 22.4135 17.2415Z" fill="#4FBA6F"/>
<path d="M22.4135 18.5344C22.6515 18.5344 22.8445 18.3414 22.8445 18.1034C22.8445 17.8653 22.6515 17.6724 22.4135 17.6724C22.1754 17.6724 21.9824 17.8653 21.9824 18.1034C21.9824 18.3414 22.1754 18.5344 22.4135 18.5344Z" fill="#4FBA6F"/>
<path d="M8.18824 16.8105H16.8089C17.285 16.8105 17.671 17.1965 17.671 17.6726V19.3968H7.32617V17.6726C7.32617 17.1965 7.71213 16.8105 8.18824 16.8105Z" fill="#285680"/>
<path d="M1.72205 12.5001C1.484 12.5001 1.29102 12.3072 1.29102 12.0691V11.6381C1.29102 11.4 1.484 11.207 1.72205 11.207C1.9601 11.207 2.15308 11.4 2.15308 11.6381V12.0691C2.15308 12.3072 1.9601 12.5001 1.72205 12.5001Z" fill="#90BAE1"/>
<path d="M1.72205 16.8101C1.484 16.8101 1.29102 16.6171 1.29102 16.3791V13.7929C1.29102 13.5548 1.484 13.3618 1.72205 13.3618C1.9601 13.3618 2.15308 13.5548 2.15308 13.7929V16.3791C2.15308 16.6171 1.9601 16.8101 1.72205 16.8101Z" fill="#90BAE1"/>
<path d="M17.5168 23.7071H20.6893C20.8525 23.7071 21.0018 23.6148 21.0748 23.4688C21.1478 23.3228 21.132 23.148 21.0341 23.0174L18.9651 20.2588L17.672 18.5347H7.32718L6.03408 20.2588L3.96512 23.0174C3.86716 23.148 3.8514 23.3228 3.92441 23.4688C3.99743 23.6148 4.14668 23.7071 4.30994 23.7071H7.48236" fill="#4482C3"/>
<path d="M17.4338 25.0002H7.56568C7.41913 25.0001 7.28265 24.9256 7.20334 24.8024C7.12403 24.6792 7.11277 24.5241 7.17344 24.3907L8.9368 20.5114C9.00675 20.3576 9.16009 20.2588 9.32904 20.2588H15.6704C15.8394 20.2588 15.9927 20.3576 16.0627 20.5114L17.826 24.3907C17.8867 24.5241 17.8754 24.6792 17.7961 24.8024C17.7168 24.9256 17.5803 25.0001 17.4338 25.0002Z" fill="#BDC3C7"/>
<path d="M14.223 22.4138H10.7748C10.5367 22.4138 10.3438 22.2208 10.3438 21.9828C10.3438 21.7447 10.5367 21.5518 10.7748 21.5518H14.223C14.4611 21.5518 14.6541 21.7447 14.6541 21.9828C14.6541 22.2208 14.4611 22.4138 14.223 22.4138Z" fill="#2C3E50"/>
<path d="M15.0859 23.7068H9.91346C9.6754 23.7068 9.48242 23.5138 9.48242 23.2758C9.48242 23.0377 9.6754 22.8447 9.91346 22.8447H15.0859C15.3239 22.8447 15.5169 23.0377 15.5169 23.2758C15.5169 23.5138 15.3239 23.7068 15.0859 23.7068Z" fill="#2C3E50"/>
</svg>
