<svg width="50" height="50" viewBox="0 0 50 50" fill="none" xmlns="http://www.w3.org/2000/svg">
<path d="M25 0C11.2152 0 0 11.2152 0 25C0 38.7848 11.2152 50 25 50C38.7848 50 50 38.7848 50 25C50 11.2152 38.7848 0 25 0ZM25 46.8751C12.938 46.8751 3.12503 37.0621 3.12503 25.0001C3.12503 12.9381 12.938 3.12503 25 3.12503C37.062 3.12503 46.8751 12.938 46.8751 25C46.8751 37.062 37.062 46.8751 25 46.8751Z" fill="#2A8AEA"/>
<path d="M23.4375 37.5H26.5625V40.625H23.4375V37.5Z" fill="#2A8AEA"/>
<path d="M25 9.375C19.8304 9.375 15.625 13.5803 15.625 18.75V21.875H18.75V18.75C18.75 15.303 21.5531 12.5 25 12.5C28.447 12.5 31.25 15.3031 31.25 18.75C31.25 21.0953 30.0003 23.3032 27.9891 24.5102L24.1957 26.7852C23.7258 27.0675 23.4374 27.5756 23.4374 28.1249V34.3749H26.5624V29.0099L29.5974 27.1896C32.5439 25.4196 34.3749 22.1862 34.3749 18.7499C34.375 13.5803 30.1696 9.375 25 9.375Z" fill="#2A8AEA"/>
</svg>
