<svg width="20" height="20" viewBox="0 0 20 20" fill="none" xmlns="http://www.w3.org/2000/svg">
<g clip-path="url(#clip0)">
<path d="M19.2906 2.75895C18.8608 2.71977 18.4808 3.03637 18.4416 3.46605L18.3381 4.60156C16.5819 1.84352 13.5333 0 10.0009 0C6.20088 0 2.85202 2.16883 1.1896 5.42398C0.993345 5.80824 1.14577 6.27883 1.53002 6.47508C1.91436 6.67133 2.38487 6.51895 2.58112 6.13465C3.98803 3.3798 6.81331 1.5625 10.0009 1.5625C12.9063 1.5625 15.5282 3.07543 17.0303 5.44563L15.9164 4.65004C15.5653 4.3993 15.0773 4.48063 14.8266 4.83172C14.5758 5.18285 14.6572 5.67074 15.0083 5.92152L18.3862 8.33406C18.8813 8.68699 19.5641 8.36391 19.6183 7.76926L19.9976 3.60793C20.0368 3.1782 19.7203 2.79813 19.2906 2.75895Z" fill="#2A8AEA"/>
<path d="M18.4701 13.5252C18.0858 13.329 17.6152 13.4813 17.419 13.8656C16.0121 16.6204 13.1868 18.4377 9.99916 18.4377C7.09381 18.4377 4.47186 16.9248 2.96975 14.5546L4.0837 15.3502C4.43483 15.6009 4.92272 15.5196 5.1735 15.1685C5.42424 14.8174 5.34291 14.3295 4.99182 14.0787L1.61389 11.6662C1.12487 11.3168 0.436508 11.6302 0.38182 12.231L0.00248419 16.3923C-0.0366955 16.822 0.279906 17.2021 0.709554 17.2413C1.13979 17.2804 1.51936 16.9634 1.5585 16.5342L1.66202 15.3986C3.41819 18.1567 6.46678 20.0003 9.99916 20.0003C13.7992 20.0003 17.1481 17.8314 18.8105 14.5763C19.0067 14.192 18.8543 13.7214 18.4701 13.5252Z" fill="#2A8AEA"/>
</g>
<defs>
<clipPath id="clip0">
<rect width="20" height="20" fill="white"/>
</clipPath>
</defs>
</svg>
