<svg width="20" height="20" viewBox="0 0 20 20" fill="none" xmlns="http://www.w3.org/2000/svg">
<g clip-path="url(#clip0)">
<path d="M18.9275 3.37107C18.6931 3.09195 18.3996 2.86747 18.0679 2.71357C17.7363 2.55966 17.3745 2.4801 17.0083 2.48055H3.535L3.5 2.19032C3.42837 1.58707 3.13615 1.03086 2.67874 0.627147C2.22133 0.223434 1.63052 0.000282612 1.01833 0L0.833333 0C0.61232 0 0.400358 0.0871143 0.244078 0.242179C0.0877974 0.397243 0 0.607555 0 0.826849C0 1.04614 0.0877974 1.25646 0.244078 1.41152C0.400358 1.56658 0.61232 1.6537 0.833333 1.6537H1.01833C1.22244 1.65373 1.41945 1.72808 1.57198 1.86266C1.72451 1.99723 1.82195 2.18267 1.84583 2.38381L2.9925 12.0579C3.11154 13.064 3.59873 13.9918 4.36159 14.665C5.12445 15.3383 6.10988 15.7102 7.13083 15.7101H15.8333C16.0543 15.7101 16.2663 15.623 16.4226 15.468C16.5789 15.3129 16.6667 15.1026 16.6667 14.8833C16.6667 14.664 16.5789 14.4537 16.4226 14.2986C16.2663 14.1436 16.0543 14.0564 15.8333 14.0564H7.13083C6.61505 14.055 6.11233 13.8953 5.69161 13.5992C5.27089 13.3032 4.95276 12.8852 4.78083 12.4027H14.7142C15.6911 12.4028 16.6369 12.0623 17.3865 11.4406C18.1361 10.819 18.6417 9.95584 18.815 9.00191L19.4692 5.40181C19.5345 5.04461 19.5198 4.67754 19.4262 4.3266C19.3326 3.97566 19.1623 3.64945 18.9275 3.37107ZM17.8333 5.10828L17.1783 8.70838C17.0743 9.28138 16.7704 9.79981 16.3199 10.1729C15.8694 10.546 15.301 10.7499 14.7142 10.749H4.51583L3.73167 4.13425H17.0083C17.1307 4.13352 17.2518 4.15957 17.3629 4.21053C17.4741 4.26149 17.5725 4.33612 17.6513 4.42911C17.73 4.5221 17.7872 4.63116 17.8186 4.74854C17.8501 4.86593 17.8551 4.98875 17.8333 5.10828Z" fill="#2A8AEA"/>
<path d="M5.83317 19.8445C6.75364 19.8445 7.49983 19.1041 7.49983 18.1908C7.49983 17.2775 6.75364 16.5371 5.83317 16.5371C4.91269 16.5371 4.1665 17.2775 4.1665 18.1908C4.1665 19.1041 4.91269 19.8445 5.83317 19.8445Z" fill="#2A8AEA"/>
<path d="M14.1667 19.8445C15.0871 19.8445 15.8333 19.1041 15.8333 18.1908C15.8333 17.2775 15.0871 16.5371 14.1667 16.5371C13.2462 16.5371 12.5 17.2775 12.5 18.1908C12.5 19.1041 13.2462 19.8445 14.1667 19.8445Z" fill="#2A8AEA"/>
</g>
<defs>
<clipPath id="clip0">
<rect width="20" height="19.8444" fill="white"/>
</clipPath>
</defs>
</svg>
